<svg id="theEarth" xmlns="http://www.w3.org/2000/svg" viewBox="0 0 280.34 281"><defs><style>.cls-1{fill:#0045bb;}.cls-2{fill:#39b54a;}.cls-3{fill:#001931;opacity:0.37;}.cls-4{fill:#b9f0ff;opacity:0.15;}</style></defs><g id="earth"><path class="cls-1" d="M1119.93,457.65a140.73,140.73,0,0,1-1.78,22.35c-.07.45-.14.89-.23,1.34a138.32,138.32,0,0,1-15.41,44c-.2.39-.41.77-.63,1.15A140.43,140.43,0,0,1,1016.21,593q-5.72,1.53-11.61,2.6l-.85.14A140.36,140.36,0,0,1,883.26,559.3l-1.21-1.16c-.15-.13-.29-.28-.43-.42l-.44-.45-.07-.07-.26-.25c-2.33-2.32-4.59-4.73-6.75-7.22q-.89-1-1.74-2-3.43-4.07-6.53-8.39c-.48-.67-1-1.34-1.41-2-.19-.25-.36-.5-.53-.75-.29-.42-.57-.84-.85-1.27-.4-.59-.79-1.18-1.17-1.78-.13-.19-.25-.39-.37-.59-.5-.76-1-1.53-1.44-2.3q-.15-.23-.27-.45c-.49-.8-1-1.6-1.43-2.4-.15-.25-.3-.51-.44-.77-.38-.65-.75-1.31-1.1-2s-.81-1.47-1.19-2.22c-.07-.12-.14-.25-.2-.38-.38-.71-.75-1.44-1.11-2.16-.18-.35-.36-.71-.53-1.07-.43-.88-.85-1.76-1.26-2.65s-.93-2-1.37-3A138.46,138.46,0,0,1,841.7,482a141.09,141.09,0,0,1,2.56-60.31v0q.42-1.56.87-3.12a138.39,138.39,0,0,1,11-27,140.38,140.38,0,0,1,25.11-33.59l.09-.09.28-.27q1.5-1.49,3.06-2.91l.77-.71c1.22-1.11,2.44-2.19,3.7-3.25l.16-.13a140,140,0,0,1,162.17-13.38l1.64,1c.61.37,1.22.75,1.82,1.14.39.25.78.49,1.16.75.82.52,1.63,1.06,2.43,1.61s1.53,1.05,2.29,1.59l.26.18c.73.52,1.46,1.05,2.18,1.59l.38.28,1.14.87c.66.5,1.32,1,2,1.54.31.24.63.49.93.75.57.44,1.13.91,1.69,1.39.41.32.8.66,1.2,1s1,.84,1.47,1.27.84.73,1.25,1.11c.85.75,1.68,1.52,2.51,2.3,1.07,1,2.13,2,3.16,3.08l0,0q3.73,3.72,7.17,7.73h0q3.12,3.63,6,7.48c.21.28.42.56.62.85q3.32,4.49,6.25,9.25h0l0,.06a1.4,1.4,0,0,1,.1.16l.35.55.27.45c.21.36.4.68.58,1,1.12,1.89,2.2,3.8,3.23,5.75.35.66.7,1.31,1,2h0a139,139,0,0,1,14,44.43c0,.12,0,.23.05.35A141.18,141.18,0,0,1,1119.93,457.65Z" transform="translate(-839.59 -317.48)"/></g><g id="land"><path class="cls-2" d="M1007.87,587.54c-.3-.69.53,0,0,0Z" transform="translate(-839.59 -317.48)"/><path class="cls-2" d="M1003.75,595.77A140.36,140.36,0,0,1,883.26,559.3l-1.21-1.16c-.15-.13-.29-.28-.43-.42l-.44-.45c2.92-1.06,1.47-1.34,4.52-.75,12.84,2.48,16.39,9.72,23.52,2.51a34.46,34.46,0,0,1,4.24-3.74c2.88-2.06,2.88-.79,2.88-3.45,0-3.6,10.69,7.91,0-3.6s2.27-6.14-10.33-21.72-22.09-11.41-23.87-15.74-4.64-2.51-5.7-7.91,4.63-6.84-1.78-16.55-5.17-11.18-9.09-14.94c-1.87-1.82-4.82-2.36-5.88-4.88-.43-1-4.63-3.23-4.27-.36s1.69,5.27,4.37,4.74a.72.72,0,0,1,.48.07L862,472l.07,0c1.59,1.22.3.21,1.61,1.23a13.73,13.73,0,0,1,2.62,3c-.87,2.57,2.66,2-5.17.45-5-1-3.87-1.95-7.39-5.58-2.4-2.47,1.06.9-2.5-5.59-.13-.25-.28-.52-.44-.8-4.27-7.57-5.34-9.11-6-13.37-.57-3.34-2.44-10.71-2.53-15.64h0a9.77,9.77,0,0,1,.39-3.39c1-2.77,1.46-7.83,1.67-10.62v0q.42-1.56.87-3.12a138.39,138.39,0,0,1,11-27,140.38,140.38,0,0,1,25.11-33.59l.09-.09c.49,0,1,0,1.52,0,1.13,0,2.42,0,4.11,0,4.69.18,3.6.31,5.21.07a2.24,2.24,0,0,1,1.15,0c-.26-.1-.52-.21-.75-.32-2.84-1.44-1.48-1.11-1.93-1.29-1.47-.57-5.53,1.59-6.08-.12a2.3,2.3,0,0,1,.06-1.36c0-.08,0-.16,0-.23l.77-.71c1.22-1.11,2.44-2.19,3.7-3.25h0l2.18-.41c4.21-.76,2.66-.22,5.17.82,2.79,1.13,5-.33,6.28,1.62,5.69,8.68,1.93,3.83,8.2,4s6,0,14.6-3.6,4.47-1.07,5.93-6.16c.66-2.29,3.55,1,4.4.67,3.56-1.49,5.29-6,7.61-1.76q.13.24.24.39c.71,1.05.44-.64.44,3.25,0,4.28-.14,2.81,0,4.28.58,6.06,8.55,0,9.9.76,2.11,1.14,1.42,4,1.77,5.41s9.27.72-1.06,7.19-12.48,1.81-17.46,10.82c-1.5,2.68-2.82,5.11-4,7.2a2.66,2.66,0,0,0,2.52,4c2.21-.27,4.65.57,6.79,4,5.7,9,.41,11.88,5.37,13.31s5.68,3.61,4.25,0,1.07-8.28,2.85-11.88,0-5.76,5-2.52,6.06-.48,11.77,3.61,3.11,3.44,6.69,6.15c3.88,2.92,7.06,1.95,4.71,6.61-4.44,8.82-7.13,6.85-5.35,12.79,1.62,5.41,5,1.09,4.64,6.13s1.43,6.83-2.49,6.83,3.92-12.23-3.93,0-12.11,13-12.11,24.13-.83,16.15,1.8,25.91c1.38,5.13,2.16,2.48,1,7.09-1.09,4.15-5.08,10.66-6.72,8.87s-.79-1.71-1.71-7.1,1.45-3.09.17-7.77-.91-5.76-4.1-9.36-4.64-6.48-10.7-6.85-8.89-1-17.46,3.61-7.41,3.12-9.43,5.82-5.54-.06-3.75,13.26-7.13,12.61-3.21,19.81,12.83,9,15.67,9.36,6.42,3.35,2.14,5.64-1.42,2.28-7.47,2.28-8.55-1.09-6.06,3.23,7.12-1.07,9.26,6.12,5.39,3.05,1.07,9.37-3.21,7.2,8.91,10.08c11.7,2.77,9.14-4.17,14.06,3.76l.57.92c5.68,9.36-2.18,10.41,7.81,10.08,5.53-.18,3.52-3.59,16.93,5,5.88,3.79,1.65,2.69,8.37,5.41,7.14,2.88,5.07,2.24,12.83,6,2.69,1.27,3.78,1.55,4.16,1.51a11.87,11.87,0,0,0,1.54,2.26A11.25,11.25,0,0,0,1003.75,595.77Z" transform="translate(-839.59 -317.48)"/><path class="cls-2" d="M1020.58,355.56c-2.45-2.53-1.19-3.39-6-1.87s-3.69,2.22-4.82,5.11-1.42,3,.65,5.87-.52,3.72,3.92,1.87,1.29-1.07,4.94-2.68,8.61-3.21,11,.77,1.18,6.13,5,8.34,4.19,2.51,4.2,6.12,3.54-.07.28,6.47-5.29,5-2.89,7.86,1.29,2.72,4.43,3.2,2,1.75,4.53,2.49,1.64-.63,6.47,1c2.74.91,3.09.89,3.71,1.73,1.29,1.74,1.86-.3-.37-3.8-.49-.77-.87,0-2.36-2.57-.55-1,.57-.3,1-2.77s1.23-2.22,1.6-4.69,1.42-5.56,1.87-8.56-.74-1.38.56-5,3.78-5,3.37-7.26,1.54-9.45-4.91-15.49-11.54-2.78-16.4-4-7,2-9.48-.52-.94-3.77-4.3-2.83-5.15,1.56-6,3.6.13,2.9.42,4.75A4,4,0,0,1,1020.58,355.56Z" transform="translate(-839.59 -317.48)"/><path class="cls-2" d="M1063.36,377.22c-2.61,6.28-5.74,4.54-3.3,9.6s-.5,5.46,4,6,2.78-4.63,3.34-5.81,1.38-3.22,1-4.36-3.61-5.24-3.61-5.24Z" transform="translate(-839.59 -317.48)"/><path class="cls-2" d="M1083.55,374.65c-3.4,2.16-7-7.27-7-7.27a59.65,59.65,0,0,1,0-6.12,37.31,37.31,0,0,0,0-4.93,141.14,141.14,0,0,1,10.35,10.83h0C1087.78,368.16,1087,372.5,1083.55,374.65Z" transform="translate(-839.59 -317.48)"/><path class="cls-2" d="M1099,384c-.63-.35-1.5-.26-3.56-.31-3.71-.07-1.36,1.07-7.83,3.12s-1-2.39,0-6.49,3-4.39,5.14-5.57Q1096.1,379.22,1099,384Z" transform="translate(-839.59 -317.48)"/><path class="cls-2" d="M1118.66,438.69c-5.54-3.12-4.2.51-5.83.18s-4.09.68-8.17,0-2.38-3.4-4.77-10.89,0-5.79,0-14.3c0-7.6,4.95-15.66,4.74-19.77a139,139,0,0,1,14,44.43C1118.63,438.46,1118.64,438.57,1118.66,438.69Z" transform="translate(-839.59 -317.48)"/><path class="cls-2" d="M1117.92,481.34a138.32,138.32,0,0,1-15.41,44,49.16,49.16,0,0,1,.11-8.18c.34-4.08-1-3.4,0-5.79s2.72-6.12,3.06-10.21-1-2,0-11.23C1106.6,481.62,1109.75,485.83,1117.92,481.34Z" transform="translate(-839.59 -317.48)"/></g><g id="earthshading"><path class="cls-3" d="M985.89,598.48q4.44-.18,8.79-.6C991.78,598.18,988.84,598.38,985.89,598.48Z" transform="translate(-839.59 -317.48)"/><path class="cls-3" d="M1119.93,457.65a140.73,140.73,0,0,1-1.78,22.35c-.07.45-.14.89-.23,1.34a138.32,138.32,0,0,1-15.41,44c-.2.39-.41.77-.63,1.15A140.43,140.43,0,0,1,1016.21,593q-5.72,1.53-11.61,2.6l-.85.14A140.36,140.36,0,0,1,883.26,559.3l-1.21-1.16c-.15-.13-.29-.28-.43-.42l-.44-.45-.07-.07a140.16,140.16,0,0,1-29.18-43q3.66,4.34,7.69,8.35c.75.76,1.52,1.5,2.29,2.23a133,133,0,0,0,85.6,36.54c2.08.09,4.18.14,6.28.14a134.47,134.47,0,0,0,23.65-2.09q5.61-1,11-2.47a133.71,133.71,0,0,0,81.57-63.34,132.18,132.18,0,0,0,15.49-44.28,135.25,135.25,0,0,0,.44-39.66,132.56,132.56,0,0,0-14.29-44.19q-1.47-2.78-3.08-5.47c-.17-.28-.35-.58-.55-.93-.1-.15-.17-.29-.26-.42l-.33-.53s-.06-.1-.1-.15c-2-3.32-4.24-6.56-6.58-9.68-1.81-2.44-3.72-4.82-5.7-7.12h0c-.93-1.08-1.87-2.14-2.84-3.19a139.4,139.4,0,0,1,24.33,18.36c.81.76,1.6,1.52,2.39,2.31l0,0q3.73,3.72,7.17,7.73h0q3.12,3.63,6,7.48c.21.28.42.56.62.85q3.32,4.49,6.25,9.25h0l0,.06a1.4,1.4,0,0,1,.1.16l.35.55.27.45c.21.36.4.68.58,1,1.12,1.89,2.2,3.8,3.23,5.75.35.66.7,1.31,1,2h0a139,139,0,0,1,14,44.43c0,.12,0,.23.05.35A141.18,141.18,0,0,1,1119.93,457.65Z" transform="translate(-839.59 -317.48)"/><path class="cls-4" d="M1030,334.38a162.16,162.16,0,0,0-22-1.49A159.52,159.52,0,0,0,905.7,369.73c-1.48,1.22-2.93,2.47-4.37,3.76s-2.92,2.66-4.33,4c-.15.13-.28.26-.42.4a156.16,156.16,0,0,0-28.41,37.38,153.33,153.33,0,0,0-18.68,69.82q-3.56-1.08-7-2.36a141.06,141.06,0,0,1,3.43-63.45,138.39,138.39,0,0,1,11-27A140.38,140.38,0,0,1,882,358.71l.37-.36q1.88-1.85,3.83-3.62c1.27-1.16,2.55-2.28,3.86-3.38a140.31,140.31,0,0,1,138.8-24.53c.3,1.66.56,3.34.79,5C1029.79,332.69,1029.89,333.54,1030,334.38Z" transform="translate(-839.59 -317.48)"/></g></svg>