<svg xmlns="http://www.w3.org/2000/svg" viewBox="0 0 431.07 729"><defs><style>.cls-1{fill:#7a5f00;}.cls-2{fill:#f9e12b;}.cls-3{fill:#ffa135;}.cls-4{fill:#fac700;}.cls-5{fill:#ff7805;}.cls-6{fill:none;stroke:#2e3192;stroke-miterlimit:10;}.cls-7{fill:#000fd4;}.cls-8{fill:#004ddc;}.cls-9{fill:#e6e7e8;}.cls-10,.cls-11{fill:#d1d3d4;}.cls-11{opacity:0.4;}.cls-12{fill:#49c900;opacity:0.7;}.cls-13{fill:#235500;opacity:0.9;}.cls-14{fill:#f62600;}.cls-15{fill:#644d00;}.cls-16{fill:#fffa18;}.cls-17{fill:#00a79d;}.cls-18{fill:#00505f;}.cls-19{fill:#ee2a7b;}.cls-20{fill:#cff4ff;}.cls-21{fill:#b16e00;}.cls-22{fill:#ef4136;}.cls-23{fill:#2e3192;}.cls-24{fill:#ff5862;}.cls-25{fill:#3c2415;}.cls-26{fill:#c26700;}.cls-27{fill:#002b5f;}.cls-28{fill:#0080e9;}</style></defs><g id="leftBuilding"><g id="buiildingLeftroof"><rect class="cls-1" y="116.08" width="232.85" height="17.36" rx="3.27"/></g><g id="buildingLeftBase"><path class="cls-2" d="M224.65,539.46V999.39a4.94,4.94,0,0,1-4.94,4.93H4.94a5,5,0,0,1-3.8-1.78A4.87,4.87,0,0,1,0,999.39V539.46a4.92,4.92,0,0,1,4.28-4.88,3.67,3.67,0,0,1,.66-.05H219.71a3.67,3.67,0,0,1,.66.05A4.92,4.92,0,0,1,224.65,539.46Z" transform="translate(3.43 -317.34)"/><path class="cls-3" d="M224.65,457.87v70.2a7.06,7.06,0,0,1-7.08,7.08H7.08a7,7,0,0,1-2.8-.57,6.78,6.78,0,0,1-1.9-1.22,5.85,5.85,0,0,1-.61-.61A7,7,0,0,1,0,528.07v-70.2a7.08,7.08,0,0,1,7.08-7.08H217.57A7.08,7.08,0,0,1,224.65,457.87Z" transform="translate(3.43 -317.34)"/></g><g id="Layer_116" data-name="Layer 116"><g id="buildingLeftBase_copy" data-name="buildingLeftBase copy"><polyline class="cls-4" points="3.43 217.8 3.43 223.92 3.43 685.85 3.43 689.01 4.57 689.01 70.32 689.01 70.32 219.59 70.32 218.97 70.32 217.8 70.32 217.19 5.2 217.19 3.43 217.19"/><polyline class="cls-5" points="3.43 217.8 5.81 217.8 70.32 217.8 70.32 217.19 70.32 135.23 70.32 133.44 3.43 133.44 3.43 142.31 3.43 212.51 3.43 217.19"/><line class="cls-6" x1="3.43" y1="216.02" x2="3.43" y2="215.41"/></g><line class="cls-6" x1="186.88" y1="215.67" x2="186.88" y2="216.28"/></g></g><g id="solarpanels"><g id="solarpanelBase"><polygon class="cls-7" points="211.08 116.09 76.24 116.09 3.43 18.49 3.43 0.68 126.99 0.68 211.08 116.09"/><polygon class="cls-8" points="58.68 116.09 3.43 116.09 3.43 40.25 58.68 116.09"/></g><g id="spLines"><polygon class="cls-9" points="91.65 116.09 75.6 116.09 70.32 108.98 50.35 82.09 46.46 76.86 21.2 42.86 17.33 37.64 3.43 18.93 3.43 0.77 5.99 0.77 15.03 12.94 33.37 37.64 37.25 42.86 62.51 76.86 66.39 82.09 86.37 108.98 91.65 116.09"/><polygon class="cls-9" points="216 116.09 200.08 116.09 194.59 108.98 173.84 82.09 169.81 76.86 143.57 42.86 139.54 37.64 120.48 12.94 111.09 0.77 127.02 0.77 136.41 12.94 155.46 37.64 159.49 42.86 185.73 76.86 189.76 82.09 210.51 108.98 216 116.09"/><polygon class="cls-9" points="29.87 75.46 9.74 75.46 3.43 66.66 3.43 40.25 2.73 37.64 29.87 75.46"/><polygon class="cls-9" points="3.43 41.27 4.61 42.86 3.43 42.86 3.43 41.27"/><polygon class="cls-9" points="59.01 116.09 38.88 116.09 33.6 108.72 13.63 80.87 9.74 75.46 29.87 75.46 33.76 80.87 53.73 108.72 59.01 116.09"/><polygon class="cls-10" points="20.76 116.09 14.25 116.09 8.97 108.98 3.43 101.52 3.43 92.76 15.48 108.98 20.76 116.09"/><polygon class="cls-9" points="171.96 116.09 166.68 108.98 146.71 82.09 142.82 76.86 117.57 42.86 113.69 37.64 95.34 12.94 86.3 0.77 79.79 0.77 88.83 12.94 107.18 37.64 111.06 42.86 136.32 76.86 140.2 82.09 160.18 108.98 165.46 116.09 171.96 116.09"/><polygon class="cls-9" points="126.11 116.09 120.83 108.98 100.85 82.09 96.97 76.86 71.71 42.86 67.84 37.64 49.49 12.94 40.45 0.77 33.94 0.77 42.98 12.94 61.33 37.64 65.2 42.86 90.46 76.86 94.35 82.09 114.32 108.98 119.6 116.09 126.11 116.09"/><polygon class="cls-9" points="4.61 42.86 3.43 42.86 3.43 41.27 4.61 42.86"/><polygon class="cls-9" points="157.69 42.86 21.2 42.86 17.33 37.64 153.81 37.64 157.69 42.86"/><polygon class="cls-9" points="33.76 82.09 3.43 82.09 3.43 76.86 29.87 76.86 33.76 82.09"/><polygon class="cls-9" points="186.83 82.09 50.35 82.09 46.46 76.86 182.95 76.86 186.83 82.09"/><polygon class="cls-9" points="135.47 12.17 3.43 12.17 3.43 0 126.43 0 135.47 12.17"/><polygon class="cls-11" points="53.73 108.98 59.01 116.09 3.43 116.09 3.43 108.98 53.73 108.98"/><polygon class="cls-11" points="212.09 116.09 75.6 116.09 70.32 108.98 206.81 108.98 212.09 116.09"/><line class="cls-10" x1="126.11" y1="116.09" x2="119.6" y2="116.09"/><line class="cls-10" x1="171.96" y1="116.09" x2="165.46" y2="116.09"/></g></g><g id="Tree1"><g id="TreeLeaves"><ellipse class="cls-12" cx="176.17" cy="457.21" rx="56.68" ry="50.53"/><circle class="cls-12" cx="267.06" cy="406.67" r="84.26"/><circle class="cls-12" cx="224.26" cy="322.42" r="114.81"/></g><g id="Layer_8" data-name="Layer 8"><g id="TreeTrunk_copy" data-name="TreeTrunk copy"><rect class="cls-13" x="211.07" y="299.87" width="17" height="380" rx="6.3"/><rect class="cls-13" x="239.82" y="679.02" width="17" height="90" rx="6.42" transform="translate(674.86 -231.16) rotate(52.49)"/><rect class="cls-13" x="185.71" y="739.61" width="17" height="60" rx="6.42" transform="translate(-483.89 45.4) rotate(-45)"/></g></g><g id="Tree_Base" data-name="Tree Base"><rect class="cls-14" x="131.83" y="660.42" width="184.85" height="26.55"/></g></g><g id="treeDecor"><g id="treeline"><path class="cls-15" d="M112.07,601.18s-5.17,18.05,8.66,39.68a108.58,108.58,0,0,0,36.17,35.4c6.82,4.33,23.31,14.7,31.8,18.06s19,7.45,19,7.45l.7-4s-5.92-1.2-17.49-7.49-26.49-13.39-30.94-18.19-16.45-7.9-29-26.78-15.63-30.27-15.8-36,0-12.44,0-12.44Z" transform="translate(3.43 -317.34)"/><path class="cls-15" d="M226.1,797.43s20.59,5.2,44.52-10.78a120.36,120.36,0,0,0,38.69-41.17c4.65-7.7,15.75-26.3,19.24-35.81s7.72-21.24,7.72-21.24l-4.5-.67s-1.14,6.61-7.82,19.63-14.17,29.78-19.44,34.85-8.32,18.49-29.19,33-33.64,18.23-40.06,18.59-14,.35-14,.35Z" transform="translate(3.43 -317.34)"/></g><g id="light_bulbs" data-name="light bulbs"><path class="cls-16" d="M117.38,630.44s-7.92,2.83-9,9.55,3.6,9.14,5,9.09,6.49-1,7.56-6S117.38,630.44,117.38,630.44Z" transform="translate(3.43 -317.34)"/><path class="cls-16" d="M146.55,669.13s-7.92,2.82-9,9.55,3.61,9.13,5,9.08,6.5-1,7.57-6S146.55,669.13,146.55,669.13Z" transform="translate(3.43 -317.34)"/><path class="cls-16" d="M186,691.8s-7.91,2.83-9,9.56,3.61,9.13,5,9.08,6.49-1,7.56-6S186,691.8,186,691.8Z" transform="translate(3.43 -317.34)"/><path class="cls-16" d="M247.88,793.1s-5.5,6.36-3.14,12.76,7.64,6.17,8.84,5.44,5.13-4.11,3.61-9S247.88,793.1,247.88,793.1Z" transform="translate(3.43 -317.34)"/><path class="cls-16" d="M290.88,765.33s-5.33,6.5-2.8,12.83,7.8,6,9,5.2,5-4.24,3.37-9.07S290.88,765.33,290.88,765.33Z" transform="translate(3.43 -317.34)"/><path class="cls-16" d="M321,718.5s-3.65,7.57.3,13.13,9,4,9.95,2.94,3.89-5.31,1.14-9.61S321,718.5,321,718.5Z" transform="translate(3.43 -317.34)"/></g></g><g id="ladder"><g id="backladder"><path class="cls-17" d="M345.49,1025.82l1.6.23a3.65,3.65,0,0,0,4.17-3l31.2-200.21a3.57,3.57,0,0,0-3.07-4.05l-1.6-.23a3.64,3.64,0,0,0-4.16,3l-31.21,200.21A3.58,3.58,0,0,0,345.49,1025.82Z" transform="translate(3.43 -317.34)"/><path class="cls-17" d="M278.62,1022.63l1.62.36a3.64,3.64,0,0,0,4.35-2.67l46.06-197.53a3.55,3.55,0,0,0-2.75-4.23l-1.62-.35a3.64,3.64,0,0,0-4.35,2.66L275.88,1018.4A3.52,3.52,0,0,0,278.62,1022.63Z" transform="translate(3.43 -317.34)"/></g><g id="Layer_67" data-name="Layer 67"><rect class="cls-17" x="319.38" y="932.02" width="5.83" height="63.8" rx="1.63" transform="translate(-638.2 968.87) rotate(-90)"/><rect class="cls-17" x="327.14" y="895.84" width="5.83" height="63.8" rx="1.63" transform="translate(-594.26 940.45) rotate(-90)"/><rect class="cls-17" x="336.66" y="850.44" width="5.83" height="63.8" rx="1.63" transform="translate(-539.34 904.57) rotate(-90)"/><rect class="cls-17" x="343.89" y="817.33" width="5.83" height="58.82" rx="1.57" transform="translate(-496.52 876.2) rotate(-90)"/><rect class="cls-17" x="313.89" y="968.2" width="5.83" height="63.8" rx="1.63" transform="translate(-679.87 999.56) rotate(-90)"/></g><g id="Layer_66" data-name="Layer 66"><rect class="cls-18" x="377.53" y="936.26" width="5.83" height="63.8" rx="1.63" transform="translate(-584.29 1031.26) rotate(-90)"/><rect class="cls-18" x="369.77" y="900.08" width="5.83" height="63.8" rx="1.63" transform="translate(-555.87 987.32) rotate(-90)"/><rect class="cls-18" x="360.25" y="854.67" width="5.83" height="63.8" rx="1.63" transform="translate(-519.98 932.4) rotate(-90)"/><rect class="cls-18" x="353.03" y="821.57" width="5.83" height="58.82" rx="1.57" transform="translate(-491.61 889.58) rotate(-90)"/><rect class="cls-18" x="348.08" y="791.59" width="5.83" height="58.9" rx="1.57" transform="translate(-466.61 854.69) rotate(-90)"/><rect class="cls-18" x="383.02" y="972.44" width="5.83" height="63.8" rx="1.63" transform="translate(-614.98 1072.93) rotate(-90)"/></g><g id="frontladder"><rect class="cls-18" x="336.52" y="817.34" width="8.94" height="215.75" rx="3.66" transform="translate(-131.25 -255.87) rotate(-8.61)"/><rect class="cls-18" x="395.7" y="815.57" width="8.94" height="215.75" rx="3.64" transform="translate(-190.69 -206.13) rotate(-12.76)"/></g></g><g id="Person1"><g id="watering_can" data-name="watering can"><path class="cls-19" d="M243.42,925c-2.41-.45-6.2.54-10,1-1.49.16-8.11,1.54-9.19,1.8-1.79.45,1.84-4,2.56-5.7l.68-1.62a2.24,2.24,0,0,0-1.15-2.91l-20.7-9.32c-1.84-.5,0-.51-3.35-.43-.11,0-1.28.5-1.39.52l-1.17.22a2,2,0,0,0-.64.22c-1.62.85-9,4.93-9.25,8.79-.25,3.58,2.95,10.69,4.07,13a2.21,2.21,0,0,0,1.17,1.1l18.63,7.68a13,13,0,0,0,2-.15c-.33.13-.6.22-.75.27.74-.2.9-.26.76-.27a11.78,11.78,0,0,0,2.86-1.38,10.22,10.22,0,0,0,2.8-3.19,2.16,2.16,0,0,1,.48-.61,17.8,17.8,0,0,1,9.56-4.21c6.1-.68,9.56-1.87,11.5-1.12.58.22,1.67,1.43,2.24-.94C245.81,925,245,925.27,243.42,925Zm-46.87,1.64-1.34-.8s-3.32-6.51-1.91-8.43,3.74-5.49,5.7-5.74c.87-.11,1.68-.2,2.32-.26a5.51,5.51,0,0,1,2.54.37l.72.29Z" transform="translate(3.43 -317.34)"/><path class="cls-20" d="M248.26,930.22s.34-5.75,7.83-4.56,10.25,7.82,7.32,9.05c-1.61.68-5,2-7.18-1.9S248.26,930.22,248.26,930.22Z" transform="translate(3.43 -317.34)"/><path class="cls-20" d="M245.51,939.75l1.21,1.2,2.65,2.65c1.47,2.14,2.9,3.84-.23,5.53s-3.35.48-2.76-2.53S245.51,939.75,245.51,939.75Z" transform="translate(3.43 -317.34)"/></g><g id="p1skin"><rect class="cls-21" x="139.7" y="851.55" width="13.16" height="13.16" rx="4.5" transform="translate(407.06 -290.81) rotate(26.87)"/><path class="cls-21" d="M145.06,901.51s14.24,18.38,18,18.38,24.17-2.38,24.17-2.38c3.41,1,8.85,3.06,10.22.68s2.72-6.13,0-6.47a52.62,52.62,0,0,1-5.45-1s-2.38,2-4.09,1.7-16.34.69-18.72,0-7.83-6.8-9.19-8.85-5.11-8.85-5.11-8.85Z" transform="translate(3.43 -317.34)"/><path class="cls-21" d="M168.83,890.62l-6.47,4.08a82.44,82.44,0,0,0,6.47,8.85c3.74,4.43,5.79,6.47,5.79,6.47l3.74,2.52,4.78-.15Z" transform="translate(3.43 -317.34)"/><rect class="cls-21" x="138.54" y="818.93" width="36.08" height="42.67" rx="18.04" transform="translate(400.1 -297.39) rotate(26.87)"/></g><g id="shoes1"><path class="cls-22" d="M156.56,1038.75v4.44a1.48,1.48,0,0,0,1.29,1.53c4.16.3,17.11,1.12,19.09-.1a4,4,0,0,0,2.08-2.71,1.55,1.55,0,0,0-.21-1.07c-.25-.42-.67-1-1.16-1-.79,0-4.13.1-5.28-.38s-8.23-1.71-9-2.48c-.59-.58-4-.19-6.31,0C156.31,1037.05,156.56,1038,156.56,1038.75Z" transform="translate(3.43 -317.34)"/><path class="cls-22" d="M123.91,1039.82v4.45a1.46,1.46,0,0,0,1.28,1.52c4.16.3,17.11,1.12,19.1-.1a4,4,0,0,0,2.07-2.71,1.56,1.56,0,0,0-.2-1.06c-.25-.42-.68-1-1.17-1-.79,0-4.13.09-5.27-.39s-8.24-1.7-9-2.48c-.59-.58-4-.18-6.31,0C123.66,1038.13,123.91,1039,123.91,1039.82Z" transform="translate(3.43 -317.34)"/></g><g id="pant1"><path class="cls-23" d="M120.18,934.36s-3.6,9.45-3.48,12,3.7,35.24,5.49,39.07-1,2.55.26,20.42,2.12,28.09,2.12,28.09v3.83h5.54l8.17-44.68,3.06-20.56,3-20.3,11.6-17,.61-.89Z" transform="translate(3.43 -317.34)"/><polygon class="cls-23" points="166.98 719.4 160.01 719.4 152.43 677.79 144.27 658.53 147.8 634.89 159.4 617.88 165.79 668.71 166.98 719.4"/></g><g id="shirt1"><path class="cls-24" d="M150.45,864.06s-3.81,2-7.25-.12a10.12,10.12,0,0,1-4.38-5.07h-3s-6.29-.25-7.4,1.45-4.69,3.74-4.18,9.19,0,7.83,0,7.83a8.08,8.08,0,0,1-1.48,3.23c-1.19,1.54-1.7,1.2-2.72,4.77s-3.41,31-2.72,36.77a43,43,0,0,1-.13,10.72s-1.58.17,1.32.85,1,1.19,4.08,1.7,4.22,1.53,11.05,1.36a108.36,108.36,0,0,0,16.19-1.36c3.4-.68,7.66-.51,8.17-2s-.79-17.77-.79-17.77-5.34-5.72-6.36-6.91-5.62-7-5.67-7.08,10.6-6.88,10.6-6.88l.86,1.87,1.09,3.12L172,888.91s-11-15.31-12.9-17.19S150.45,864.06,150.45,864.06Z" transform="translate(3.43 -317.34)"/></g><g id="hair1"><path class="cls-25" d="M152.2,837.85s2-7.91,4.38-9.19,16.92,7.25,19.48,7.33,9.2-.57,11.24-2.8,4.34-5,0-7.85-6.64-1.53-8.43-1.53-4.34-2.3-8.93-4.6-17.11-6.64-20.94-5.87-8.68,3.83-9.7,7.15-4.34,6.13-3.83,10.21.63,9.9,1.17,12.26,4.2,2.3,4.2,2.3l4.22-5s-2.95.14-2.19-3.17,1.2-4.86,3.41-5.62,3.49,0,3.49,1.53S152.2,837.85,152.2,837.85Z" transform="translate(3.43 -317.34)"/></g></g><g id="person2"><g id="p2skin"><path class="cls-26" d="M329.17,696.57c1,7.49,0,4.77,0,10.22s-1.7,9.53,2.38,14.64,7.41,3.83,7.41,3.83l6.15-.67.48,7.55h15.65l-1.13-25-18.34-10.59L339,688.74h-6.47Z" transform="translate(3.43 -317.34)"/><path class="cls-26" d="M292.74,736.49s-1.53,2-1.27,3.83,1,4.85,3.06,5.87,3.07,3.32,3.83,4.6,4.09,9.44,5.62,11.49,2.55,6.63,3.57,8.68,5.62,7.4,6.39,7.66,5.36-1.28,6.63-3.58,13.54-17.87,13-20.17-7.15-6.89-7.15-6.89-4.6,3.83-5.36,5.62-4.09,6.12-4.6,7.91a22.33,22.33,0,0,1-1.53,3.32c-.26.77-3.32-3.32-4.34-5.36s-7.92-11-8.17-13,.25-5.11,0-6.64-.77-1.53-3.07-3.32S292.74,736.49,292.74,736.49Z" transform="translate(3.43 -317.34)"/><path class="cls-26" d="M322.11,731c-2.56-3.66-3.58-4.17-5.11-4.17s-3.59.08-4.47,2.08-1.93,3,0,4.81,2.23,2.81,4.24,3.58a25.56,25.56,0,0,1,4.32,1.78c1.27.77,5.36,6.64,5.36,6.64l5.1-7.66a29.44,29.44,0,0,1-5.61-1.79,11.24,11.24,0,0,1-3.32-2.55Z" transform="translate(3.43 -317.34)"/></g><g id="_2pants" data-name="2pants"><path class="cls-27" d="M343.71,796.85A134.16,134.16,0,0,0,341,821.36c0,11.91.69,32,1.37,36.77S341,862.89,341,870.38s3.13,52.09,4.63,52.77,8,0,8,0,1.63-33.29,3.4-39.15,2-17.88.59-19.92,1.12-22,1.46-24.34,5.1-10.21,4.42-13.61-1.91,8.85.07,13.27,3.34,24.85,4.36,27.58,2.38,6.81,2.38,6.81-.88-2,1.6,8.85,7.25,40.51,7.25,40.51h6.13s.25-32.91,0-40.51c-.33-10-6-19.14-4.77-18.73,0,0,0-7.15,0-11.23s1.37-30,1.71-33-1-8.85-1.71-13.28-4.42-13.28-4.42-13.28Z" transform="translate(3.43 -317.34)"/></g><g id="p2shirt"><path class="cls-28" d="M344.32,731s.51,1.18,6.47,1.18,10.55-.5,11.57-1.18,4.77,1.19,6.64,6.47,6.3,17.7,7.32,22.8,3.06,24.68,2.55,30.13,2.9,3.07-.51,5.45-36.25,2.38-37.79.85-4.42-27.4-4.93-30.64a28.13,28.13,0,0,1,0-7,3.09,3.09,0,0,1-2,2.9c-2.06.68-13.12-9.88-13.12-11.75s11.23-12.93,14.64-15.49S344.32,731,344.32,731Z" transform="translate(3.43 -317.34)"/></g><g id="hair2"><path class="cls-25" d="M370.07,697a5,5,0,0,1-2.13,1.46,5,5,0,0,1-.49,5.86,5,5,0,0,0-2.4,6.3,5,5,0,0,1-5,1.62,5,5,0,0,1-9.05.6,4.94,4.94,0,0,1-3,1,5,5,0,0,1-5-5,4.77,4.77,0,0,1,.33-1.78,4.76,4.76,0,0,1-1.77.33,5,5,0,0,1-5-5,4.94,4.94,0,0,1,.17-1.28h-.17a5,5,0,0,1-4.67-3.17,2,2,0,0,1-.35,0,5,5,0,0,1-5-5,5,5,0,0,0,0-6.89,5,5,0,0,1,3.76-4.85,4.71,4.71,0,0,1-.1-1,5,5,0,0,1,5-5,4.89,4.89,0,0,1,1.49.23,5.84,5.84,0,0,1,.36-.76,5,5,0,0,1,6.86-1.84,4.88,4.88,0,0,1,1.81,1.8,5,5,0,0,1,7.59-1.26,4.91,4.91,0,0,1,1.25,1.63,5,5,0,0,1,6.63,5.33,5,5,0,0,1,4.87,8.18c-.09.11-.19.21-.29.31a5,5,0,0,1,4.29,8.26Z" transform="translate(3.43 -317.34)"/></g></g></svg>