<svg xmlns="http://www.w3.org/2000/svg" viewBox="0 0 744.97 641.15"><defs><style>.cls-1{fill:#ffd5bf;}.cls-2{fill:#ffa7cb;}.cls-3{fill:#640019;}.cls-4{fill:#c3146d;}.cls-5{fill:#fff;}.cls-6{fill:#c3616d;fill-opacity:0.8;}.cls-7{fill:#a4eeff;}.cls-8{fill:#020000;}.cls-9{fill:#00223e;}.cls-10{fill:#7043ff;}.cls-11{fill:#b10045;}.cls-12{fill:#39000a;}.cls-13{fill:#0c0300;}.cls-14{fill:#49c900;opacity:0.7;}.cls-15{fill:#235500;opacity:0.9;}.cls-16{fill:#e72f00;}.cls-17{fill:#a21e2d;}.cls-18{fill:#77f700;opacity:0.6;}.cls-19{fill:#d4000f;}.cls-20{fill:#487000;}.cls-21{fill:#255c00;}.cls-22{fill:#ffd931;}.cls-23{fill:#722800;}.cls-24{fill:#ff8639;}.cls-25{fill:#00c34f;}.cls-26{fill:#894400;}.cls-27{fill:#939598;}.cls-28{fill:#a62c00;}.cls-29{fill:#ffaa25;}.cls-30{fill:#474136;}.cls-31{fill:#fb6;}.cls-32{fill:#00202a;}.cls-33,.cls-39{fill:#231f20;}.cls-34{fill:#004574;}.cls-35{fill:#000206;}.cls-36,.cls-37,.cls-39{font-size:58px;font-family:ArialRoundedMTBold, Arial Rounded MT Bold;}.cls-36{fill:#414042;}.cls-37{fill:#58595b;}.cls-38{letter-spacing:-0.02em;}</style></defs><g id="rightBuilding"><g id="bot_half" data-name="bot half"><path class="cls-1" d="M1920,724h.65L1920,997.68H1602.08a6.19,6.19,0,0,1-6.19-6.19V501.25a6.2,6.2,0,0,1,5.59-6.16l.6,0H1920Z" transform="translate(-1371.39 -388.49)"/></g><g id="top_half" data-name="top half"><path class="cls-2" d="M1920,406.1v89.37a8.4,8.4,0,0,1-2.08.25H1604.76a8.71,8.71,0,0,1-3.28-.63,8.86,8.86,0,0,1-5.59-8.24V414.72a8.87,8.87,0,0,1,8.87-8.87h313.16A8.4,8.4,0,0,1,1920,406.1Z" transform="translate(-1371.39 -388.49)"/></g><g id="roof"><path class="cls-3" d="M1920,388.49v17.36H1599.79a3.9,3.9,0,0,1-3.9-3.9v-9.56a3.9,3.9,0,0,1,3.9-3.9Z" transform="translate(-1371.39 -388.49)"/></g><g id="Layer_111" data-name="Layer 111"><polygon class="cls-4" points="549.87 106.8 549.87 335.28 549.74 335.53 487.88 335.53 487.88 106.57 548.61 106.79 549.87 106.8"/></g><g id="sign"><rect class="cls-5" x="275.84" y="139.91" width="272.77" height="130.73"/></g><g id="Layer_112" data-name="Layer 112"><rect class="cls-6" x="487.88" y="139.91" width="61.99" height="130.73"/></g><g id="door"><rect class="cls-7" x="297.22" y="329.49" width="124.69" height="280.1"/></g><g id="doorknob"><rect class="cls-8" x="305.87" y="451.23" width="6.52" height="33.88"/></g><g id="doorway"><rect class="cls-9" x="421.91" y="329.49" width="126.7" height="279.78"/></g><g id="Layer_114" data-name="Layer 114"><polygon class="cls-10" points="548.61 335.53 549.26 335.53 548.61 609.19 548.61 335.53"/></g><g id="Layer_113" data-name="Layer 113"><polygon class="cls-11" points="549.87 17.36 549.87 106.8 548.61 106.79 487.88 106.57 487.88 17.36 549.87 17.36"/><rect class="cls-12" x="487.88" width="61.38" height="17.36"/><rect class="cls-13" x="487.88" y="329.49" width="60.73" height="279.7"/></g></g><g id="Trees2"><g id="TreeLeaves"><g id="TreeLeaves_copy" data-name="TreeLeaves copy"><ellipse class="cls-14" cx="66.72" cy="379.42" rx="56.68" ry="50.53"/><circle class="cls-14" cx="157.61" cy="328.89" r="84.26"/><circle class="cls-14" cx="114.81" cy="244.63" r="114.81"/></g></g><g id="TreeTrunk"><rect class="cls-15" x="101.62" y="222.08" width="17" height="380" rx="6.3"/><rect class="cls-15" x="1505.18" y="672.38" width="17" height="90" rx="6.42" transform="translate(-210.34 -1308.65) rotate(52.49)"/><rect class="cls-15" x="1451.07" y="732.97" width="17" height="60" rx="6.42" transform="translate(-1483.39 867.05) rotate(-45)"/></g><g id="TreeBase"><g id="Tree_Base_copy" data-name="Tree Base copy"><rect class="cls-16" x="22.38" y="582.64" width="184.85" height="26.55"/></g></g></g><g id="Layer_133" data-name="Layer 133"><rect class="cls-17" x="161.19" y="582.64" width="46.05" height="26.05"/><path class="cls-18" d="M1557.2,560.16a102.58,102.58,0,0,0-134.32,152.13A101.87,101.87,0,1,1,1557.2,560.16Z" transform="translate(-1371.39 -388.49)"/></g><g id="person5"><g id="fruities2"><circle class="cls-19" cx="475.85" cy="435.94" r="10.07"/><path class="cls-20" d="M1815.91,836.35a9.91,9.91,0,0,1-4.73-4.31c-1.41-3,.54-5-.79-6.18s-2.69-1.76-3.87-3.9-1.42-.76-1.29-3.39-4.08-2.34.12-2.64,5.66-1.22,5.66-1.22,1.44-.36.84-2.91-7.23-2.25-.59-2.55,10.93-1.36,9.29-.74-5.25-3.94-1.64.62,6.61,6.56,8.56,3.78,2.36-6.63,2-2.77-3.55,4.51-1.06,6.61,4.56-11.21,2.79,2.91-4,20.06-4,20.06Z" transform="translate(-1371.39 -388.49)"/><path class="cls-21" d="M1849.68,812.83l-1,3.06h1l1.54-.71s-.86.71,2,.71,2.52-1.53,2.52-1.53,1.5-1.7,0-1.53-1.67-1-2.69,0a5.43,5.43,0,0,1-2,1.32l-.17-2.51h-1.19Z" transform="translate(-1371.39 -388.49)"/></g><g id="fruities"><path class="cls-22" d="M1832.77,809,1836,808s4.19,6.37,4.16,10.15a17.12,17.12,0,0,1-2.93,9.91c-2,2.85-1.41,4.13-5.75,5.47s-6.39,2.27-9.12,2.06-10.24-9.38-10.24-9.38,8.86,3.1,12,.53,3-1.14,6.33-5.63C1833.16,817.39,1832.77,809,1832.77,809Z" transform="translate(-1371.39 -388.49)"/><rect class="cls-23" x="1831.1" y="803.11" width="5.08" height="6.25" rx="1.43" transform="translate(-1517.4 112.39) rotate(-14.97)"/></g><g id="paperbag5"><path class="cls-24" d="M1807.64,825.62H1855a7.91,7.91,0,0,1,7.91,7.91v63.22a7.91,7.91,0,0,1-7.91,7.91h-23.61a30.4,30.4,0,0,1-30.4-30.4v-42A6.67,6.67,0,0,1,1807.64,825.62Z" transform="translate(-1306.08 -515.06) rotate(4.03)"/></g><g id="plasticbag5"><path class="cls-25" d="M1804.07,871.73s.63,1.62-.86,10.72c-.68,4.17,0,7,0,10.38,0,1.54.86,7.49,4.6,8.31,4.32.94,8.52-.83,9.45-4.14s2.63-9.1,2.63-13.53v-9.36l7.32.51s1.26,21.33,1.19,23.58,1.12,11.35-1.16,19.31c-3.64,12.72-4.78,18.39-10,20.77s-6.62,3-13.19,2-8-1.36-10.39-8.51-3.06-6.81-2.38-21.1,0-13.28,2.72-21.79,6.13-17.19,6.13-17.19Z" transform="translate(-1371.39 -388.49)"/></g><g id="p5skin"><rect class="cls-26" x="1795.37" y="860.48" width="14.67" height="16.98" rx="6.18" transform="translate(-1106.81 -799.77) rotate(14.04)"/><rect class="cls-26" x="1858" y="778.22" width="35.06" height="42.83" rx="15.35" transform="translate(-1014.76 -948.99) rotate(18.75)"/><rect class="cls-26" x="495.29" y="424.34" width="17.7" height="11.23" rx="5.62"/></g><g id="hair5"><path class="cls-27" d="M1873.51,781.17c-.51.17-3.06,3.57-5.79,3.74s-4.17.35-5.23,0-5.15-1.36-3.62-3.74-3.91-1,2.39-3.23,4-2.39,4.56-4.26,3.44-4.42,6.33-4.59,3.4,1.87,7.15,1.87,3.57-2.24,9.87-1.88,6.3.35,8.68,2.9,2.77,6.37,3.58,7.49c.45.63.17,1.87,3.91,3.23s5.23,1.69,5.62,5.62c.17,1.77.85,3.74.17,6.55-.75,3.09-3.24,2.81-2,5.87s7.14,4.94,3.57,9.2-4.43,7.15-8.51,5.95-3.75-2.72-7.32-.51-.37,5.09-5.11,3.07-4.71.85-5.76-3.75-3.94-4.76-5.64-4.93-4.77.17-1.19-3.58,1.14-2.72,5.25-4.25,6.66-.51,6.83-3.41,1.36-4.59-1.7-5.44-2,.12-3.55,1a15.2,15.2,0,0,0-3.34,3.08s1.13-4,.42-6.13c-1.33-4,5.25-2.33-.34-4.93-1.27-.6-1-1-3.57-.85C1876.82,785.41,1873.51,781.17,1873.51,781.17Z" transform="translate(-1371.39 -388.49)"/></g><g id="pants5"><path class="cls-28" d="M1860.74,891.64s-3.4-6.63-8.85,10.3-14.29,41.44-15.66,47.91a65.77,65.77,0,0,1-2.72,9.87s-3.06-2.72-10.21,8.17-10.9,23.49-12.6,27.58-3,6.47-3,6.47l7.38,2.38s21.44-19.06,24.51-26.21,6.81-15.28,6.81-15.28l20.23-26.6s4.91,25.88,8.85,32.34,21,42.22,21,42.22v3.06l14.3-4.42s-10.9-19.07-11.92-25-1.7-12.76-4.42-17.87,6.81-12.93,9.19-28.59,0-34.05-.16-40.17S1860.74,891.64,1860.74,891.64Z" transform="translate(-1371.39 -388.49)"/></g><g id="shirt5"><path class="cls-29" d="M1902.11,841.94a8.33,8.33,0,0,1-.1-.83c-.27-2.73-1.13-11.08-4.67-14.32-4.08-3.75-5.22-5.37-7.83-6.3a20.32,20.32,0,0,0-5.79-1.36s-1.43,2.89-2.72,3.4a32.83,32.83,0,0,1-6.64.68c-3.08-.35-4.45-.52-5.36-.93a4,4,0,0,1-1.53-1.79s-5.91,1.64-7.32,3.57c-2.6,3.58-3.15,4.26-4.17,11.58a109,109,0,0,0-1,19.23c.17,6.3-.06,9.53-.06,9.53s-18.5.51-23.6,1-20.78.87-20.78.87l-2.77,9.45s12,3,18.1,2.61,22.41,2.73,29.08.68,4.11,0,4.45-1.36-2.84,9.57-2.33,13.15,3.69,6.26,3.69,6.26a10.39,10.39,0,0,0,8.86,4.85c6-.17,21.78,1.27,25.7-.26s8.51-6.13,8.51-6.13Z" transform="translate(-1371.39 -388.49)"/></g><g id="shoes5"><path class="cls-30" d="M1815,1006.28l-2.85,6.16a2.24,2.24,0,0,1-2.76,1.29c-6-2.26-24.45-9.43-26.42-12.39a6.17,6.17,0,0,1-1.14-5.1,2.44,2.44,0,0,1,1-1.34c.62-.42,1.56-.93,2.25-.61,1.09.51,5.66,2.78,7.56,2.84s10.48,2.27,12.07,1.7c1.19-.42,7.75,3,10.79,4.71C1816.44,1004.08,1815.52,1005.17,1815,1006.28Z" transform="translate(-1371.39 -388.49)"/><path class="cls-30" d="M1911.75,1012.09l1.93,6.51a2.25,2.25,0,0,1-1.22,2.79c-6,2.24-24.57,9.08-28,8.16a6.18,6.18,0,0,1-4.23-3.07,2.47,2.47,0,0,1-.16-1.65c.19-.72.56-1.73,1.29-1.94,1.16-.34,6.09-1.65,7.55-2.86s7.6-5.18,8.42-6.66c.62-1.11,9.56-2.93,13-3.65C1911.37,1009.49,1911.4,1010.91,1911.75,1012.09Z" transform="translate(-1371.39 -388.49)"/></g></g><g id="person6"><g id="p6skin"><rect class="cls-31" x="258.48" y="373.74" width="34.72" height="44.77" rx="15.36"/><rect class="cls-31" x="267.67" y="413.57" width="12.6" height="15.32" rx="5.11"/></g><g id="pants6"><path class="cls-32" d="M1625.1,889.89s-2-3.74-4.77,17.7-5.1,31.66-4.42,38.47.44,9.53-.12,19.06-1.82,23.83,0,33,1.48,13.27,1.48,13.27l7.83-1s5.11-30.64,6.13-38.3,0-8.68,0-14.8,1.36-6.47,7.83-25.54l6.46-19.06s3.75.68,6.13,17.36,5.45,23.15,5.45,23.15-1.43,2.06-2.11,11.59,3.85,14.85,3.85,27.11,2.1,18.81,2.1,18.81l9.1-1.09V893.87l-28.26-4.23Z" transform="translate(-1371.39 -388.49)"/></g><g id="feet6"><path class="cls-33" d="M1661.17,1011.89V1017a1.69,1.69,0,0,0,1.48,1.76c4.82.35,19.81,1.3,22.11-.11a4.72,4.72,0,0,0,2.41-3.14,1.87,1.87,0,0,0-.24-1.23c-.29-.49-.79-1.14-1.36-1.14-.91,0-4.78.11-6.1-.45s-7.93-1.77-8.84-2.67c-.69-.67-6.28-.41-8.91-.2C1660.88,1009.93,1661.17,1011,1661.17,1011.89Z" transform="translate(-1371.39 -388.49)"/><path class="cls-33" d="M1616.17,1012v5.15a1.7,1.7,0,0,0,1.49,1.76c4.81.35,19.8,1.3,22.1-.11a4.69,4.69,0,0,0,2.41-3.14,1.87,1.87,0,0,0-.24-1.23c-.29-.49-.78-1.14-1.35-1.14-.92,0-4.78.12-6.11-.45s-6.63-2.12-7.55-3c-.68-.67-7.57-.06-10.2.15C1615.88,1010,1616.17,1011.08,1616.17,1012Z" transform="translate(-1371.39 -388.49)"/></g><g id="shirt6"><path class="cls-34" d="M1652.5,811.08c-2.72,3.58-1.69,3-3.91,4.09a5.6,5.6,0,0,1-5.44.08,10.26,10.26,0,0,1-3.51-3,3.9,3.9,0,0,1-.58-2.73s-10.9,3-12.26,4.85-4.89.86-7.15,7.15c-.56,1.55-6.74,17.18-7.32,18.89-.81,2.4-4.25,15.4-4.76,18.38-1,5.54-.6,11.83,0,13.11,1.46,3.12.34,2.72,1.87,3.91s5.11,1.19,8.34,0a19.4,19.4,0,0,0,4.77-2.38,35.17,35.17,0,0,0-.86,7.15c-.17,4.59-.51,8-.51,8.51s-2-1.87,1.54,2.21a23.88,23.88,0,0,0,15,7.49c5.79.68,20.26.68,26.9-1.53s4.25-.78,5.45-3.34,0-14.35,0-14.35V860.37l1.31-39.91a27.75,27.75,0,0,0-5.42-5.85c-6.74-5.9-4.07-2.34-8.32-2.85S1652.5,811.08,1652.5,811.08Z" transform="translate(-1371.39 -388.49)"/></g><g id="p6hand"><rect class="cls-31" x="294.01" y="459.34" width="18.38" height="15.66" rx="7.06"/></g><g id="hair6"><path class="cls-35" d="M1656.25,768a25.34,25.34,0,0,1-9,3.74c-4.13.94-7.65,1.33-10.39,2-3.78.87-4.84.9-5.1,4.51-.41,5.54-.58,4.36-.34,6.13,0,0-.38,5.56,0,7.49.27,1.4.88,3.41,1,4.93s.87,5.42,3.43,7,3.21,1.91,3.21,1.91v3.76l2.46,8.59c1,3.41.63,8.35.34,10.47-.46,3.46-2.89,16.34-7.14,18.21s-.39-11.64-.17-14.21c.17-2-2.77-8.08-2.64-10.3.17-2.89-1.58-4-2.76-6.38-.41-.85-2.07-.6-3-.38a4.14,4.14,0,0,0-1.23.5l-3.31,1.94s-3.28-.19-4.47-8.19-1.7-6.47,0-16.68,3.25-19.24,4.61-22.48,5.67-9.55,8.15-10.71a21.13,21.13,0,0,1,9.54-2.47c4.42-.34,10.1-.55,13.07.21,3.32.85,3.87.87,6.16,2,2.9,1.44,7.43,6.17,8.68,9.28,2.15,5.33,2.21,7.83.51,16.68s-.19,7.66,1.1,11.92,1.17,11.3,0,14.8-1.1,3.07-.08,7.83,1.71,8.85,1.2,13.11-6.39,17.45-8.6,15.23.42-5.78.94-12.34c.79-10.23,1.53-7.83-.17-15.15s-2.72-8.9-2.72-8.9l-4.08-.56-2.91-.41-.85.34v-4.25l1.36-.68,4.07-1.88a9.24,9.24,0,0,0,5-5.17c1.34-3,2.53-10.11,2.53-10.11s-2-6.33-3.58-10.93-1.53-4.76-2.72-7.15A13.5,13.5,0,0,0,1656.25,768Z" transform="translate(-1371.39 -388.49)"/></g></g><g id="Layer_119" data-name="Layer 119"><text class="cls-36" transform="translate(412.42 192.18)">SO</text><text class="cls-37" transform="translate(351.01 261.43)">KI<tspan class="cls-38" x="61.09" y="0">T</tspan><tspan x="95.89" y="0">C</tspan></text><text class="cls-39" transform="translate(485.6 192.18)">UP</text><text class="cls-39" transform="translate(491.04 261.23)">HE</text></g></svg>