<svg id="svg" version="1.1" xmlns="http://www.w3.org/2000/svg" xmlns:xlink="http://www.w3.org/1999/xlink" width="400" height="457.4257425742574" viewBox="0, 0, 400,457.4257425742574"><g id="svgg"><path id="path0" d="M107.644 265.564 C 106.956 266.000,107.185 295.745,107.881 296.441 C 108.157 296.717,109.627 296.714,112.444 296.431 C 116.986 295.976,124.887 295.347,133.000 294.796 C 143.452 294.086,149.852 293.615,152.100 293.390 C 153.715 293.229,154.400 293.299,154.400 293.626 C 154.400 294.182,144.992 306.732,136.600 317.372 C 135.720 318.487,134.470 320.120,133.821 321.000 C 133.173 321.880,132.542 322.690,132.419 322.800 C 132.296 322.910,131.139 324.419,129.848 326.154 C 128.556 327.889,127.267 329.599,126.983 329.954 C 125.424 331.905,122.780 335.288,121.200 337.353 C 120.210 338.648,118.950 340.289,118.400 341.002 C 117.172 342.592,114.007 346.728,109.373 352.800 C 107.442 355.330,105.736 357.490,105.581 357.600 C 104.569 358.322,103.650 360.688,103.805 362.176 C 103.898 363.069,104.255 366.680,104.598 370.200 C 104.942 373.720,105.397 377.818,105.611 379.307 C 105.825 380.797,106.014 382.957,106.030 384.107 C 106.047 385.258,106.272 387.640,106.531 389.400 L 107.003 392.600 108.601 392.745 C 109.481 392.825,114.070 392.689,118.800 392.444 C 128.339 391.950,143.183 391.357,176.271 390.148 C 180.271 390.002,183.735 389.764,183.970 389.619 C 184.254 389.443,184.486 383.788,184.663 372.677 L 184.930 356.000 163.465 356.000 C 146.313 356.000,142.000 355.897,142.000 355.489 C 142.000 354.767,141.712 355.166,160.140 330.400 C 163.660 325.670,168.409 319.280,170.694 316.200 C 172.979 313.120,175.066 310.330,175.332 310.000 C 175.598 309.670,177.507 307.060,179.575 304.200 C 181.642 301.340,183.439 298.910,183.569 298.800 C 183.699 298.690,184.344 297.880,185.002 297.000 L 186.200 295.400 186.077 289.000 C 186.010 285.480,185.786 281.070,185.580 279.200 C 185.375 277.330,185.205 273.526,185.203 270.747 C 185.200 265.846,185.173 265.686,184.300 265.452 C 182.856 265.065,108.260 265.174,107.644 265.564 " stroke="none" fill="#ffff00" fill-rule="evenodd"></path><path id="path1" d="M137.700 0.244 C 137.425 0.366,137.200 0.691,137.200 0.966 C 137.200 1.240,136.750 1.706,136.200 2.000 C 135.650 2.294,135.200 2.674,135.200 2.844 C 135.200 3.014,134.305 4.087,133.211 5.228 C 132.117 6.369,130.993 7.819,130.713 8.451 C 130.434 9.083,130.061 9.600,129.886 9.600 C 129.516 9.600,122.400 16.625,122.400 16.990 C 122.400 17.223,121.985 17.776,120.900 18.985 C 120.625 19.292,120.400 19.736,120.400 19.971 C 120.400 20.207,120.207 20.400,119.971 20.400 C 119.418 20.400,118.400 21.418,118.400 21.971 C 118.400 22.207,118.207 22.400,117.971 22.400 C 117.450 22.400,116.400 23.405,116.400 23.904 C 116.400 24.102,115.950 24.506,115.400 24.800 C 114.850 25.094,114.400 25.560,114.400 25.834 C 114.400 26.109,114.265 26.393,114.100 26.467 C 113.935 26.540,113.149 27.410,112.354 28.401 C 111.559 29.391,109.264 31.886,107.254 33.944 C 105.244 36.003,103.600 38.027,103.600 38.443 C 103.600 39.542,102.151 39.405,101.035 38.200 C 100.525 37.650,99.724 37.200,99.254 37.200 C 98.784 37.200,98.400 37.007,98.400 36.771 C 98.400 36.218,97.382 35.200,96.829 35.200 C 96.593 35.200,96.400 35.032,96.400 34.827 C 96.400 34.622,96.010 34.330,95.534 34.179 C 95.058 34.028,94.239 33.476,93.716 32.952 C 93.192 32.428,92.502 32.000,92.182 32.000 C 91.862 32.000,91.600 31.820,91.600 31.600 C 91.600 31.380,91.330 31.200,91.000 31.200 C 90.670 31.200,90.400 31.023,90.400 30.808 C 90.400 30.592,89.950 30.302,89.400 30.164 C 88.850 30.026,88.400 29.753,88.400 29.557 C 88.400 29.360,87.500 29.200,86.400 29.200 C 84.477 29.200,82.800 30.112,82.800 31.157 C 82.800 31.354,82.530 31.618,82.200 31.745 C 81.870 31.871,81.600 32.165,81.600 32.397 C 81.600 32.630,80.520 33.877,79.200 35.168 C 77.880 36.460,76.800 37.638,76.800 37.787 C 76.800 37.936,76.575 38.308,76.300 38.615 C 75.113 39.938,74.800 40.391,74.800 40.783 C 74.800 41.012,74.607 41.200,74.371 41.200 C 73.850 41.200,72.800 42.205,72.800 42.704 C 72.800 42.902,72.350 43.306,71.800 43.600 C 71.250 43.894,70.800 44.281,70.800 44.460 C 70.800 44.639,70.170 45.434,69.400 46.227 C 68.630 47.020,68.000 47.831,68.000 48.030 C 68.000 48.228,66.650 49.727,65.000 51.361 C 63.350 52.995,62.000 54.508,62.000 54.723 C 62.000 54.938,61.730 55.218,61.400 55.345 C 61.070 55.471,60.800 55.851,60.800 56.187 C 60.800 56.524,60.620 56.800,60.400 56.800 C 60.180 56.800,60.000 57.070,60.000 57.400 C 60.000 57.730,59.807 58.000,59.571 58.000 C 59.018 58.000,58.000 59.018,58.000 59.571 C 58.000 59.807,57.807 60.000,57.571 60.000 C 57.151 60.000,56.000 60.969,56.000 61.323 C 56.000 61.422,55.280 62.245,54.400 63.152 C 53.520 64.059,52.800 64.943,52.800 65.116 C 52.800 65.289,51.090 67.203,49.000 69.369 C 46.910 71.535,45.200 73.643,45.200 74.054 C 45.200 74.464,45.007 74.800,44.771 74.800 C 44.218 74.800,43.200 75.818,43.200 76.371 C 43.200 76.607,43.007 76.800,42.771 76.800 C 42.218 76.800,41.200 77.818,41.200 78.371 C 41.200 78.607,41.007 78.800,40.771 78.800 C 40.218 78.800,39.200 79.818,39.200 80.371 C 39.200 80.607,39.048 80.800,38.863 80.800 C 38.678 80.800,38.187 81.430,37.772 82.200 C 37.357 82.970,36.789 83.600,36.509 83.600 C 36.229 83.600,36.000 83.781,36.000 84.003 C 36.000 84.224,34.740 85.663,33.200 87.200 C 31.660 88.737,30.400 90.240,30.400 90.541 C 30.400 90.842,29.950 91.426,29.400 91.839 C 28.850 92.252,28.400 92.817,28.400 93.095 C 28.400 93.373,28.207 93.600,27.971 93.600 C 27.438 93.600,26.400 94.610,26.400 95.129 C 26.400 95.341,26.130 95.618,25.800 95.745 C 25.367 95.911,25.200 96.590,25.200 98.187 C 25.200 99.887,25.339 100.400,25.800 100.400 C 26.130 100.400,26.400 100.593,26.400 100.829 C 26.400 101.382,27.418 102.400,27.971 102.400 C 28.207 102.400,28.400 102.593,28.400 102.829 C 28.400 103.336,29.400 104.400,29.876 104.400 C 30.060 104.400,30.548 104.850,30.961 105.400 C 31.374 105.950,31.969 106.400,32.283 106.400 C 32.597 106.400,33.448 107.030,34.174 107.800 C 34.900 108.570,35.679 109.200,35.904 109.200 C 36.130 109.200,36.418 109.470,36.545 109.800 C 36.671 110.130,37.051 110.400,37.387 110.400 C 38.319 110.400,38.131 110.942,36.680 112.439 C 35.954 113.187,35.240 114.115,35.092 114.500 C 34.945 114.885,34.639 115.200,34.413 115.200 C 34.186 115.200,34.000 115.387,34.000 115.615 C 34.000 115.843,33.190 116.817,32.200 117.779 C 31.210 118.741,30.400 119.725,30.400 119.964 C 30.400 120.204,30.207 120.400,29.971 120.400 C 29.534 120.400,28.400 121.375,28.400 121.751 C 28.400 121.865,27.950 122.444,27.400 123.038 C 26.850 123.631,26.400 124.361,26.400 124.658 C 26.400 124.956,26.207 125.200,25.971 125.200 C 25.418 125.200,24.400 126.218,24.400 126.771 C 24.400 127.007,24.207 127.200,23.971 127.200 C 23.418 127.200,22.400 128.218,22.400 128.771 C 22.400 129.007,22.130 129.200,21.800 129.200 C 21.470 129.200,21.200 129.352,21.200 129.539 C 21.200 129.725,20.570 130.526,19.800 131.319 C 19.030 132.112,18.400 132.930,18.400 133.137 C 18.400 133.345,18.130 133.618,17.800 133.745 C 17.470 133.871,17.200 134.173,17.200 134.416 C 17.200 134.980,16.188 136.000,15.629 136.000 C 15.393 136.000,15.200 136.187,15.200 136.415 C 15.200 136.643,14.390 137.617,13.400 138.579 C 12.410 139.541,11.600 140.525,11.600 140.764 C 11.600 141.004,11.351 141.200,11.046 141.200 C 10.741 141.200,10.212 141.785,9.871 142.500 C 9.529 143.215,8.879 144.065,8.425 144.388 C 7.971 144.712,7.600 145.207,7.600 145.488 C 7.600 145.770,7.407 146.000,7.171 146.000 C 6.618 146.000,5.600 147.018,5.600 147.571 C 5.600 147.807,5.330 148.000,5.000 148.000 C 4.670 148.000,4.400 148.135,4.400 148.300 C 4.399 148.465,3.949 149.123,3.400 149.762 C 2.850 150.401,2.400 151.100,2.400 151.316 C 2.400 151.531,1.906 152.131,1.303 152.649 C -0.233 153.969,-0.608 159.488,0.759 160.658 C 1.222 161.054,1.600 161.552,1.600 161.764 C 1.600 162.305,5.291 165.596,5.900 165.598 C 6.175 165.599,6.400 165.870,6.400 166.200 C 6.400 166.530,6.593 166.800,6.829 166.800 C 7.382 166.800,8.400 167.818,8.400 168.371 C 8.400 168.607,8.630 168.800,8.912 168.800 C 9.193 168.800,9.688 169.175,10.012 169.634 C 10.335 170.092,11.120 170.740,11.755 171.073 C 12.390 171.405,13.311 172.110,13.801 172.639 C 14.522 173.416,15.089 173.600,16.773 173.600 L 18.853 173.600 22.427 170.017 C 24.392 168.046,26.000 166.336,26.000 166.217 C 26.000 166.097,26.315 165.664,26.700 165.254 C 28.767 163.049,30.000 161.530,30.000 161.187 C 30.000 160.974,30.193 160.800,30.429 160.800 C 30.982 160.800,32.000 159.782,32.000 159.229 C 32.000 158.993,32.193 158.800,32.429 158.800 C 32.982 158.800,34.000 157.782,34.000 157.229 C 34.000 156.993,34.270 156.800,34.600 156.800 C 34.930 156.800,35.200 156.665,35.200 156.500 C 35.200 156.335,35.830 155.492,36.600 154.627 C 37.370 153.762,38.000 152.817,38.000 152.527 C 38.000 152.237,38.270 152.000,38.600 152.000 C 38.930 152.000,39.200 151.807,39.200 151.571 C 39.200 151.018,40.218 150.000,40.771 150.000 C 41.007 150.000,41.200 149.807,41.200 149.571 C 41.200 149.018,42.218 148.000,42.771 148.000 C 43.007 148.000,43.200 147.814,43.200 147.587 C 43.200 147.186,45.438 144.800,45.814 144.800 C 45.916 144.800,46.000 145.051,46.000 145.357 C 46.000 145.664,46.270 146.018,46.600 146.145 C 46.930 146.271,47.200 146.730,47.200 147.164 C 47.200 147.598,47.380 148.064,47.600 148.200 C 47.820 148.336,48.000 148.777,48.000 149.181 C 48.000 149.584,48.270 150.018,48.600 150.145 C 48.930 150.271,49.200 150.653,49.200 150.993 C 49.200 151.333,49.364 151.923,49.564 152.305 C 49.765 152.687,50.419 154.080,51.019 155.400 C 53.017 159.801,53.399 160.599,53.601 160.800 C 53.711 160.910,54.071 161.540,54.400 162.200 C 54.729 162.860,55.224 163.544,55.499 163.720 C 55.775 163.896,56.000 164.391,56.000 164.820 C 56.000 165.249,56.180 165.600,56.400 165.600 C 56.620 165.600,56.800 166.050,56.800 166.600 C 56.800 167.222,57.027 167.600,57.400 167.600 C 57.773 167.600,58.000 167.978,58.000 168.600 C 58.000 169.150,58.180 169.600,58.400 169.600 C 58.620 169.600,58.800 170.050,58.800 170.600 C 58.800 171.222,59.027 171.600,59.400 171.600 C 59.773 171.600,60.000 171.978,60.000 172.600 C 60.000 173.150,60.180 173.600,60.400 173.600 C 60.620 173.600,60.800 173.966,60.800 174.413 C 60.800 174.859,61.070 175.329,61.400 175.455 C 61.730 175.582,62.000 176.000,62.000 176.384 C 62.000 176.769,62.450 177.569,63.000 178.162 C 63.550 178.756,64.000 179.592,64.000 180.021 C 64.000 180.449,64.180 180.800,64.400 180.800 C 64.620 180.800,64.800 181.160,64.800 181.600 C 64.800 182.044,65.067 182.400,65.400 182.400 C 65.773 182.400,66.000 182.778,66.000 183.400 C 66.000 183.950,66.180 184.400,66.400 184.400 C 66.620 184.400,66.800 184.766,66.800 185.213 C 66.800 185.659,67.070 186.129,67.400 186.255 C 67.730 186.382,68.000 186.736,68.000 187.043 C 68.000 187.349,68.180 187.600,68.400 187.600 C 68.620 187.600,68.800 188.050,68.800 188.600 C 68.800 189.222,69.027 189.600,69.400 189.600 C 69.730 189.600,70.000 189.847,70.000 190.150 C 70.000 190.923,71.992 194.400,72.434 194.400 C 72.635 194.400,72.800 194.850,72.800 195.400 C 72.800 195.950,72.968 196.400,73.173 196.400 C 73.378 196.400,73.672 196.797,73.826 197.281 C 73.980 197.766,74.386 198.441,74.728 198.781 C 75.291 199.340,75.189 199.412,73.675 199.523 C 72.754 199.591,72.000 199.816,72.000 200.023 C 72.000 200.253,65.650 200.400,55.736 200.400 L 39.471 200.400 38.336 201.672 L 37.200 202.944 37.200 327.872 C 37.200 410.891,37.334 452.800,37.600 452.800 C 37.820 452.800,38.000 453.790,38.000 455.000 L 38.000 457.200 144.324 457.200 C 228.759 457.200,250.785 457.097,251.315 456.700 C 251.898 456.264,252.012 454.898,252.204 446.000 C 252.640 425.888,252.819 230.259,252.402 229.842 C 252.148 229.588,252.000 224.312,252.000 215.549 L 252.000 201.659 250.739 201.029 C 249.634 200.478,246.548 200.400,225.939 200.400 C 212.992 200.400,202.400 200.294,202.400 200.165 C 202.400 199.812,206.787 195.600,207.156 195.600 C 207.332 195.600,207.999 195.150,208.638 194.600 C 209.277 194.051,209.935 193.601,210.100 193.600 C 210.265 193.600,210.400 193.330,210.400 193.000 C 210.400 192.670,210.715 192.394,211.100 192.387 C 211.965 192.372,213.200 191.471,213.200 190.856 C 213.200 190.605,213.470 190.400,213.800 190.400 C 214.130 190.400,214.400 190.220,214.400 190.000 C 214.400 189.780,214.627 189.600,214.904 189.600 C 215.181 189.600,215.893 189.150,216.487 188.600 C 217.080 188.050,217.753 187.600,217.983 187.600 C 218.212 187.600,218.400 187.330,218.400 187.000 C 218.400 186.667,218.756 186.400,219.200 186.400 C 219.640 186.400,220.000 186.220,220.000 186.000 C 220.000 185.780,220.270 185.600,220.600 185.600 C 220.930 185.600,221.200 185.330,221.200 185.000 C 221.200 184.670,221.470 184.400,221.800 184.400 C 222.130 184.400,222.400 184.220,222.400 184.000 C 222.400 183.780,222.679 183.600,223.019 183.600 C 223.360 183.600,224.055 183.150,224.565 182.600 C 225.075 182.050,225.619 181.600,225.774 181.600 C 225.930 181.600,226.308 181.375,226.615 181.100 C 227.815 180.024,228.376 179.600,228.601 179.600 C 228.729 179.600,229.320 179.150,229.913 178.600 C 230.507 178.050,231.153 177.600,231.350 177.600 C 231.547 177.600,232.125 177.150,232.635 176.600 C 233.145 176.050,233.795 175.594,234.081 175.587 C 234.797 175.570,236.000 174.610,236.000 174.056 C 236.000 173.805,236.270 173.600,236.600 173.600 C 236.930 173.600,237.200 173.420,237.200 173.200 C 237.200 172.980,237.462 172.800,237.782 172.800 C 238.102 172.800,238.814 172.350,239.364 171.800 C 239.914 171.250,240.552 170.800,240.782 170.800 C 241.012 170.800,241.200 170.628,241.200 170.419 C 241.200 170.209,241.830 169.739,242.600 169.373 C 243.370 169.008,244.000 168.459,244.000 168.154 C 244.000 167.849,244.384 167.600,244.854 167.600 C 245.324 167.600,246.096 167.182,246.569 166.671 C 247.043 166.160,248.008 165.486,248.715 165.174 C 249.422 164.861,250.000 164.443,250.000 164.246 C 250.000 163.714,251.299 162.827,252.100 162.813 C 252.485 162.806,252.800 162.641,252.800 162.447 C 252.800 162.252,253.115 161.988,253.500 161.858 C 254.464 161.535,255.591 160.789,257.369 159.300 C 257.698 159.025,258.154 158.800,258.383 158.800 C 258.612 158.800,258.800 158.640,258.800 158.443 C 258.800 158.247,259.250 157.974,259.800 157.836 C 260.350 157.698,260.800 157.408,260.800 157.192 C 260.800 156.977,261.070 156.800,261.400 156.800 C 261.730 156.800,262.000 156.620,262.000 156.400 C 262.000 156.180,262.335 156.000,262.744 156.000 C 263.153 156.000,263.826 155.550,264.239 155.000 C 264.653 154.449,265.396 154.000,265.895 154.000 C 266.433 154.000,266.800 153.757,266.800 153.400 C 266.800 153.070,267.134 152.800,267.542 152.800 C 267.949 152.800,268.769 152.350,269.362 151.800 C 269.956 151.250,270.702 150.800,271.021 150.800 C 271.339 150.800,271.600 150.640,271.600 150.443 C 271.600 150.247,272.050 149.974,272.600 149.836 C 273.150 149.698,273.600 149.408,273.600 149.192 C 273.600 148.977,273.870 148.800,274.200 148.800 C 274.530 148.800,274.800 148.620,274.800 148.400 C 274.800 148.180,275.166 148.000,275.613 148.000 C 276.059 148.000,276.529 147.730,276.655 147.400 C 276.782 147.070,277.226 146.800,277.643 146.800 C 278.059 146.800,278.400 146.620,278.400 146.400 C 278.400 146.180,278.670 146.000,279.000 146.000 C 279.330 146.000,279.600 145.730,279.600 145.400 C 279.600 145.027,279.978 144.800,280.600 144.800 C 281.150 144.800,281.600 144.620,281.600 144.400 C 281.600 144.180,281.966 144.000,282.413 144.000 C 282.859 144.000,283.329 143.730,283.455 143.400 C 283.582 143.070,283.936 142.800,284.243 142.800 C 284.549 142.800,284.800 142.620,284.800 142.400 C 284.800 142.180,285.042 142.000,285.339 142.000 C 286.026 142.000,288.312 140.867,288.616 140.375 C 288.743 140.169,289.197 140.000,289.624 140.000 C 290.051 140.000,290.400 139.820,290.400 139.600 C 290.400 139.380,290.766 139.200,291.213 139.200 C 291.659 139.200,292.129 138.930,292.255 138.600 C 292.382 138.270,292.916 138.000,293.443 138.000 C 293.969 138.000,294.400 137.820,294.400 137.600 C 294.400 137.380,294.837 137.200,295.371 137.200 C 295.906 137.200,296.613 136.930,296.943 136.600 C 297.273 136.270,298.006 136.000,298.571 136.000 C 299.137 136.000,299.600 135.820,299.600 135.600 C 299.600 135.380,299.915 135.197,300.300 135.193 C 300.685 135.189,301.424 134.739,301.942 134.193 C 302.460 133.647,303.225 133.200,303.642 133.200 C 304.059 133.200,304.400 132.930,304.400 132.600 C 304.400 132.270,304.670 132.000,305.000 132.000 C 305.330 132.000,305.600 131.820,305.600 131.600 C 305.600 131.380,305.876 131.200,306.213 131.200 C 306.549 131.200,306.929 130.930,307.055 130.600 C 307.182 130.270,307.470 130.000,307.696 130.000 C 307.921 130.000,308.700 129.370,309.426 128.600 C 310.152 127.830,311.003 127.200,311.317 127.200 C 311.631 127.200,312.226 126.750,312.639 126.200 C 313.052 125.650,313.617 125.200,313.895 125.200 C 314.173 125.200,314.400 125.007,314.400 124.771 C 314.400 124.305,315.385 123.200,315.800 123.200 C 316.215 123.200,317.200 122.095,317.200 121.629 C 317.200 121.393,317.393 121.200,317.629 121.200 C 318.182 121.200,319.200 120.182,319.200 119.629 C 319.200 119.393,319.393 119.200,319.629 119.200 C 320.182 119.200,321.200 118.182,321.200 117.629 C 321.200 117.393,321.393 117.200,321.629 117.200 C 322.271 117.200,323.200 116.145,323.200 115.416 C 323.200 115.063,323.470 114.671,323.800 114.545 C 324.130 114.418,324.400 114.064,324.400 113.757 C 324.400 113.451,324.580 113.200,324.800 113.200 C 325.020 113.200,325.200 112.769,325.200 112.243 C 325.200 111.716,325.470 111.182,325.800 111.055 C 326.130 110.929,326.400 110.470,326.400 110.036 C 326.400 109.602,326.580 109.136,326.800 109.000 C 327.020 108.864,327.200 108.031,327.200 107.148 C 327.200 106.255,327.466 105.277,327.800 104.943 C 328.656 104.087,328.541 102.699,327.544 101.845 C 326.760 101.173,326.709 100.849,326.932 97.956 C 327.081 96.019,327.025 94.800,326.787 94.800 C 326.574 94.800,326.400 94.530,326.400 94.200 C 326.400 93.870,326.151 93.600,325.847 93.600 C 325.542 93.600,325.196 93.227,325.076 92.770 C 324.957 92.314,324.486 91.843,324.030 91.724 C 323.573 91.604,323.200 91.323,323.200 91.097 C 323.200 90.383,321.845 89.626,320.543 89.613 C 319.804 89.605,319.191 89.353,319.055 89.000 C 318.889 88.567,318.210 88.400,316.613 88.400 C 315.300 88.400,314.400 88.225,314.400 87.970 C 314.400 87.195,301.953 88.342,301.686 89.141 C 301.599 89.403,300.690 89.600,299.567 89.600 C 298.485 89.600,297.600 89.780,297.600 90.000 C 297.600 90.220,296.713 90.400,295.629 90.400 C 294.410 90.400,293.428 90.629,293.057 91.000 C 292.723 91.334,291.745 91.600,290.852 91.600 C 289.969 91.600,289.136 91.780,289.000 92.000 C 288.864 92.220,288.128 92.400,287.364 92.400 C 286.498 92.400,285.888 92.626,285.745 93.000 C 285.583 93.420,284.928 93.600,283.557 93.600 C 282.481 93.600,281.600 93.780,281.600 94.000 C 281.600 94.220,280.902 94.400,280.049 94.400 C 279.158 94.400,278.286 94.655,278.000 95.000 C 277.726 95.330,276.894 95.600,276.151 95.600 C 275.408 95.600,274.800 95.780,274.800 96.000 C 274.800 96.220,273.984 96.400,272.987 96.400 C 271.745 96.400,271.102 96.589,270.945 97.000 C 270.789 97.406,270.153 97.600,268.981 97.600 C 268.027 97.600,267.136 97.780,267.000 98.000 C 266.864 98.220,266.133 98.400,265.376 98.400 C 264.420 98.400,264.000 98.583,264.000 99.000 C 264.000 99.453,263.511 99.600,262.000 99.600 C 260.900 99.600,260.000 99.780,260.000 100.000 C 260.000 100.220,259.184 100.400,258.187 100.400 C 256.945 100.400,256.302 100.589,256.145 101.000 C 255.995 101.391,255.372 101.600,254.357 101.600 C 253.501 101.600,252.800 101.780,252.800 102.000 C 252.800 102.220,251.990 102.400,251.000 102.400 C 249.667 102.400,249.200 102.556,249.200 103.000 C 249.200 103.433,248.756 103.600,247.600 103.600 C 246.720 103.600,246.000 103.780,246.000 104.000 C 246.000 104.220,245.381 104.400,244.624 104.400 C 243.867 104.400,243.136 104.580,243.000 104.800 C 242.864 105.020,242.448 105.201,242.076 105.202 C 241.704 105.204,240.884 105.474,240.254 105.802 C 239.624 106.131,238.679 106.400,238.154 106.400 C 237.629 106.400,237.200 106.580,237.200 106.800 C 237.200 107.020,236.682 107.200,236.049 107.200 C 235.416 107.200,234.674 107.470,234.400 107.800 C 234.126 108.130,233.294 108.400,232.551 108.400 C 231.808 108.400,231.200 108.580,231.200 108.800 C 231.200 109.020,230.834 109.200,230.387 109.200 C 229.941 109.200,229.471 109.470,229.345 109.800 C 229.203 110.170,228.595 110.400,227.757 110.400 C 227.011 110.400,226.400 110.580,226.400 110.800 C 226.400 111.020,225.963 111.200,225.429 111.200 C 224.894 111.200,224.187 111.470,223.857 111.800 C 223.527 112.130,222.794 112.400,222.229 112.400 C 221.663 112.400,221.200 112.580,221.200 112.800 C 221.200 113.020,220.763 113.200,220.229 113.200 C 219.694 113.200,218.987 113.470,218.657 113.800 C 218.327 114.130,217.684 114.400,217.229 114.400 C 216.773 114.400,216.400 114.580,216.400 114.800 C 216.400 115.020,215.785 115.200,215.033 115.200 C 214.282 115.200,213.576 115.425,213.465 115.700 C 213.354 115.975,213.249 114.265,213.232 111.900 C 213.213 109.321,213.040 107.600,212.800 107.600 C 212.578 107.600,212.400 106.529,212.400 105.187 C 212.400 103.412,212.242 102.714,211.800 102.545 C 211.458 102.413,211.200 101.817,211.200 101.157 C 211.200 100.521,211.020 100.000,210.800 100.000 C 210.580 100.000,210.400 99.655,210.400 99.232 C 210.400 98.365,209.158 96.006,208.700 96.003 C 208.535 96.001,208.400 95.717,208.400 95.371 C 208.400 95.026,208.175 94.492,207.900 94.185 C 206.808 92.968,206.400 92.423,206.400 92.182 C 206.400 91.781,202.004 87.600,201.582 87.600 C 201.372 87.600,201.200 87.420,201.200 87.200 C 201.200 86.980,200.840 86.800,200.400 86.800 C 199.956 86.800,199.600 86.533,199.600 86.200 C 199.600 85.870,199.330 85.600,199.000 85.600 C 198.670 85.600,198.400 85.420,198.400 85.200 C 198.400 84.980,197.950 84.800,197.400 84.800 C 196.778 84.800,196.400 84.573,196.400 84.200 C 196.400 83.827,196.022 83.600,195.400 83.600 C 194.850 83.600,194.400 83.420,194.400 83.200 C 194.400 82.980,193.770 82.800,193.000 82.800 C 192.022 82.800,191.600 82.619,191.600 82.200 C 191.600 81.767,191.156 81.600,190.000 81.600 C 189.120 81.600,188.400 81.420,188.400 81.200 C 188.400 80.946,185.400 80.800,180.200 80.800 C 175.000 80.800,172.000 80.946,172.000 81.200 C 172.000 81.420,171.280 81.600,170.400 81.600 C 169.244 81.600,168.800 81.767,168.800 82.200 C 168.800 82.619,168.378 82.800,167.400 82.800 C 166.630 82.800,166.000 82.980,166.000 83.200 C 166.000 83.420,165.550 83.600,165.000 83.600 C 164.378 83.600,164.000 83.827,164.000 84.200 C 164.000 84.573,163.622 84.800,163.000 84.800 C 162.450 84.800,162.000 84.980,162.000 85.200 C 162.000 85.420,161.730 85.600,161.400 85.600 C 161.070 85.600,160.800 85.768,160.800 85.973 C 160.800 86.178,160.421 86.466,159.958 86.613 C 159.495 86.760,158.468 87.492,157.675 88.240 C 156.105 89.721,154.808 90.018,154.787 88.900 C 154.772 88.035,153.871 86.800,153.256 86.800 C 153.005 86.800,152.800 86.607,152.800 86.371 C 152.800 86.136,152.575 85.692,152.300 85.385 C 151.113 84.062,150.800 83.609,150.800 83.217 C 150.800 82.988,150.620 82.800,150.400 82.800 C 150.180 82.800,150.000 82.607,150.000 82.371 C 150.000 81.838,148.990 80.800,148.472 80.800 C 148.260 80.800,147.974 80.350,147.836 79.800 C 147.698 79.250,147.408 78.800,147.192 78.800 C 146.977 78.800,146.800 78.613,146.800 78.383 C 146.800 77.780,139.749 70.800,139.139 70.800 C 138.857 70.800,138.260 70.393,137.813 69.895 C 136.560 68.501,133.062 66.800,131.446 66.800 C 130.651 66.800,130.000 66.620,130.000 66.400 C 130.000 66.152,127.800 66.000,124.200 66.000 C 120.600 66.000,118.400 66.152,118.400 66.400 C 118.400 66.620,117.680 66.800,116.800 66.800 C 115.920 66.800,115.200 66.620,115.200 66.400 C 115.200 66.180,115.470 66.000,115.800 66.000 C 116.130 66.000,116.400 65.837,116.400 65.637 C 116.400 65.437,117.930 63.695,119.800 61.765 C 121.670 59.835,123.200 58.044,123.200 57.784 C 123.200 57.525,123.650 56.974,124.200 56.561 C 124.750 56.148,125.200 55.583,125.200 55.305 C 125.200 55.027,125.393 54.800,125.629 54.800 C 126.182 54.800,127.200 53.782,127.200 53.229 C 127.200 52.993,127.393 52.800,127.629 52.800 C 128.094 52.800,129.200 51.816,129.200 51.402 C 129.200 51.261,129.798 50.573,130.530 49.873 C 131.261 49.173,131.975 48.285,132.117 47.900 C 132.259 47.515,132.561 47.200,132.787 47.200 C 133.014 47.200,133.200 47.007,133.200 46.771 C 133.200 46.218,134.218 45.200,134.771 45.200 C 135.007 45.200,135.200 45.016,135.200 44.790 C 135.200 44.565,136.280 43.323,137.600 42.032 C 138.920 40.740,140.000 39.562,140.000 39.413 C 140.000 39.264,140.225 38.892,140.500 38.585 C 141.687 37.262,142.000 36.809,142.000 36.417 C 142.000 36.188,142.193 36.000,142.429 36.000 C 142.982 36.000,144.000 34.982,144.000 34.429 C 144.000 34.193,144.193 34.000,144.429 34.000 C 144.860 34.000,146.000 33.027,146.000 32.659 C 146.000 32.551,146.495 31.946,147.100 31.316 C 148.598 29.755,150.000 28.042,150.000 27.770 C 150.000 27.647,150.630 26.952,151.400 26.226 C 152.170 25.500,152.800 24.702,152.800 24.453 C 152.800 24.204,153.036 24.000,153.325 24.000 C 153.614 24.000,154.098 23.370,154.400 22.600 C 154.702 21.830,155.109 21.200,155.303 21.200 C 155.777 21.200,156.800 20.155,156.800 19.671 C 156.800 19.459,157.070 19.182,157.400 19.055 C 157.730 18.929,158.000 18.459,158.000 18.013 C 158.000 17.566,158.180 17.200,158.400 17.200 C 158.620 17.200,158.800 16.834,158.800 16.387 C 158.800 15.941,159.070 15.471,159.400 15.345 C 159.804 15.190,160.000 14.556,160.000 13.406 C 160.000 12.376,159.762 11.500,159.400 11.200 C 159.070 10.926,158.800 10.454,158.800 10.151 C 158.800 9.848,158.620 9.600,158.400 9.600 C 158.180 9.600,158.000 9.330,158.000 9.000 C 158.000 8.670,157.807 8.400,157.571 8.400 C 157.018 8.400,156.000 7.382,156.000 6.829 C 156.000 6.593,155.730 6.400,155.400 6.400 C 155.070 6.400,154.800 6.220,154.800 6.000 C 154.800 5.780,154.350 5.600,153.800 5.600 C 153.250 5.600,152.800 5.407,152.800 5.171 C 152.800 4.618,151.782 3.600,151.229 3.600 C 150.993 3.600,150.800 3.330,150.800 3.000 C 150.800 2.667,150.444 2.400,150.000 2.400 C 149.560 2.400,149.200 2.220,149.200 2.000 C 149.200 1.780,148.995 1.600,148.744 1.600 C 148.493 1.600,148.059 1.287,147.779 0.904 C 147.268 0.205,139.003 -0.337,137.700 0.244 M145.116 11.561 C 146.997 12.525,148.400 13.744,148.400 14.412 C 148.400 14.806,144.681 19.381,143.208 20.800 C 143.093 20.910,141.748 22.440,140.219 24.200 C 138.689 25.960,136.529 28.391,135.419 29.601 C 134.308 30.812,132.770 32.539,132.000 33.438 C 131.230 34.338,129.233 36.587,127.563 38.437 C 125.893 40.287,122.764 43.780,120.609 46.200 C 115.074 52.417,114.632 52.911,110.396 57.612 C 108.308 59.928,105.160 63.424,103.400 65.380 C 101.640 67.336,100.020 69.132,99.800 69.372 C 99.580 69.612,98.698 70.617,97.841 71.604 C 96.983 72.592,95.451 74.300,94.436 75.400 C 93.421 76.500,91.333 78.834,89.795 80.587 C 88.258 82.340,86.079 84.770,84.953 85.987 C 83.353 87.716,63.706 109.598,55.671 118.600 C 54.886 119.480,52.521 122.090,50.417 124.400 C 48.313 126.710,45.797 129.500,44.825 130.600 C 43.853 131.700,42.055 133.691,40.829 135.025 C 39.603 136.358,37.340 138.864,35.800 140.593 C 32.222 144.610,32.566 144.229,30.000 147.028 C 28.790 148.348,26.270 151.116,24.400 153.179 C 15.795 162.673,16.399 162.382,12.672 158.827 C 10.384 156.644,10.392 156.574,13.252 153.596 C 13.993 152.824,15.209 151.474,15.953 150.596 C 16.697 149.718,18.047 148.190,18.954 147.200 C 19.860 146.210,22.756 142.970,25.390 140.000 C 28.023 137.030,30.273 134.510,30.389 134.400 C 30.505 134.290,32.040 132.580,33.800 130.600 C 38.411 125.412,41.598 121.868,46.567 116.400 C 47.467 115.410,49.642 112.983,51.402 111.006 C 53.161 109.029,54.780 107.216,55.000 106.976 C 55.220 106.737,56.750 105.027,58.400 103.176 C 60.050 101.326,62.486 98.639,63.813 97.206 C 65.140 95.773,67.659 92.980,69.410 91.000 C 71.161 89.020,73.430 86.500,74.453 85.400 C 75.475 84.300,76.823 82.770,77.448 82.000 C 78.072 81.230,79.518 79.610,80.661 78.400 C 81.804 77.190,83.105 75.777,83.552 75.259 C 84.439 74.232,87.627 70.660,93.763 63.819 C 95.943 61.388,98.373 58.678,99.163 57.796 C 100.316 56.508,106.860 49.278,108.600 47.369 C 108.820 47.128,110.530 45.237,112.400 43.168 C 115.787 39.421,120.020 34.782,120.400 34.400 C 120.510 34.290,121.302 33.390,122.159 32.400 C 123.017 31.410,124.547 29.700,125.560 28.600 C 127.223 26.793,133.614 19.683,134.600 18.544 C 140.362 11.882,142.706 10.325,145.116 11.561 M90.064 42.856 C 93.159 45.257,94.800 46.876,94.800 47.529 C 94.800 48.028,92.129 51.343,87.976 56.000 C 87.289 56.770,85.709 58.556,84.464 59.969 C 83.219 61.382,82.020 62.732,81.799 62.969 C 81.578 63.206,79.333 65.740,76.808 68.600 C 74.284 71.460,70.594 75.596,68.609 77.790 C 66.624 79.985,64.820 81.986,64.600 82.238 C 64.380 82.490,63.210 83.756,62.000 85.052 C 60.790 86.347,58.094 89.296,56.010 91.604 C 53.925 93.912,51.014 97.060,49.541 98.600 C 48.067 100.140,46.475 101.895,46.002 102.500 C 44.794 104.045,44.370 103.919,41.394 101.135 C 37.373 97.373,37.344 97.476,44.733 89.396 C 45.540 88.513,47.277 86.533,48.594 84.996 C 49.911 83.458,51.083 82.110,51.198 82.000 C 51.313 81.890,52.665 80.362,54.204 78.605 C 57.583 74.744,57.419 74.929,59.400 72.749 C 60.280 71.781,62.259 69.551,63.797 67.794 C 65.336 66.038,67.337 63.790,68.244 62.800 C 69.152 61.810,70.503 60.280,71.247 59.400 C 72.837 57.521,72.867 57.486,75.201 54.954 C 76.191 53.879,77.614 52.280,78.363 51.400 C 79.112 50.520,81.035 48.355,82.636 46.588 C 84.237 44.821,85.932 42.886,86.402 42.288 C 87.502 40.890,87.536 40.896,90.064 42.856 M127.600 74.859 C 132.741 76.044,137.067 79.977,145.600 91.223 C 146.150 91.948,146.789 92.734,147.020 92.970 C 149.482 95.490,150.809 99.345,149.950 101.481 C 149.703 102.097,149.358 102.960,149.184 103.400 C 148.265 105.726,147.600 109.989,147.600 113.559 C 147.600 118.571,147.564 118.585,143.973 114.942 C 139.891 110.802,134.360 107.072,130.540 105.884 C 127.008 104.785,125.138 104.274,123.600 103.986 C 117.259 102.801,116.846 102.526,114.585 97.982 C 112.211 93.208,111.969 92.328,111.716 87.554 C 111.139 76.629,116.542 72.310,127.600 74.859 M103.600 81.600 C 103.600 82.400,103.400 82.800,103.000 82.800 C 102.509 82.800,102.400 83.486,102.400 86.571 C 102.400 89.390,102.552 90.494,103.000 90.943 C 103.374 91.317,103.600 92.299,103.600 93.548 C 103.600 94.651,103.780 95.664,104.000 95.800 C 104.220 95.936,104.400 96.564,104.400 97.195 C 104.400 97.826,104.670 98.613,105.000 98.943 C 105.330 99.273,105.600 99.905,105.600 100.348 C 105.600 100.791,105.780 101.264,106.000 101.400 C 106.774 101.878,106.461 103.600,105.600 103.600 C 105.160 103.600,104.800 103.780,104.800 104.000 C 104.800 104.220,104.260 104.400,103.600 104.400 C 102.940 104.400,102.400 104.577,102.400 104.792 C 102.400 105.008,101.950 105.298,101.400 105.436 C 100.850 105.574,100.400 105.847,100.400 106.043 C 100.400 106.240,99.950 106.400,99.400 106.400 C 98.850 106.400,98.400 106.568,98.400 106.773 C 98.400 106.978,97.995 107.274,97.500 107.430 C 97.005 107.587,96.309 108.049,95.953 108.457 C 95.597 108.866,95.007 109.200,94.641 109.200 C 94.274 109.200,93.871 109.470,93.745 109.800 C 93.618 110.130,93.341 110.400,93.129 110.400 C 92.696 110.400,91.600 111.404,91.600 111.800 C 91.600 112.215,90.495 113.200,90.029 113.200 C 89.793 113.200,89.600 113.470,89.600 113.800 C 89.600 114.173,89.222 114.400,88.600 114.400 C 87.846 114.400,87.600 114.190,87.600 113.546 C 87.600 113.076,87.150 112.275,86.600 111.765 C 86.050 111.255,85.600 110.560,85.600 110.219 C 85.600 109.879,85.420 109.600,85.200 109.600 C 84.980 109.600,84.800 109.330,84.800 109.000 C 84.800 108.670,84.530 108.400,84.200 108.400 C 83.843 108.400,83.600 108.033,83.600 107.495 C 83.600 106.996,83.151 106.253,82.600 105.839 C 81.519 105.027,81.301 104.400,82.100 104.399 C 82.375 104.399,83.140 103.544,83.800 102.499 C 84.460 101.455,85.630 99.943,86.400 99.141 C 88.979 96.452,89.600 95.690,89.600 95.215 C 89.600 94.626,90.598 93.600,91.171 93.600 C 91.407 93.600,91.600 93.407,91.600 93.171 C 91.600 92.618,92.618 91.600,93.171 91.600 C 93.407 91.600,93.600 91.373,93.600 91.095 C 93.600 90.817,94.016 90.277,94.525 89.895 C 95.034 89.513,95.698 88.570,96.000 87.800 C 96.302 87.030,96.704 86.400,96.894 86.400 C 97.084 86.400,98.589 85.050,100.239 83.400 C 103.673 79.966,103.600 80.005,103.600 81.600 M187.200 91.394 C 196.283 93.808,202.838 101.192,203.760 110.046 C 204.005 112.396,203.471 117.863,202.877 119.087 C 202.687 119.479,201.940 121.019,201.217 122.509 C 194.696 135.955,173.467 138.914,162.328 127.929 C 146.113 111.938,164.250 85.295,187.200 91.394 M176.197 103.739 C 167.655 108.639,172.390 119.109,181.683 115.871 C 186.406 114.226,187.377 106.902,183.241 104.116 C 181.723 103.093,177.698 102.878,176.197 103.739 M289.539 105.864 C 291.883 107.109,294.372 108.448,295.070 108.840 C 295.769 109.232,298.649 110.754,301.470 112.222 C 308.621 115.944,308.545 115.844,305.922 118.052 C 303.155 120.380,298.115 124.000,297.639 124.000 C 297.434 124.000,297.207 124.140,297.133 124.310 C 296.746 125.210,289.089 129.626,278.600 134.998 C 272.295 138.227,271.364 138.746,266.940 141.489 C 265.211 142.562,263.527 143.573,263.198 143.735 C 261.279 144.685,257.940 146.873,251.673 151.286 C 248.304 153.659,245.457 155.600,245.347 155.600 C 245.237 155.600,244.557 156.050,243.836 156.600 C 243.114 157.150,242.410 157.600,242.270 157.600 C 241.688 157.600,226.706 167.921,226.000 168.808 C 225.890 168.947,224.090 170.300,222.000 171.815 C 219.910 173.331,218.110 174.680,218.000 174.813 C 217.890 174.947,216.720 175.840,215.400 176.798 C 211.874 179.357,204.724 184.938,200.555 188.386 C 198.551 190.044,195.491 192.511,193.755 193.868 C 192.020 195.225,189.700 197.150,188.600 198.144 C 185.779 200.694,187.832 200.600,134.982 200.600 C 81.668 200.600,86.491 200.915,84.774 197.321 C 84.269 196.264,83.429 194.713,82.907 193.874 C 81.941 192.323,81.562 191.660,79.200 187.400 C 78.468 186.080,77.568 184.460,77.200 183.800 C 76.832 183.140,75.932 181.520,75.200 180.200 C 74.468 178.880,73.568 177.260,73.200 176.600 C 72.832 175.940,71.932 174.320,71.200 173.000 C 70.468 171.680,69.514 169.970,69.079 169.200 C 68.645 168.430,66.856 165.010,65.103 161.600 C 63.351 158.190,61.756 155.229,61.559 155.020 C 61.361 154.811,61.200 154.316,61.200 153.920 C 61.200 153.524,61.020 153.200,60.800 153.200 C 60.580 153.200,60.400 153.011,60.400 152.779 C 60.400 152.548,59.218 149.893,57.773 146.879 C 56.329 143.866,54.958 140.950,54.727 140.400 C 54.496 139.850,54.148 139.087,53.953 138.705 C 53.024 136.878,53.501 135.752,57.131 131.200 C 62.109 124.957,65.945 120.518,72.638 113.254 C 74.418 111.322,77.430 113.902,79.816 119.400 C 80.198 120.280,80.711 121.435,80.955 121.967 C 81.550 123.261,81.473 129.796,80.831 132.471 C 79.223 139.175,81.810 150.530,86.509 157.392 C 90.180 162.754,101.472 171.200,104.968 171.200 C 105.322 171.200,105.923 171.359,106.305 171.553 C 108.822 172.831,114.614 173.424,118.400 172.792 C 120.050 172.516,122.300 172.145,123.400 171.966 C 131.888 170.591,135.483 168.680,142.645 161.735 C 151.482 153.165,152.672 150.546,153.062 138.800 C 153.277 132.332,153.484 131.771,155.097 133.270 C 157.319 135.334,165.073 139.600,166.604 139.600 C 166.906 139.600,167.264 139.780,167.400 140.000 C 167.536 140.220,168.089 140.400,168.629 140.400 C 169.169 140.400,169.923 140.574,170.305 140.787 C 173.088 142.338,179.522 142.787,184.657 141.789 C 194.176 139.940,197.298 138.385,203.800 132.253 C 207.299 128.954,210.833 126.959,218.400 124.011 C 220.710 123.111,222.913 122.201,223.295 121.987 C 223.677 121.774,224.264 121.600,224.600 121.600 C 224.936 121.600,225.523 121.420,225.905 121.199 C 227.797 120.108,241.926 114.962,246.400 113.734 C 249.724 112.822,250.798 112.516,253.200 111.796 C 254.410 111.433,256.030 110.980,256.800 110.789 C 257.570 110.597,259.190 110.145,260.400 109.782 C 261.610 109.420,263.230 108.974,264.000 108.792 C 264.770 108.609,266.480 108.167,267.800 107.808 C 269.120 107.450,270.830 107.000,271.600 106.810 C 272.370 106.619,273.990 106.165,275.200 105.800 C 276.410 105.435,278.030 104.980,278.800 104.789 C 279.570 104.599,280.830 104.271,281.600 104.062 C 284.247 103.343,285.205 103.561,289.539 105.864 M123.522 112.210 C 151.035 117.950,151.243 156.062,123.800 163.137 C 122.920 163.364,121.380 163.755,120.377 164.005 C 116.236 165.040,108.905 163.965,104.630 161.696 C 89.885 153.869,85.427 140.361,92.718 125.600 C 97.720 115.473,111.160 109.631,123.522 112.210 M111.118 127.116 C 103.369 132.784,109.996 144.365,118.851 140.631 C 123.770 138.557,125.260 130.765,121.343 127.600 C 118.797 125.543,113.606 125.297,111.118 127.116 M241.800 209.495 L 243.400 209.813 243.643 228.406 C 244.153 267.347,244.035 449.199,243.500 449.216 C 238.449 449.378,52.736 449.026,50.200 448.850 L 46.600 448.600 46.330 445.600 C 45.418 435.458,45.664 210.607,46.588 209.676 C 47.390 208.870,237.761 208.693,241.800 209.495 M102.141 260.500 C 101.937 260.786,101.874 269.803,101.992 281.600 L 102.200 302.200 107.200 302.092 C 109.950 302.033,114.116 301.805,116.457 301.585 C 118.798 301.366,123.298 301.012,126.457 300.799 C 129.616 300.585,134.443 300.230,137.184 300.009 C 143.546 299.496,143.611 299.600,139.839 304.289 C 138.278 306.229,135.672 309.572,134.607 311.000 C 133.950 311.880,133.194 312.870,132.925 313.200 C 132.656 313.530,126.634 321.360,119.544 330.600 C 112.453 339.840,106.548 347.490,106.422 347.600 C 106.295 347.710,104.319 350.278,102.031 353.307 L 97.869 358.815 98.546 365.307 C 98.917 368.878,99.391 373.330,99.599 375.200 C 99.806 377.070,100.080 379.770,100.208 381.200 C 100.626 385.883,101.583 394.963,101.844 396.728 L 102.099 398.457 109.550 398.216 C 116.770 397.982,135.692 397.233,155.400 396.401 C 160.680 396.178,170.040 395.801,176.200 395.562 C 182.360 395.324,187.940 394.999,188.600 394.840 L 189.800 394.550 190.114 373.001 C 190.287 361.148,190.338 351.215,190.227 350.926 C 190.064 350.502,186.427 350.400,171.479 350.400 C 161.279 350.400,152.823 350.290,152.689 350.156 C 152.484 349.951,157.255 343.011,158.021 342.400 C 158.159 342.290,159.445 340.580,160.879 338.600 C 163.016 335.647,168.347 328.450,171.989 323.600 C 172.403 323.050,174.341 320.440,176.296 317.800 C 178.252 315.160,182.187 309.850,185.041 306.000 C 187.895 302.150,190.658 298.392,191.180 297.648 L 192.129 296.296 191.660 290.448 C 191.403 287.232,191.197 283.340,191.203 281.800 C 191.215 278.931,190.514 265.867,190.147 262.100 L 189.942 260.000 146.220 260.000 C 111.699 260.000,102.423 260.105,102.141 260.500 M185.213 266.100 C 185.221 266.595,185.405 268.890,185.623 271.200 C 187.091 286.766,186.804 296.265,184.813 298.000 C 184.687 298.110,183.331 299.910,181.800 302.000 C 180.269 304.090,178.917 305.890,178.796 306.000 C 178.674 306.110,177.143 308.180,175.393 310.600 C 173.643 313.020,171.989 315.270,171.717 315.600 C 171.445 315.930,168.695 319.620,165.605 323.800 C 162.515 327.980,159.367 332.210,158.609 333.200 C 157.276 334.943,154.103 339.210,146.445 349.561 C 144.426 352.290,142.840 354.720,142.920 354.961 C 143.023 355.269,149.347 355.460,164.033 355.600 L 185.000 355.800 185.104 372.708 L 185.209 389.616 184.304 389.951 C 183.807 390.135,178.180 390.492,171.800 390.744 C 165.420 390.997,158.040 391.300,155.400 391.418 C 152.760 391.535,146.010 391.787,140.400 391.977 C 134.790 392.166,125.015 392.545,118.677 392.818 C 105.271 393.396,106.450 393.811,105.980 388.348 C 105.784 386.067,105.431 382.490,105.196 380.400 C 104.961 378.310,104.596 374.890,104.384 372.800 C 104.172 370.710,103.801 367.056,103.559 364.680 L 103.118 360.361 104.167 358.847 C 104.745 358.014,105.529 356.988,105.910 356.566 C 106.291 356.145,108.484 353.280,110.784 350.200 C 113.083 347.120,115.072 344.510,115.203 344.400 C 115.334 344.290,116.872 342.310,118.621 340.000 C 120.369 337.690,121.901 335.710,122.025 335.600 C 122.149 335.490,123.949 333.150,126.025 330.400 C 128.101 327.650,129.903 325.310,130.028 325.200 C 130.154 325.090,131.737 323.050,133.546 320.666 C 135.355 318.282,137.556 315.402,138.437 314.266 C 139.317 313.130,140.704 311.323,141.519 310.250 C 142.732 308.654,146.286 304.058,148.524 301.191 C 148.786 300.856,149.810 299.506,150.800 298.191 C 151.790 296.876,152.825 295.562,153.100 295.271 C 154.403 293.894,151.352 293.600,144.236 294.415 C 142.275 294.639,137.955 295.002,134.636 295.220 C 126.839 295.732,124.958 295.876,115.713 296.664 C 109.477 297.196,107.911 297.224,107.413 296.811 C 106.881 296.370,106.800 294.237,106.800 280.751 L 106.800 265.200 146.000 265.200 L 185.200 265.200 185.213 266.100 " stroke="none" fill="#000000" fill-rule="evenodd"></path><path id="path2" d="M125.400 74.800 C 126.060 74.968,126.960 75.114,127.400 75.125 L 128.200 75.144 127.400 74.800 C 126.960 74.611,126.060 74.465,125.400 74.475 L 124.200 74.495 125.400 74.800 M387.600 75.200 C 387.600 75.431,386.343 75.600,384.629 75.600 C 382.521 75.600,381.483 75.774,381.057 76.200 C 380.702 76.555,379.724 76.800,378.662 76.800 C 377.675 76.800,376.807 76.971,376.733 77.180 C 376.660 77.389,375.835 77.604,374.900 77.658 C 373.819 77.721,373.200 77.946,373.200 78.278 C 373.200 78.620,372.649 78.800,371.600 78.800 C 370.720 78.800,370.000 78.980,370.000 79.200 C 370.000 79.420,369.410 79.600,368.689 79.600 C 367.968 79.600,366.999 79.866,366.536 80.190 C 366.072 80.515,365.145 80.822,364.474 80.873 C 363.804 80.924,363.344 81.109,363.451 81.283 C 363.559 81.457,363.026 81.600,362.266 81.600 C 361.408 81.600,360.798 81.827,360.655 82.200 C 360.521 82.551,359.921 82.800,359.213 82.800 C 358.546 82.800,358.000 82.980,358.000 83.200 C 358.000 83.420,357.519 83.600,356.931 83.600 C 356.344 83.600,355.579 83.838,355.231 84.129 C 354.884 84.420,353.790 84.893,352.800 85.181 C 351.810 85.468,350.433 85.950,349.740 86.252 C 349.046 86.553,348.181 86.800,347.816 86.800 C 347.451 86.800,347.264 86.980,347.400 87.200 C 347.544 87.433,347.137 87.600,346.424 87.600 C 345.751 87.600,345.200 87.780,345.200 88.000 C 345.200 88.220,344.763 88.400,344.229 88.400 C 343.694 88.400,343.019 88.637,342.729 88.927 C 342.438 89.217,341.322 89.712,340.250 90.027 C 339.177 90.342,338.213 90.825,338.107 91.100 C 338.001 91.375,337.494 91.600,336.981 91.600 C 336.467 91.600,335.936 91.780,335.800 92.000 C 335.664 92.220,335.133 92.400,334.619 92.400 C 334.106 92.400,333.582 92.670,333.455 93.000 C 333.329 93.330,332.769 93.600,332.213 93.600 C 331.656 93.600,331.200 93.780,331.200 94.000 C 331.200 94.220,330.750 94.400,330.200 94.400 C 329.578 94.400,329.200 94.627,329.200 95.000 C 329.200 95.366,328.827 95.600,328.247 95.600 C 326.739 95.600,326.097 100.440,327.429 101.771 C 328.110 102.452,329.200 102.620,329.200 102.043 C 329.200 101.847,329.650 101.574,330.200 101.436 C 330.750 101.298,331.200 101.008,331.200 100.792 C 331.200 100.577,331.650 100.400,332.200 100.400 C 332.750 100.400,333.200 100.240,333.200 100.043 C 333.200 99.847,333.657 99.572,334.216 99.432 C 334.775 99.291,335.125 99.002,334.993 98.788 C 334.861 98.575,335.203 98.400,335.753 98.400 C 336.303 98.400,336.864 98.220,337.000 98.000 C 337.136 97.780,337.602 97.600,338.036 97.600 C 338.470 97.600,338.929 97.330,339.055 97.000 C 339.182 96.670,339.716 96.400,340.243 96.400 C 340.769 96.400,341.200 96.220,341.200 96.000 C 341.200 95.780,341.746 95.600,342.413 95.600 C 343.121 95.600,343.721 95.351,343.855 95.000 C 343.982 94.670,344.516 94.400,345.043 94.400 C 345.569 94.400,346.000 94.220,346.000 94.000 C 346.000 93.780,346.630 93.600,347.400 93.600 C 348.378 93.600,348.800 93.419,348.800 93.000 C 348.800 92.567,349.244 92.400,350.400 92.400 C 351.280 92.400,352.000 92.220,352.000 92.000 C 352.000 91.780,352.630 91.600,353.400 91.600 C 354.378 91.600,354.800 91.419,354.800 91.000 C 354.800 90.568,355.242 90.400,356.376 90.400 C 357.243 90.400,358.064 90.220,358.200 90.000 C 358.336 89.780,359.162 89.600,360.036 89.600 C 361.080 89.600,361.704 89.394,361.855 89.000 C 362.016 88.581,362.669 88.400,364.019 88.400 C 365.083 88.400,366.064 88.220,366.200 88.000 C 366.336 87.780,367.427 87.600,368.624 87.600 C 370.292 87.600,370.800 87.460,370.800 87.000 C 370.800 86.525,371.369 86.400,373.520 86.400 C 375.016 86.400,376.411 86.234,376.620 86.031 C 376.980 85.681,378.288 85.540,386.484 84.966 C 388.728 84.808,390.133 84.522,390.433 84.161 C 390.742 83.788,391.746 83.600,393.430 83.600 C 394.823 83.600,396.376 83.432,396.881 83.228 C 397.387 83.023,398.295 82.749,398.900 82.620 C 400.473 82.283,400.568 78.239,399.034 76.905 C 398.503 76.443,397.963 76.170,397.834 76.299 C 397.705 76.428,397.600 76.323,397.600 76.067 C 397.600 75.789,396.952 75.600,396.000 75.600 C 395.120 75.600,394.400 75.420,394.400 75.200 C 394.400 74.965,393.000 74.800,391.000 74.800 C 389.000 74.800,387.600 74.965,387.600 75.200 M114.434 77.056 C 113.535 78.077,112.800 79.094,112.800 79.316 C 112.800 79.538,113.327 78.992,113.972 78.102 C 114.616 77.213,115.556 76.196,116.061 75.842 C 116.565 75.489,116.773 75.200,116.523 75.200 C 116.273 75.200,115.333 76.035,114.434 77.056 M129.200 75.497 C 129.530 75.625,130.398 76.065,131.130 76.475 C 131.861 76.884,132.352 77.047,132.222 76.835 C 131.921 76.348,129.621 75.190,129.039 75.232 C 128.797 75.249,128.870 75.368,129.200 75.497 M135.430 79.824 C 138.141 82.484,139.059 83.511,141.863 87.020 C 144.262 90.023,144.773 90.599,144.787 90.315 C 144.826 89.466,135.893 79.365,133.800 77.892 C 133.140 77.427,133.873 78.297,135.430 79.824 M111.746 86.200 C 111.747 88.400,111.814 89.249,111.895 88.087 C 111.976 86.924,111.976 85.124,111.893 84.087 C 111.811 83.049,111.745 84.000,111.746 86.200 M145.200 90.945 C 145.200 91.084,146.034 92.323,147.054 93.699 C 148.074 95.074,149.240 96.920,149.645 97.800 C 150.051 98.680,150.386 99.134,150.391 98.808 C 150.399 98.274,147.800 93.687,147.213 93.200 C 147.081 93.090,146.574 92.481,146.086 91.846 C 145.599 91.211,145.200 90.806,145.200 90.945 M112.832 94.025 C 112.797 94.709,114.288 98.000,114.633 98.000 C 114.751 98.000,114.770 97.865,114.677 97.700 C 114.409 97.230,113.294 94.665,113.067 94.000 C 112.892 93.485,112.859 93.488,112.832 94.025 M162.975 97.700 L 161.800 99.000 163.100 97.825 C 164.312 96.730,164.584 96.400,164.275 96.400 C 164.206 96.400,163.621 96.985,162.975 97.700 M149.595 101.298 C 149.301 102.234,148.912 103.171,148.730 103.380 C 148.549 103.589,148.421 104.219,148.446 104.780 C 148.483 105.582,148.530 105.629,148.667 105.000 C 148.763 104.560,148.994 103.840,149.180 103.400 C 150.062 101.318,150.491 99.958,150.319 99.785 C 150.214 99.681,149.889 100.362,149.595 101.298 M116.367 101.345 C 116.900 102.001,118.400 102.993,118.400 102.689 C 118.400 102.613,117.815 102.122,117.100 101.599 C 116.296 101.010,116.016 100.913,116.367 101.345 M178.307 103.090 C 179.026 103.179,180.106 103.177,180.707 103.086 C 181.308 102.995,180.720 102.922,179.400 102.924 C 178.080 102.926,177.588 103.001,178.307 103.090 M121.621 103.621 C 122.155 103.960,125.142 104.181,124.767 103.855 C 124.675 103.775,123.799 103.608,122.821 103.482 C 121.670 103.335,121.246 103.384,121.621 103.621 M281.600 104.062 C 280.830 104.271,279.570 104.598,278.800 104.788 C 278.030 104.979,276.860 105.327,276.200 105.563 L 275.000 105.992 276.200 105.842 C 276.860 105.760,278.750 105.316,280.400 104.856 C 284.937 103.590,284.703 103.529,292.600 108.004 C 294.746 109.220,302.092 113.084,304.695 114.368 C 306.817 115.413,307.339 115.964,306.863 116.653 C 306.464 117.231,301.968 120.800,301.639 120.800 C 301.480 120.800,301.002 121.119,300.575 121.508 C 298.987 122.959,290.465 128.382,286.600 130.400 C 284.400 131.549,282.270 132.663,281.866 132.877 C 281.462 133.090,281.216 133.349,281.319 133.452 C 281.422 133.555,282.202 133.247,283.053 132.768 C 283.904 132.289,285.950 131.177,287.600 130.297 C 291.082 128.440,296.939 124.762,297.133 124.310 C 297.207 124.140,297.434 124.000,297.639 124.000 C 298.115 124.000,303.155 120.380,305.922 118.052 C 308.545 115.844,308.621 115.944,301.470 112.222 C 298.649 110.754,295.769 109.232,295.070 108.840 C 285.947 103.723,284.604 103.246,281.600 104.062 M125.600 104.400 C 125.930 104.613,126.470 104.788,126.800 104.788 C 127.333 104.788,127.333 104.745,126.800 104.400 C 126.470 104.187,125.930 104.012,125.600 104.012 C 125.067 104.012,125.067 104.055,125.600 104.400 M174.232 104.606 C 173.355 105.270,172.006 107.204,172.004 107.800 C 172.004 108.020,172.376 107.587,172.833 106.839 C 173.289 106.090,174.054 105.151,174.531 104.752 C 175.565 103.889,175.331 103.775,174.232 104.606 M129.000 105.412 C 131.073 106.158,131.794 106.140,130.054 105.384 C 129.314 105.063,128.414 104.808,128.054 104.818 C 127.694 104.827,128.120 105.095,129.000 105.412 M131.600 106.191 C 131.600 106.437,134.899 108.035,135.065 107.869 C 135.185 107.748,132.096 106.000,131.762 106.000 C 131.673 106.000,131.600 106.086,131.600 106.191 M147.800 107.200 C 147.648 107.891,147.607 108.541,147.709 108.642 C 147.811 108.744,148.009 108.253,148.150 107.550 C 148.483 105.883,148.160 105.560,147.800 107.200 M272.800 106.418 C 272.250 106.601,270.900 107.034,269.800 107.382 C 267.646 108.061,269.075 107.952,271.965 107.216 C 273.947 106.712,275.434 106.002,274.400 106.055 C 274.070 106.071,273.350 106.235,272.800 106.418 M135.820 108.314 C 136.029 108.486,137.201 109.295,138.424 110.110 C 139.648 110.926,142.072 113.031,143.813 114.788 C 147.247 118.255,147.728 118.329,147.496 115.356 L 147.344 113.400 147.272 115.566 L 147.200 117.732 143.950 114.447 C 141.065 111.531,136.570 108.000,135.742 108.000 C 135.576 108.000,135.611 108.141,135.820 108.314 M265.600 108.400 C 265.103 108.721,265.138 108.788,265.800 108.788 C 266.240 108.788,266.870 108.613,267.200 108.400 C 267.697 108.079,267.662 108.012,267.000 108.012 C 266.560 108.012,265.930 108.187,265.600 108.400 M262.200 109.186 C 261.760 109.369,260.617 109.729,259.661 109.987 C 258.705 110.245,258.004 110.537,258.104 110.637 C 258.275 110.808,261.099 110.123,263.800 109.254 C 264.919 108.895,264.932 108.868,264.000 108.861 C 263.450 108.857,262.640 109.004,262.200 109.186 M203.701 112.200 C 203.705 113.080,203.787 113.393,203.883 112.895 C 203.979 112.398,203.975 111.678,203.875 111.295 C 203.775 110.913,203.696 111.320,203.701 112.200 M254.400 111.425 C 253.491 111.769,253.280 111.961,253.800 111.971 C 254.240 111.981,255.320 111.729,256.200 111.412 C 257.407 110.977,257.555 110.843,256.800 110.865 C 256.250 110.882,255.170 111.134,254.400 111.425 M72.385 113.500 C 71.647 114.325,69.497 116.710,67.608 118.800 C 60.719 126.423,53.250 135.783,53.698 136.231 C 53.800 136.333,54.334 135.735,54.885 134.902 C 55.791 133.533,60.661 127.286,61.201 126.800 C 61.324 126.690,62.858 124.891,64.612 122.802 C 69.382 117.119,73.617 112.800,74.419 112.800 C 75.554 112.800,78.205 116.775,80.553 122.000 C 80.899 122.770,81.186 123.096,81.191 122.724 C 81.196 122.352,81.043 121.950,80.852 121.832 C 80.660 121.714,80.401 121.104,80.275 120.477 C 79.838 118.291,75.163 112.000,73.975 112.000 C 73.840 112.000,73.124 112.675,72.385 113.500 M251.200 112.400 C 250.667 112.745,250.667 112.788,251.200 112.788 C 251.530 112.788,252.070 112.613,252.400 112.400 C 252.933 112.055,252.933 112.012,252.400 112.012 C 252.070 112.012,251.530 112.187,251.200 112.400 M248.200 113.193 C 247.760 113.379,246.540 113.752,245.489 114.021 C 244.437 114.290,243.671 114.605,243.787 114.720 C 243.985 114.918,245.362 114.565,249.000 113.383 C 249.880 113.097,250.240 112.861,249.800 112.859 C 249.360 112.856,248.640 113.007,248.200 113.193 M184.034 114.553 L 183.069 115.800 184.213 114.712 C 184.843 114.114,185.277 113.553,185.179 113.465 C 185.080 113.377,184.565 113.867,184.034 114.553 M241.400 115.197 C 240.960 115.386,237.595 116.673,233.921 118.058 C 230.248 119.443,227.317 120.650,227.408 120.742 C 227.500 120.833,228.075 120.714,228.687 120.477 C 229.299 120.240,231.960 119.205,234.600 118.175 C 237.240 117.146,240.255 116.048,241.300 115.736 C 242.345 115.424,243.200 115.086,243.200 114.985 C 243.200 114.705,242.298 114.812,241.400 115.197 M174.000 115.405 C 174.000 115.914,177.123 116.793,178.749 116.741 L 180.600 116.682 178.400 116.409 C 177.190 116.259,175.705 115.930,175.100 115.678 C 174.495 115.426,174.000 115.303,174.000 115.405 M97.200 119.400 C 96.228 120.390,95.523 121.200,95.633 121.200 C 95.743 121.200,96.628 120.390,97.600 119.400 C 98.572 118.410,99.277 117.600,99.167 117.600 C 99.057 117.600,98.172 118.410,97.200 119.400 M223.200 122.011 C 222.870 122.212,220.710 123.112,218.400 124.012 C 210.834 126.958,207.300 128.954,203.800 132.253 C 199.722 136.098,198.734 136.855,195.811 138.365 C 193.353 139.636,193.205 140.124,195.639 138.934 C 197.918 137.820,200.025 136.232,204.000 132.631 C 208.030 128.980,209.489 128.069,214.600 126.016 C 216.360 125.309,218.160 124.572,218.600 124.377 C 219.040 124.183,220.750 123.488,222.400 122.833 C 224.050 122.177,225.040 121.643,224.600 121.644 C 224.160 121.646,223.530 121.811,223.200 122.011 M81.328 126.000 C 81.328 127.430,81.401 128.015,81.489 127.300 C 81.578 126.585,81.578 125.415,81.489 124.700 C 81.401 123.985,81.328 124.570,81.328 126.000 M114.311 125.893 C 115.251 125.978,116.691 125.977,117.511 125.891 C 118.330 125.805,117.560 125.736,115.800 125.737 C 114.040 125.739,113.370 125.809,114.311 125.893 M162.000 127.800 C 162.746 128.570,163.447 129.200,163.557 129.200 C 163.667 129.200,163.146 128.570,162.400 127.800 C 161.654 127.030,160.953 126.400,160.843 126.400 C 160.733 126.400,161.254 127.030,162.000 127.800 M121.451 127.603 C 121.920 128.151,122.587 129.140,122.935 129.800 C 123.283 130.460,123.575 130.856,123.584 130.680 C 123.616 130.037,122.457 128.177,121.541 127.402 L 120.600 126.606 121.451 127.603 M108.800 128.800 C 108.330 129.460,108.036 130.000,108.146 130.000 C 108.256 130.000,108.730 129.460,109.200 128.800 C 109.670 128.140,109.964 127.600,109.854 127.600 C 109.744 127.600,109.270 128.140,108.800 128.800 M80.417 131.921 C 79.815 134.758,80.037 142.771,80.762 144.400 C 81.156 145.284,81.181 145.215,80.981 143.800 C 80.422 139.843,80.340 134.517,80.809 132.561 C 81.080 131.431,81.222 130.265,81.123 129.970 C 81.025 129.675,80.707 130.553,80.417 131.921 M123.714 133.000 C 123.717 134.100,123.795 134.503,123.887 133.895 C 123.979 133.286,123.977 132.386,123.882 131.895 C 123.787 131.403,123.711 131.900,123.714 133.000 M153.402 132.900 C 153.308 133.175,153.144 135.920,153.038 139.000 C 152.932 142.080,152.753 145.500,152.640 146.600 L 152.433 148.600 152.999 146.200 C 153.337 144.768,153.572 141.581,153.583 138.300 C 153.597 133.605,153.911 131.770,154.467 133.125 C 154.914 134.217,164.029 139.633,165.332 139.582 C 165.589 139.571,164.450 138.895,162.800 138.077 C 159.351 136.369,155.650 134.036,154.851 133.066 C 154.199 132.274,153.640 132.210,153.402 132.900 M276.600 135.552 C 272.212 137.861,269.661 139.315,266.922 141.067 C 265.776 141.800,264.751 142.400,264.643 142.400 C 264.216 142.400,256.523 147.365,252.096 150.498 C 249.513 152.326,246.410 154.434,245.200 155.183 C 242.038 157.142,233.836 162.527,233.600 162.800 C 233.490 162.927,230.790 164.902,227.600 167.190 C 224.410 169.478,221.710 171.455,221.600 171.583 C 221.490 171.712,219.691 173.073,217.602 174.608 C 215.514 176.144,213.534 177.614,213.202 177.875 C 212.871 178.136,211.070 179.537,209.200 180.988 C 207.330 182.438,205.497 183.878,205.126 184.186 C 204.187 184.968,198.355 189.656,194.161 193.000 C 192.230 194.540,189.761 196.610,188.676 197.600 C 187.591 198.590,186.410 199.522,186.051 199.672 C 185.523 199.893,185.513 199.947,186.000 199.959 C 186.330 199.967,187.500 199.155,188.600 198.155 C 189.700 197.154,192.020 195.225,193.755 193.868 C 195.491 192.511,198.551 190.044,200.555 188.386 C 204.724 184.938,211.874 179.357,215.400 176.798 C 216.720 175.840,217.890 174.947,218.000 174.813 C 218.110 174.680,219.910 173.331,222.000 171.815 C 224.090 170.300,225.890 168.947,226.000 168.808 C 226.706 167.921,241.688 157.600,242.270 157.600 C 242.410 157.600,243.114 157.150,243.836 156.600 C 244.557 156.050,245.237 155.600,245.347 155.600 C 245.457 155.600,248.304 153.659,251.673 151.286 C 257.940 146.873,261.279 144.685,263.198 143.735 C 263.527 143.573,265.211 142.562,266.940 141.489 C 270.991 138.977,272.198 138.293,276.794 135.911 C 278.881 134.830,280.666 133.867,280.761 133.772 C 281.306 133.227,279.767 133.885,276.600 135.552 M108.764 137.933 C 108.980 138.336,109.471 138.921,109.855 139.233 C 110.287 139.584,110.190 139.304,109.601 138.500 C 108.551 137.065,108.157 136.798,108.764 137.933 M89.320 139.600 C 89.320 140.810,89.395 141.305,89.487 140.700 C 89.578 140.095,89.578 139.105,89.487 138.500 C 89.395 137.895,89.320 138.390,89.320 139.600 M54.409 139.439 C 54.404 139.680,54.656 140.400,54.969 141.039 C 55.282 141.677,56.100 143.437,56.787 144.949 C 57.474 146.461,58.118 147.616,58.218 147.515 C 58.318 147.415,57.805 146.088,57.076 144.566 C 56.348 143.045,55.452 141.170,55.085 140.400 C 54.718 139.630,54.414 139.197,54.409 139.439 M192.298 139.835 C 192.016 140.117,190.153 140.602,185.600 141.578 C 183.730 141.978,182.560 142.327,183.000 142.353 C 183.746 142.397,186.544 141.838,190.800 140.795 C 192.490 140.381,193.893 139.600,192.947 139.600 C 192.719 139.600,192.428 139.706,192.298 139.835 M169.527 141.043 C 170.477 141.376,171.467 141.562,171.727 141.456 C 171.987 141.350,171.806 141.249,171.324 141.232 C 170.842 141.214,170.336 141.020,170.200 140.800 C 170.064 140.580,169.468 140.409,168.876 140.419 C 167.976 140.435,168.082 140.537,169.527 141.043 M114.100 141.487 C 114.705 141.578,115.695 141.578,116.300 141.487 C 116.905 141.395,116.410 141.320,115.200 141.320 C 113.990 141.320,113.495 141.395,114.100 141.487 M173.000 142.000 C 173.440 142.189,174.160 142.344,174.600 142.344 L 175.400 142.344 174.600 142.000 C 174.160 141.811,173.440 141.656,173.000 141.656 L 172.200 141.656 173.000 142.000 M177.100 142.693 C 178.035 142.777,179.565 142.777,180.500 142.693 C 181.435 142.609,180.670 142.540,178.800 142.540 C 176.930 142.540,176.165 142.609,177.100 142.693 M81.228 146.402 C 81.165 147.772,84.597 155.936,85.048 155.486 C 85.153 155.380,84.841 154.598,84.354 153.747 C 83.868 152.896,82.971 150.760,82.363 149.000 C 81.754 147.240,81.243 146.071,81.228 146.402 M58.400 148.149 C 58.400 148.686,60.056 151.677,60.248 151.486 C 60.353 151.380,60.051 150.598,59.577 149.747 C 58.619 148.030,58.400 147.732,58.400 148.149 M151.040 151.487 C 149.553 156.105,136.795 167.992,131.093 170.071 C 128.565 170.993,128.196 171.591,130.670 170.758 C 136.551 168.778,152.413 153.784,151.489 151.078 C 151.399 150.815,151.197 150.999,151.040 151.487 M61.211 153.813 C 61.197 154.351,64.035 159.698,64.231 159.503 C 64.313 159.420,63.670 158.014,62.801 156.376 C 61.932 154.739,61.216 153.586,61.211 153.813 M136.378 156.300 L 135.000 157.800 136.500 156.422 C 137.325 155.663,138.000 154.988,138.000 154.922 C 138.000 154.616,137.662 154.904,136.378 156.300 M86.101 157.481 C 88.414 161.401,96.083 167.747,101.512 170.233 C 104.821 171.748,104.529 171.343,101.020 169.551 C 95.323 166.641,89.492 161.770,86.585 157.492 C 85.279 155.570,84.969 155.563,86.101 157.481 M64.400 160.162 C 64.400 160.496,66.148 163.585,66.269 163.465 C 66.435 163.299,64.837 160.000,64.591 160.000 C 64.486 160.000,64.400 160.073,64.400 160.162 M66.400 164.108 C 66.400 164.255,66.731 164.966,67.135 165.688 C 67.539 166.410,68.468 168.080,69.200 169.400 C 69.932 170.720,70.832 172.340,71.200 173.000 C 71.568 173.660,72.468 175.280,73.200 176.600 C 73.932 177.920,74.832 179.540,75.200 180.200 C 75.568 180.860,76.468 182.480,77.200 183.800 C 77.932 185.120,78.832 186.740,79.200 187.400 C 79.568 188.060,80.093 189.020,80.367 189.534 C 80.641 190.048,80.944 190.390,81.040 190.293 C 81.136 190.197,80.072 188.067,78.674 185.559 C 77.277 183.052,75.467 179.779,74.653 178.288 C 73.839 176.796,72.848 174.996,72.452 174.288 C 71.067 171.813,69.721 169.381,68.417 167.000 C 67.110 164.614,66.400 163.596,66.400 164.108 M104.800 171.569 C 105.759 172.120,110.364 173.204,111.532 173.154 C 112.661 173.105,111.150 172.686,107.890 172.143 C 107.060 172.005,106.284 171.736,106.167 171.546 C 106.049 171.356,105.558 171.205,105.076 171.212 C 104.386 171.222,104.327 171.298,104.800 171.569 M125.600 171.600 C 124.836 172.094,125.658 172.094,127.200 171.600 L 128.200 171.280 127.200 171.246 C 126.650 171.227,125.930 171.387,125.600 171.600 M121.541 172.193 C 121.435 172.299,120.370 172.562,119.174 172.779 L 117.000 173.173 119.200 172.976 C 120.410 172.868,122.210 172.627,123.200 172.440 L 125.000 172.100 123.367 172.050 C 122.468 172.023,121.647 172.087,121.541 172.193 M81.200 190.992 C 81.200 191.098,81.799 192.133,82.531 193.292 C 83.263 194.452,84.262 196.240,84.751 197.268 C 85.240 198.295,85.938 199.375,86.303 199.668 C 86.799 200.067,86.754 199.849,86.122 198.800 C 85.658 198.030,84.881 196.680,84.394 195.800 C 82.031 191.529,81.200 190.278,81.200 190.992 M98.600 200.420 C 113.614 200.768,165.745 200.767,176.600 200.418 C 181.220 200.270,162.950 200.150,136.000 200.150 C 108.029 200.151,91.978 200.267,98.600 200.420 M106.800 280.751 C 106.800 299.437,105.923 297.525,114.106 296.679 L 120.200 296.048 115.400 296.283 C 112.760 296.412,109.970 296.536,109.200 296.559 L 107.800 296.600 107.545 292.800 C 107.044 285.345,107.156 265.685,107.700 265.465 C 107.999 265.344,107.918 265.250,107.500 265.232 C 106.845 265.202,106.800 266.195,106.800 280.751 M185.261 272.000 C 185.231 274.090,185.375 277.330,185.580 279.200 C 185.786 281.070,186.010 285.480,186.077 289.000 L 186.200 295.400 185.002 297.000 C 184.344 297.880,183.699 298.690,183.569 298.800 C 183.439 298.910,181.642 301.340,179.575 304.200 C 177.507 307.060,175.598 309.670,175.332 310.000 C 175.066 310.330,172.979 313.120,170.694 316.200 C 168.409 319.280,163.660 325.670,160.140 330.400 C 141.712 355.166,142.000 354.767,142.000 355.489 C 142.000 355.897,146.313 356.000,163.465 356.000 L 184.930 356.000 184.663 372.668 C 184.517 381.836,184.293 389.441,184.166 389.568 C 184.040 389.696,181.025 389.917,177.468 390.059 C 173.911 390.202,165.690 390.528,159.200 390.785 C 152.710 391.041,144.520 391.403,141.000 391.588 L 134.600 391.925 142.800 391.770 C 147.310 391.684,153.070 391.523,155.600 391.411 C 158.130 391.299,165.420 391.000,171.800 390.747 C 178.180 390.493,183.807 390.135,184.304 389.951 L 185.209 389.616 185.104 372.708 L 185.000 355.800 164.033 355.600 C 149.347 355.460,143.023 355.269,142.920 354.961 C 142.840 354.720,144.426 352.290,146.445 349.561 C 154.103 339.210,157.276 334.943,158.609 333.200 C 159.367 332.210,162.515 327.980,165.605 323.800 C 168.695 319.620,171.445 315.930,171.717 315.600 C 171.989 315.270,173.643 313.020,175.393 310.600 C 177.143 308.180,178.674 306.110,178.796 306.000 C 178.917 305.890,180.269 304.090,181.800 302.000 C 183.331 299.910,184.687 298.110,184.813 298.000 C 186.771 296.293,187.079 286.481,185.643 271.600 L 185.315 268.200 185.261 272.000 M149.600 293.600 L 146.600 293.856 150.100 293.928 C 153.554 293.999,154.081 294.235,153.100 295.271 C 152.825 295.562,151.790 296.876,150.800 298.191 C 149.810 299.506,148.786 300.856,148.524 301.191 C 146.286 304.058,142.732 308.654,141.519 310.250 C 140.704 311.323,139.317 313.130,138.437 314.266 C 137.556 315.402,135.355 318.282,133.546 320.666 C 131.737 323.050,130.154 325.090,130.028 325.200 C 129.903 325.310,128.101 327.650,126.025 330.400 C 123.949 333.150,122.149 335.490,122.025 335.600 C 121.901 335.710,120.369 337.690,118.621 340.000 C 116.872 342.310,115.334 344.290,115.203 344.400 C 115.072 344.510,113.083 347.120,110.784 350.200 C 108.484 353.280,106.291 356.145,105.910 356.566 C 103.370 359.375,103.109 360.137,103.543 363.469 L 103.952 366.600 103.837 363.506 C 103.726 360.557,104.338 358.486,105.581 357.600 C 105.736 357.490,107.442 355.330,109.373 352.800 C 114.007 346.728,117.172 342.592,118.400 341.002 C 118.950 340.289,120.210 338.648,121.200 337.353 C 122.780 335.288,125.424 331.905,126.983 329.954 C 127.267 329.599,128.556 327.889,129.848 326.154 C 131.139 324.419,132.296 322.910,132.419 322.800 C 132.542 322.690,133.173 321.880,133.821 321.000 C 134.470 320.120,135.720 318.487,136.600 317.372 C 144.858 306.903,154.400 294.184,154.400 293.646 C 154.400 293.401,153.995 293.232,153.500 293.272 C 153.005 293.312,151.250 293.459,149.600 293.600 M140.348 294.185 C 140.246 294.287,137.111 294.572,133.381 294.818 C 129.652 295.065,125.160 295.413,123.400 295.593 L 120.200 295.920 124.200 295.798 C 129.163 295.647,140.056 294.893,143.800 294.442 L 146.600 294.105 143.567 294.053 C 141.898 294.024,140.450 294.083,140.348 294.185 M104.055 368.379 C 104.025 369.358,104.180 371.608,104.400 373.379 C 104.620 375.151,105.049 378.760,105.354 381.400 C 105.739 384.731,105.923 385.560,105.954 384.107 C 105.979 382.957,105.824 380.797,105.609 379.307 C 105.393 377.818,104.968 374.350,104.664 371.600 C 104.359 368.850,104.085 367.401,104.055 368.379 M106.164 389.445 C 106.330 393.332,106.168 393.212,111.124 393.122 L 115.400 393.043 111.200 392.822 L 107.000 392.600 106.521 389.600 L 106.043 386.600 106.164 389.445 M118.800 392.400 C 115.991 392.640,116.093 392.658,120.400 392.686 C 122.930 392.702,126.620 392.583,128.600 392.421 C 132.192 392.127,132.189 392.127,127.000 392.135 C 124.140 392.140,120.450 392.259,118.800 392.400 " stroke="none" fill="#de3c1e" fill-rule="evenodd"></path><path id="path3" d="M138.569 14.441 C 136.606 16.443,134.820 18.289,134.600 18.544 C 133.614 19.683,127.223 26.793,125.560 28.600 C 124.547 29.700,123.017 31.410,122.159 32.400 C 121.302 33.390,120.510 34.290,120.400 34.400 C 120.020 34.782,115.787 39.421,112.400 43.168 C 110.530 45.237,108.820 47.128,108.600 47.369 C 106.860 49.278,100.316 56.508,99.163 57.796 C 98.373 58.678,95.943 61.388,93.763 63.819 C 87.627 70.660,84.439 74.232,83.552 75.259 C 83.105 75.777,81.804 77.190,80.661 78.400 C 79.518 79.610,78.072 81.230,77.448 82.000 C 76.823 82.770,75.475 84.300,74.453 85.400 C 73.430 86.500,71.161 89.020,69.410 91.000 C 67.659 92.980,65.140 95.773,63.813 97.206 C 62.486 98.639,60.050 101.326,58.400 103.176 C 56.750 105.027,55.220 106.737,55.000 106.976 C 54.780 107.216,53.161 109.029,51.402 111.006 C 49.642 112.983,47.467 115.410,46.567 116.400 C 41.598 121.868,38.411 125.412,33.800 130.600 C 32.040 132.580,30.505 134.290,30.389 134.400 C 30.273 134.510,28.023 137.030,25.390 140.000 C 22.756 142.970,19.860 146.210,18.954 147.200 C 18.047 148.190,16.697 149.718,15.953 150.596 C 15.209 151.474,13.993 152.824,13.252 153.596 C 10.392 156.574,10.384 156.644,12.672 158.827 C 16.399 162.382,15.795 162.673,24.400 153.179 C 26.270 151.116,28.790 148.348,30.000 147.028 C 32.566 144.229,32.222 144.610,35.800 140.593 C 37.340 138.864,39.603 136.358,40.829 135.025 C 42.055 133.691,43.853 131.700,44.825 130.600 C 45.797 129.500,48.313 126.710,50.417 124.400 C 52.521 122.090,54.886 119.480,55.671 118.600 C 63.706 109.598,83.353 87.716,84.953 85.987 C 86.079 84.770,88.258 82.340,89.795 80.587 C 91.333 78.834,93.421 76.500,94.436 75.400 C 95.451 74.300,96.983 72.592,97.841 71.604 C 98.698 70.617,99.580 69.612,99.800 69.372 C 100.020 69.132,101.640 67.336,103.400 65.380 C 105.160 63.424,108.308 59.928,110.396 57.612 C 114.632 52.911,115.074 52.417,120.609 46.200 C 122.764 43.780,125.893 40.287,127.563 38.437 C 129.233 36.587,131.230 34.338,132.000 33.438 C 132.770 32.539,134.308 30.812,135.419 29.601 C 136.529 28.391,138.689 25.960,140.219 24.200 C 141.748 22.440,143.093 20.910,143.208 20.800 C 144.681 19.381,148.400 14.806,148.400 14.412 C 148.400 13.362,144.488 10.800,142.885 10.800 C 142.471 10.800,140.544 12.426,138.569 14.441 M86.402 42.288 C 85.932 42.886,84.237 44.821,82.636 46.588 C 81.035 48.355,79.112 50.520,78.363 51.400 C 77.614 52.280,76.191 53.879,75.201 54.954 C 72.867 57.486,72.837 57.521,71.247 59.400 C 70.503 60.280,69.152 61.810,68.244 62.800 C 67.337 63.790,65.336 66.038,63.797 67.794 C 62.259 69.551,60.280 71.781,59.400 72.749 C 57.419 74.929,57.583 74.744,54.204 78.605 C 52.665 80.362,51.313 81.890,51.198 82.000 C 51.083 82.110,49.911 83.458,48.594 84.996 C 47.277 86.533,45.540 88.513,44.733 89.396 C 37.344 97.476,37.373 97.373,41.394 101.135 C 44.370 103.919,44.794 104.045,46.002 102.500 C 46.475 101.895,48.067 100.140,49.541 98.600 C 51.014 97.060,53.925 93.912,56.010 91.604 C 58.094 89.296,60.790 86.347,62.000 85.052 C 63.210 83.756,64.380 82.490,64.600 82.238 C 64.820 81.986,66.624 79.985,68.609 77.790 C 70.594 75.596,74.284 71.460,76.808 68.600 C 79.333 65.740,81.578 63.206,81.799 62.969 C 82.020 62.732,83.219 61.382,84.464 59.969 C 85.709 58.556,87.289 56.770,87.976 56.000 C 95.339 47.744,95.439 47.558,93.500 45.735 C 88.961 41.468,87.576 40.796,86.402 42.288 M51.732 209.148 C 49.054 209.287,46.740 209.524,46.588 209.676 C 45.664 210.607,45.418 435.458,46.330 445.600 L 46.600 448.600 50.200 448.850 C 52.736 449.026,238.449 449.378,243.500 449.216 C 244.035 449.199,244.153 267.347,243.643 228.406 L 243.400 209.813 241.800 209.495 C 239.890 209.116,58.752 208.786,51.732 209.148 M190.147 262.100 C 190.514 265.867,191.215 278.931,191.203 281.800 C 191.197 283.340,191.403 287.232,191.660 290.448 L 192.129 296.296 191.180 297.648 C 190.658 298.392,187.895 302.150,185.041 306.000 C 182.187 309.850,178.252 315.160,176.296 317.800 C 174.341 320.440,172.403 323.050,171.989 323.600 C 168.347 328.450,163.016 335.647,160.879 338.600 C 159.445 340.580,158.159 342.290,158.021 342.400 C 157.255 343.011,152.484 349.951,152.689 350.156 C 152.823 350.290,161.279 350.400,171.479 350.400 C 186.427 350.400,190.064 350.502,190.227 350.926 C 190.338 351.215,190.287 361.148,190.114 373.001 L 189.800 394.550 188.600 394.840 C 187.940 394.999,182.360 395.324,176.200 395.562 C 170.040 395.801,160.680 396.178,155.400 396.401 C 135.692 397.233,116.770 397.982,109.550 398.216 L 102.099 398.457 101.844 396.728 C 101.583 394.963,100.626 385.883,100.208 381.200 C 100.080 379.770,99.806 377.070,99.599 375.200 C 99.391 373.330,98.917 368.878,98.546 365.307 L 97.869 358.815 102.031 353.307 C 104.319 350.278,106.295 347.710,106.422 347.600 C 106.548 347.490,112.453 339.840,119.544 330.600 C 126.634 321.360,132.656 313.530,132.925 313.200 C 133.194 312.870,133.950 311.880,134.607 311.000 C 135.672 309.572,138.278 306.229,139.839 304.289 C 143.611 299.600,143.546 299.496,137.184 300.009 C 134.443 300.230,129.616 300.585,126.457 300.799 C 123.298 301.012,118.798 301.366,116.457 301.585 C 114.116 301.805,109.950 302.033,107.200 302.092 L 102.200 302.200 101.992 281.600 C 101.874 269.803,101.937 260.786,102.141 260.500 C 102.423 260.105,111.699 260.000,146.220 260.000 L 189.942 260.000 190.147 262.100 " stroke="none" fill="#00fe00" fill-rule="evenodd"></path><path id="path4" d="M176.600 91.594 C 173.567 91.992,171.226 92.614,170.671 93.169 C 170.434 93.406,170.002 93.600,169.711 93.600 C 168.454 93.600,160.800 100.020,160.800 101.074 C 160.800 101.212,160.385 101.881,159.877 102.562 C 156.459 107.149,155.415 115.799,157.758 120.121 C 158.331 121.178,158.800 122.303,158.800 122.621 C 158.800 122.940,158.947 123.200,159.126 123.200 C 159.306 123.200,159.837 123.875,160.307 124.700 C 161.221 126.305,162.443 127.534,165.000 129.420 C 165.880 130.069,166.660 130.735,166.733 130.900 C 166.807 131.065,167.190 131.200,167.584 131.200 C 167.979 131.200,168.526 131.470,168.800 131.800 C 169.074 132.130,169.636 132.400,170.049 132.400 C 170.462 132.400,170.800 132.580,170.800 132.800 C 170.800 133.020,171.304 133.200,171.920 133.200 C 172.536 133.200,173.239 133.399,173.482 133.642 C 174.119 134.279,180.249 134.561,182.600 134.062 C 183.700 133.828,185.140 133.521,185.800 133.380 C 188.762 132.746,196.107 128.490,198.144 126.226 C 199.348 124.888,201.600 121.232,201.600 120.616 C 201.600 120.303,201.780 119.936,202.000 119.800 C 202.220 119.664,202.401 119.158,202.402 118.676 C 202.404 118.194,202.674 117.284,203.002 116.654 C 203.788 115.148,203.813 109.295,203.040 107.732 C 202.732 107.110,202.256 105.880,201.983 105.000 C 199.127 95.815,188.241 90.065,176.600 91.594 M182.938 103.100 C 185.371 104.450,186.400 106.493,186.400 109.974 C 186.400 117.793,175.553 120.201,171.687 113.240 C 170.663 111.395,170.586 108.005,171.561 107.680 C 171.802 107.599,172.000 107.221,172.000 106.839 C 172.000 103.671,179.405 101.140,182.938 103.100 M114.200 112.320 C 112.660 112.387,111.229 112.612,111.020 112.820 C 110.811 113.029,110.151 113.200,109.552 113.200 C 108.954 113.200,107.955 113.454,107.332 113.764 C 106.710 114.074,105.190 114.818,103.957 115.419 C 100.212 117.240,95.115 121.885,93.784 124.689 C 93.442 125.410,92.991 126.000,92.781 126.000 C 92.572 126.000,92.400 126.450,92.400 127.000 C 92.400 127.550,92.220 128.000,92.000 128.000 C 91.780 128.000,91.594 128.405,91.587 128.900 C 91.580 129.395,91.310 130.149,90.987 130.576 C 90.664 131.004,90.400 131.938,90.400 132.653 C 90.400 133.368,90.220 134.064,90.000 134.200 C 89.773 134.340,89.600 136.330,89.600 138.800 C 89.600 141.270,89.773 143.260,90.000 143.400 C 90.220 143.536,90.400 144.072,90.400 144.591 C 90.400 145.110,90.653 146.045,90.963 146.668 C 91.273 147.290,91.764 148.340,92.055 149.000 C 93.708 152.750,99.687 158.681,103.683 160.534 C 104.499 160.912,105.274 161.397,105.407 161.611 C 105.539 161.825,106.076 162.000,106.600 162.000 C 107.124 162.000,107.664 162.180,107.800 162.400 C 107.936 162.620,108.532 162.806,109.124 162.814 C 109.716 162.822,110.650 163.086,111.200 163.400 C 112.545 164.169,118.713 164.181,121.146 163.420 C 122.166 163.101,123.810 162.628,124.800 162.368 C 126.935 161.809,133.200 158.794,133.200 158.326 C 133.200 158.147,133.372 158.000,133.583 158.000 C 134.675 158.000,141.200 150.108,141.200 148.787 C 141.200 148.568,141.371 148.077,141.581 147.695 C 143.057 145.001,143.496 143.026,143.859 137.452 C 143.989 135.461,143.905 134.145,143.632 133.872 C 143.394 133.634,143.200 132.754,143.200 131.915 C 143.200 131.076,143.032 130.077,142.826 129.695 C 141.957 128.083,141.200 126.240,141.200 125.739 C 141.200 125.442,141.040 125.200,140.843 125.200 C 140.647 125.200,140.374 124.750,140.236 124.200 C 140.098 123.650,139.808 123.200,139.592 123.200 C 139.377 123.200,139.200 122.970,139.200 122.690 C 139.200 120.756,128.498 113.186,125.780 113.197 C 125.329 113.199,124.789 113.040,124.580 112.845 C 124.144 112.437,118.323 112.143,114.200 112.320 M120.674 126.270 C 123.250 127.771,124.121 129.559,124.135 133.375 C 124.143 135.476,123.987 136.604,123.674 136.709 C 123.413 136.796,123.200 137.222,123.200 137.656 C 123.200 138.570,120.922 140.800,119.987 140.800 C 119.638 140.800,119.004 141.064,118.576 141.387 C 115.694 143.567,107.658 140.003,107.612 136.524 C 107.605 136.042,107.420 135.536,107.200 135.400 C 106.980 135.264,106.800 134.364,106.800 133.400 C 106.800 132.436,106.980 131.536,107.200 131.400 C 107.420 131.264,107.600 130.791,107.600 130.348 C 107.600 129.905,107.825 129.306,108.100 129.016 C 108.375 128.726,108.940 128.019,109.356 127.444 C 109.772 126.870,110.428 126.400,110.813 126.400 C 111.199 126.400,111.614 126.141,111.735 125.825 C 112.242 124.504,118.148 124.798,120.674 126.270 " stroke="none" fill="#ffffff" fill-rule="evenodd"></path><path id="path5" d="M117.377 75.179 C 111.125 77.963,110.018 87.865,114.839 97.879 C 116.482 101.291,117.708 102.534,119.800 102.907 C 124.489 103.742,125.822 104.022,127.125 104.444 C 135.042 107.010,138.797 109.238,143.903 114.399 L 147.082 117.612 147.341 114.546 C 147.483 112.859,147.600 110.699,147.600 109.745 C 147.600 108.069,148.179 105.048,148.816 103.400 C 150.392 99.325,150.376 99.434,149.621 97.748 C 149.042 96.453,142.924 87.943,142.038 87.200 C 141.907 87.090,141.090 86.100,140.223 85.000 C 133.216 76.117,124.086 72.192,117.377 75.179 M176.200 91.164 C 175.540 91.312,177.610 91.433,180.800 91.433 C 183.990 91.433,186.060 91.312,185.400 91.164 C 184.740 91.016,182.670 90.895,180.800 90.895 C 178.930 90.895,176.860 91.016,176.200 91.164 M172.800 92.000 C 172.267 92.345,172.267 92.388,172.800 92.388 C 173.130 92.388,173.670 92.213,174.000 92.000 C 174.533 91.655,174.533 91.612,174.000 91.612 C 173.670 91.612,173.130 91.787,172.800 92.000 M187.200 92.000 C 187.530 92.213,188.160 92.378,188.600 92.366 L 189.400 92.344 188.600 92.000 C 187.404 91.486,186.405 91.486,187.200 92.000 M170.000 93.000 C 169.420 93.332,169.252 93.572,169.600 93.573 C 169.930 93.574,170.549 93.310,170.976 92.987 C 171.964 92.240,171.315 92.248,170.000 93.000 M189.600 92.545 C 189.600 92.625,190.761 93.262,192.180 93.960 C 195.173 95.434,198.589 98.574,200.183 101.318 C 200.796 102.373,201.376 103.158,201.472 103.062 C 201.882 102.652,198.958 98.648,196.925 96.836 C 194.506 94.680,189.600 91.806,189.600 92.545 M167.300 94.396 C 165.960 95.213,165.453 95.929,166.700 95.243 C 167.629 94.733,169.052 93.628,168.800 93.614 C 168.690 93.608,168.015 93.960,167.300 94.396 M163.009 97.991 C 161.931 99.086,161.127 100.055,161.224 100.144 C 161.321 100.234,162.336 99.338,163.479 98.153 C 164.623 96.969,165.426 96.000,165.264 96.000 C 165.102 96.000,164.088 96.896,163.009 97.991 M159.663 102.183 C 159.203 102.962,158.899 103.600,158.986 103.600 C 159.299 103.600,160.883 101.150,160.693 100.960 C 160.586 100.853,160.123 101.404,159.663 102.183 M175.600 103.087 C 173.952 103.874,171.997 105.879,172.007 106.772 C 172.011 107.144,172.337 106.895,172.805 106.164 C 175.636 101.747,183.068 101.754,185.147 106.177 C 188.826 114.003,179.672 120.547,173.300 114.647 C 172.585 113.985,172.000 113.627,172.000 113.852 C 172.000 114.077,172.405 114.619,172.900 115.056 C 178.259 119.795,186.400 116.730,186.400 109.974 C 186.400 103.846,181.094 100.463,175.600 103.087 M280.200 104.877 C 278.660 105.316,276.770 105.829,276.000 106.017 C 275.230 106.205,273.610 106.655,272.400 107.018 C 271.190 107.380,269.570 107.826,268.800 108.008 C 266.938 108.450,263.821 109.287,259.200 110.588 C 257.110 111.177,254.770 111.804,254.000 111.983 C 253.230 112.162,251.340 112.693,249.800 113.162 C 248.260 113.632,246.280 114.221,245.400 114.472 C 242.106 115.408,238.866 116.524,234.400 118.259 C 231.870 119.242,229.260 120.234,228.600 120.464 C 227.940 120.693,227.040 121.037,226.600 121.228 C 226.160 121.419,224.360 122.127,222.600 122.800 C 220.840 123.473,219.040 124.183,218.600 124.377 C 218.160 124.572,216.360 125.309,214.600 126.016 C 209.489 128.069,208.030 128.980,204.000 132.631 C 199.745 136.485,197.746 137.960,195.400 138.975 C 194.520 139.356,193.491 139.830,193.114 140.029 C 192.736 140.227,191.656 140.580,190.714 140.813 C 180.009 143.457,176.789 143.420,168.000 140.551 C 162.904 138.887,155.066 134.587,154.467 133.125 C 153.912 131.773,153.600 133.585,153.600 138.157 C 153.600 143.339,152.786 149.309,151.960 150.180 C 151.762 150.389,151.600 150.803,151.600 151.099 C 151.600 153.438,141.333 164.303,135.600 168.032 C 131.491 170.704,130.904 170.903,121.494 172.796 C 105.158 176.083,86.097 164.301,81.704 148.200 C 81.464 147.320,81.059 145.880,80.803 145.000 C 79.973 142.143,79.828 134.121,80.556 131.342 C 81.384 128.181,81.388 123.952,80.564 122.060 C 78.380 117.044,75.564 112.800,74.419 112.800 C 73.617 112.800,69.382 117.119,64.612 122.802 C 62.858 124.891,61.328 126.690,61.211 126.800 C 60.688 127.292,56.370 132.797,55.054 134.649 C 53.214 137.239,52.652 135.571,61.163 152.800 C 64.261 159.070,67.356 165.190,68.042 166.400 C 68.727 167.610,69.837 169.590,70.509 170.800 C 71.181 172.010,72.055 173.579,72.452 174.288 C 72.848 174.996,73.839 176.796,74.653 178.288 C 75.467 179.779,77.273 183.046,78.667 185.546 C 80.060 188.046,81.200 190.158,81.200 190.239 C 81.200 190.320,81.920 191.562,82.800 193.000 C 83.680 194.438,84.400 195.698,84.400 195.801 C 84.400 195.904,84.955 196.891,85.634 197.994 L 86.869 200.000 136.134 199.972 C 163.230 199.956,185.693 199.821,186.051 199.672 C 186.410 199.522,187.591 198.590,188.676 197.600 C 189.761 196.610,192.230 194.540,194.161 193.000 C 198.355 189.656,204.187 184.968,205.126 184.186 C 205.497 183.878,207.330 182.438,209.200 180.988 C 211.070 179.537,212.871 178.136,213.202 177.875 C 213.534 177.614,215.514 176.144,217.602 174.608 C 219.691 173.073,221.490 171.712,221.600 171.583 C 221.710 171.455,224.410 169.478,227.600 167.190 C 230.790 164.902,233.490 162.927,233.600 162.800 C 233.836 162.527,242.038 157.142,245.200 155.183 C 246.410 154.434,249.513 152.326,252.096 150.498 C 256.523 147.365,264.216 142.400,264.643 142.400 C 264.751 142.400,265.776 141.800,266.922 141.067 C 269.997 139.100,272.490 137.701,277.400 135.188 C 287.443 130.047,290.830 128.159,295.200 125.264 C 297.730 123.588,300.149 121.898,300.575 121.508 C 301.002 121.119,301.480 120.800,301.639 120.800 C 301.968 120.800,306.464 117.231,306.863 116.653 C 307.339 115.964,306.817 115.413,304.695 114.368 C 302.092 113.084,294.746 109.220,292.600 108.004 C 284.780 103.573,284.779 103.573,280.200 104.877 M157.265 106.617 C 156.595 108.088,156.723 108.402,157.447 107.065 C 157.786 106.440,157.988 105.854,157.896 105.763 C 157.805 105.671,157.521 106.056,157.265 106.617 M202.400 106.257 C 202.400 106.691,202.668 107.396,202.995 107.824 C 203.535 108.529,203.548 108.472,203.135 107.200 C 202.572 105.464,202.400 105.243,202.400 106.257 M171.052 108.500 C 170.638 110.046,170.776 111.815,171.375 112.624 C 171.896 113.327,171.918 113.256,171.611 111.872 C 171.417 111.000,171.428 109.800,171.636 109.075 C 172.079 107.530,172.079 107.600,171.647 107.600 C 171.452 107.600,171.185 108.005,171.052 108.500 M156.250 110.450 C 155.944 111.981,156.000 114.984,156.366 116.600 C 156.521 117.286,156.644 115.957,156.652 113.500 C 156.668 108.847,156.629 108.554,156.250 110.450 M114.000 111.982 C 112.901 112.143,114.302 112.247,117.600 112.251 C 121.303 112.255,122.434 112.163,121.200 111.958 C 119.088 111.607,116.514 111.616,114.000 111.982 M109.600 112.800 L 108.600 113.120 109.676 113.160 C 110.268 113.182,110.864 113.020,111.000 112.800 C 111.281 112.345,111.020 112.345,109.600 112.800 M105.600 114.132 C 100.373 116.301,91.532 124.466,92.914 125.848 C 93.034 125.967,93.418 125.461,93.769 124.722 C 95.363 121.362,103.710 114.400,106.143 114.400 C 106.420 114.400,106.996 114.136,107.424 113.813 C 108.483 113.011,108.167 113.067,105.600 114.132 M127.200 113.370 C 127.200 113.459,128.588 114.216,130.283 115.054 C 132.348 116.075,134.290 117.469,136.163 119.276 C 139.393 122.393,140.082 122.672,137.298 119.736 C 134.764 117.063,127.200 112.295,127.200 113.370 M202.774 117.068 C 202.551 117.656,202.427 118.421,202.499 118.768 C 202.572 119.116,202.830 118.635,203.073 117.700 C 203.568 115.797,203.396 115.434,202.774 117.068 M157.283 120.100 C 157.774 121.543,158.800 123.211,158.800 122.564 C 158.800 122.062,157.250 118.800,157.011 118.800 C 156.918 118.800,157.040 119.385,157.283 120.100 M199.831 123.886 C 199.015 125.143,198.684 125.867,199.095 125.495 C 199.831 124.829,201.811 121.600,201.483 121.600 C 201.390 121.600,200.647 122.629,199.831 123.886 M159.964 124.948 C 161.735 127.522,166.800 131.932,166.800 130.900 C 166.800 130.720,166.305 130.280,165.700 129.922 C 164.014 128.925,160.974 125.951,160.158 124.500 C 159.756 123.785,159.278 123.200,159.095 123.200 C 158.911 123.200,159.303 123.987,159.964 124.948 M113.431 125.145 C 112.568 125.285,111.783 125.642,111.685 125.939 C 111.545 126.364,111.680 126.385,112.327 126.039 C 115.796 124.183,121.771 126.333,123.367 130.012 C 123.698 130.775,123.976 131.095,123.984 130.723 C 124.064 127.296,118.453 124.331,113.431 125.145 M109.356 127.444 C 108.940 128.019,108.375 128.726,108.100 129.016 C 107.825 129.306,107.601 129.871,107.602 130.271 C 107.604 130.773,107.796 130.626,108.217 129.800 C 108.553 129.140,109.407 128.110,110.114 127.511 C 110.994 126.766,111.197 126.418,110.756 126.411 C 110.402 126.405,109.772 126.870,109.356 127.444 M195.200 128.632 C 194.210 129.390,192.095 130.641,190.500 131.411 C 187.617 132.803,186.609 133.557,188.689 132.766 C 191.528 131.687,198.660 127.129,197.356 127.227 C 197.160 127.242,196.190 127.874,195.200 128.632 M142.218 128.500 C 142.368 128.995,142.655 129.576,142.856 129.791 C 143.057 130.006,143.019 129.601,142.772 128.891 C 142.265 127.438,141.797 127.108,142.218 128.500 M107.067 131.467 C 106.689 131.844,106.734 135.112,107.121 135.351 C 107.297 135.460,107.432 134.571,107.421 133.375 C 107.409 132.179,107.385 131.201,107.367 131.200 C 107.348 131.200,107.213 131.320,107.067 131.467 M167.420 131.579 C 168.091 132.249,170.800 133.231,170.800 132.805 C 170.800 132.582,170.462 132.400,170.049 132.400 C 169.636 132.400,169.074 132.130,168.800 131.800 C 168.526 131.470,168.018 131.200,167.671 131.200 C 167.273 131.200,167.180 131.340,167.420 131.579 M143.228 132.476 C 143.213 133.068,143.380 133.664,143.600 133.800 C 144.078 134.095,144.078 133.311,143.600 132.200 C 143.293 131.486,143.253 131.515,143.228 132.476 M124.093 133.200 C 124.093 133.970,124.175 134.285,124.276 133.900 C 124.376 133.515,124.376 132.885,124.276 132.500 C 124.175 132.115,124.093 132.430,124.093 133.200 M90.046 132.667 C 90.021 132.924,89.884 133.464,89.741 133.867 C 89.540 134.436,89.594 134.497,89.979 134.142 C 90.252 133.891,90.389 133.351,90.284 132.942 C 90.179 132.534,90.072 132.410,90.046 132.667 M172.600 133.864 C 174.529 134.597,180.414 134.994,182.515 134.532 C 183.607 134.293,182.637 134.200,179.035 134.200 C 175.573 134.200,173.887 134.047,173.540 133.700 C 173.265 133.425,172.581 133.213,172.020 133.228 C 171.157 133.252,171.247 133.350,172.600 133.864 M184.800 133.600 C 184.005 134.114,185.004 134.114,186.200 133.600 L 187.000 133.256 186.200 133.234 C 185.760 133.222,185.130 133.387,184.800 133.600 M123.267 136.200 C 122.668 138.000,121.862 139.103,120.411 140.112 C 119.781 140.551,119.640 140.800,120.022 140.800 C 120.929 140.800,123.200 138.553,123.200 137.656 C 123.200 137.222,123.398 136.801,123.639 136.720 C 123.881 136.640,124.016 136.130,123.939 135.587 C 123.817 134.723,123.734 134.799,123.267 136.200 M107.618 136.600 C 107.640 140.045,115.812 143.567,118.600 141.333 L 119.400 140.692 118.600 141.002 C 114.857 142.450,110.517 140.886,108.507 137.365 C 107.873 136.255,107.615 136.032,107.618 136.600 M143.488 140.933 C 143.330 141.336,143.211 142.056,143.225 142.533 C 143.249 143.356,143.271 143.350,143.640 142.425 C 143.854 141.889,143.973 141.169,143.903 140.825 C 143.799 140.311,143.725 140.330,143.488 140.933 M89.628 143.476 C 89.718 144.515,90.344 145.396,90.372 144.524 C 90.387 144.042,90.220 143.536,90.000 143.400 C 89.780 143.264,89.613 143.298,89.628 143.476 M142.390 145.900 C 142.175 146.505,141.820 147.313,141.600 147.695 C 141.380 148.077,141.205 148.617,141.212 148.895 C 141.219 149.187,141.394 149.110,141.626 148.710 C 142.192 147.740,143.204 144.800,142.972 144.800 C 142.867 144.800,142.605 145.295,142.390 145.900 M90.413 146.104 C 90.388 146.698,92.106 150.027,92.325 149.809 C 92.447 149.687,92.334 149.374,92.073 149.113 C 91.813 148.853,91.600 148.350,91.600 147.996 C 91.600 147.363,90.438 145.511,90.413 146.104 M140.553 150.100 C 140.390 150.375,139.975 151.043,139.629 151.585 C 139.238 152.197,139.190 152.452,139.503 152.259 C 140.020 151.940,141.368 149.600,141.034 149.600 C 140.931 149.600,140.715 149.825,140.553 150.100 M93.386 151.800 C 94.391 153.381,98.817 158.116,99.062 157.871 C 99.132 157.802,98.066 156.581,96.694 155.159 C 95.322 153.737,93.788 152.039,93.285 151.387 C 92.552 150.436,92.572 150.519,93.386 151.800 M136.650 155.205 C 135.357 156.522,134.466 157.600,134.669 157.600 C 135.015 157.600,136.877 155.740,138.575 153.700 C 139.926 152.077,139.044 152.767,136.650 155.205 M99.600 158.146 C 99.600 158.256,100.140 158.730,100.800 159.200 C 101.460 159.670,102.000 159.964,102.000 159.854 C 102.000 159.744,101.460 159.270,100.800 158.800 C 100.140 158.330,99.600 158.036,99.600 158.146 M133.200 158.339 C 133.200 158.526,131.850 159.346,130.200 160.161 C 127.043 161.721,126.151 162.449,128.700 161.384 C 131.760 160.106,134.825 158.000,133.624 158.000 C 133.391 158.000,133.200 158.153,133.200 158.339 M102.400 160.192 C 102.400 160.297,103.139 160.761,104.042 161.221 C 104.945 161.682,105.571 161.877,105.434 161.655 C 105.049 161.032,102.400 159.755,102.400 160.192 M124.800 162.400 C 124.267 162.745,124.267 162.788,124.800 162.788 C 125.130 162.788,125.670 162.613,126.000 162.400 C 126.533 162.055,126.533 162.012,126.000 162.012 C 125.670 162.012,125.130 162.187,124.800 162.400 M109.000 163.166 C 109.440 163.339,110.340 163.599,111.000 163.744 L 112.200 164.007 111.200 163.417 C 110.650 163.093,109.750 162.833,109.200 162.840 C 108.300 162.850,108.280 162.882,109.000 163.166 M121.400 163.200 L 120.600 163.544 121.400 163.544 C 121.840 163.544,122.560 163.389,123.000 163.200 L 123.800 162.856 123.000 162.856 C 122.560 162.856,121.840 163.011,121.400 163.200 M114.707 164.290 C 115.426 164.379,116.506 164.377,117.107 164.286 C 117.708 164.195,117.120 164.122,115.800 164.124 C 114.480 164.126,113.988 164.201,114.707 164.290 " stroke="none" fill="#e3dbdb" fill-rule="evenodd"></path></g></svg>