<svg width="428" height="729" viewBox="0 0 428 729" fill="none" xmlns="http://www.w3.org/2000/svg">
<g clip-path="url(#clip0)">
<path d="M226.58 116.08H0.27C-1.53597 116.08 -3 117.544 -3 119.35V130.17C-3 131.976 -1.53597 133.44 0.27 133.44H226.58C228.386 133.44 229.85 131.976 229.85 130.17V119.35C229.85 117.544 228.386 116.08 226.58 116.08Z" fill="#7A5F00"/>
<path d="M225.08 222.12V682.05C225.077 683.359 224.555 684.613 223.629 685.537C222.703 686.461 221.448 686.98 220.14 686.98H5.36972C4.64518 686.977 3.93009 686.816 3.27396 686.508C2.61782 686.201 2.03633 685.755 1.56972 685.2C0.829184 684.318 0.425272 683.202 0.429724 682.05V222.12C0.429286 220.926 0.863296 219.772 1.6508 218.874C2.43831 217.976 3.52555 217.396 4.70972 217.24C4.92777 217.204 5.14867 217.187 5.36972 217.19H220.14C220.361 217.187 220.582 217.204 220.8 217.24C221.984 217.396 223.071 217.976 223.859 218.874C224.646 219.772 225.08 220.926 225.08 222.12Z" fill="#F9E12B"/>
<path d="M225.08 140.53V210.73C225.082 211.661 224.901 212.583 224.546 213.443C224.191 214.303 223.67 215.084 223.012 215.742C222.354 216.4 221.572 216.922 220.712 217.277C219.852 217.632 218.93 217.813 218 217.81H7.50974C6.54714 217.815 5.59395 217.621 4.70974 217.24C4.01267 216.943 3.37043 216.53 2.80974 216.02C2.59167 215.832 2.38778 215.628 2.19974 215.41C1.05331 214.122 0.423015 212.455 0.429741 210.73V140.53C0.429741 138.652 1.17567 136.852 2.50342 135.524C3.83118 134.196 5.63201 133.45 7.50974 133.45H218C219.877 133.45 221.678 134.196 223.006 135.524C224.334 136.852 225.08 138.652 225.08 140.53V140.53Z" fill="#FFA135"/>
<path d="M0.429688 217.8V223.92V685.85V689.01H1.56969H67.3197V219.59V218.97V217.8V217.19H2.19969H0.429688" fill="#FAC700"/>
<path d="M0.429688 217.8H2.80969H67.3197V217.19V135.23V133.44H0.429688V142.31V212.51V217.19" fill="#FF7805"/>
<path d="M0.429688 216.02V215.41" stroke="#2E3192" stroke-miterlimit="10"/>
<path d="M183.88 215.67V216.28" stroke="#2E3192" stroke-miterlimit="10"/>
<path d="M208.081 116.09H73.2407L0.430664 18.4899V0.679932H123.991L208.081 116.09Z" fill="#000FD4"/>
<path d="M55.6807 116.09H0.430664V40.25L55.6807 116.09Z" fill="#004DDC"/>
<path d="M88.6507 116.09H72.6007L67.3207 108.98L47.3507 82.09L43.4607 76.86L18.2007 42.86L14.3307 37.64L0.430664 18.93V0.77002H2.99066L12.0307 12.94L30.3707 37.64L34.2507 42.86L59.5107 76.86L63.3907 82.09L83.3707 108.98L88.6507 116.09Z" fill="#E6E7E8"/>
<path d="M213.001 116.09H197.081L191.591 108.98L170.841 82.09L166.811 76.86L140.571 42.86L136.541 37.64L117.481 12.94L108.091 0.77002H124.021L133.411 12.94L152.461 37.64L156.491 42.86L182.731 76.86L186.761 82.09L207.511 108.98L213.001 116.09Z" fill="#E6E7E8"/>
<path d="M26.8705 75.4599H6.74047L0.430469 66.6599V40.2499L-0.269531 37.6399L26.8705 75.4599Z" fill="#E6E7E8"/>
<path d="M0.430664 41.27L1.61066 42.86H0.430664V41.27Z" fill="#E6E7E8"/>
<path d="M56.0102 116.09H35.8802L30.6002 108.72L10.6302 80.87L6.74023 75.46H26.8702L30.7602 80.87L50.7302 108.72L56.0102 116.09Z" fill="#E6E7E8"/>
<path d="M17.7607 116.09H11.2507L5.97066 108.98L0.430664 101.52V92.76L12.4807 108.98L17.7607 116.09Z" fill="#D1D3D4"/>
<path d="M168.96 116.09L163.68 108.98L143.71 82.09L139.82 76.86L114.57 42.86L110.69 37.64L92.34 12.94L83.3 0.77002H76.79L85.83 12.94L104.18 37.64L108.06 42.86L133.32 76.86L137.2 82.09L157.18 108.98L162.46 116.09H168.96Z" fill="#E6E7E8"/>
<path d="M123.11 116.09L117.83 108.98L97.8504 82.09L93.9704 76.86L68.7104 42.86L64.8404 37.64L46.4904 12.94L37.4504 0.77002H30.9404L39.9804 12.94L58.3304 37.64L62.2004 42.86L87.4604 76.86L91.3504 82.09L111.32 108.98L116.6 116.09H123.11Z" fill="#E6E7E8"/>
<path d="M1.61066 42.86H0.430664V41.27L1.61066 42.86Z" fill="#E6E7E8"/>
<path d="M154.69 42.8599H18.2001L14.3301 37.6399H150.81L154.69 42.8599Z" fill="#E6E7E8"/>
<path d="M30.7607 82.0901H0.430664V76.8601H26.8707L30.7607 82.0901Z" fill="#E6E7E8"/>
<path d="M183.831 82.0901H47.3509L43.4609 76.8601H179.951L183.831 82.0901Z" fill="#E6E7E8"/>
<path d="M132.471 12.17H0.430664V0H123.431L132.471 12.17Z" fill="#E6E7E8"/>
<path opacity="0.4" d="M50.7307 108.98L56.0107 116.09H0.430664V108.98H50.7307Z" fill="#D1D3D4"/>
<path opacity="0.4" d="M209.09 116.09H72.6003L67.3203 108.98H203.81L209.09 116.09Z" fill="#D1D3D4"/>
<path opacity="0.7" d="M173.17 507.74C204.474 507.74 229.85 485.117 229.85 457.21C229.85 429.303 204.474 406.68 173.17 406.68C141.867 406.68 116.49 429.303 116.49 457.21C116.49 485.117 141.867 507.74 173.17 507.74Z" fill="#49C900"/>
<path opacity="0.7" d="M264.06 490.93C310.595 490.93 348.32 453.206 348.32 406.67C348.32 360.135 310.595 322.41 264.06 322.41C217.524 322.41 179.8 360.135 179.8 406.67C179.8 453.206 217.524 490.93 264.06 490.93Z" fill="#49C900"/>
<path opacity="0.7" d="M221.26 437.23C284.668 437.23 336.07 385.828 336.07 322.42C336.07 259.012 284.668 207.61 221.26 207.61C157.852 207.61 106.45 259.012 106.45 322.42C106.45 385.828 157.852 437.23 221.26 437.23Z" fill="#49C900"/>
<path opacity="0.9" d="M218.77 299.87H214.37C210.891 299.87 208.07 302.691 208.07 306.17V673.57C208.07 677.05 210.891 679.87 214.37 679.87H218.77C222.25 679.87 225.07 677.05 225.07 673.57V306.17C225.07 302.691 222.25 299.87 218.77 299.87Z" fill="#235500"/>
<path opacity="0.9" d="M285.698 380.924L283.165 377.624C281.006 374.812 276.976 374.282 274.163 376.441L212.956 423.424C210.144 425.583 209.614 429.613 211.773 432.425L214.306 435.725C216.465 438.538 220.495 439.068 223.308 436.909L284.515 389.926C287.327 387.767 287.857 383.737 285.698 380.924Z" fill="#235500"/>
<path opacity="0.9" d="M174.891 429.585L171.95 432.527C169.443 435.034 169.443 439.099 171.95 441.606L205.297 474.953C207.804 477.461 211.869 477.461 214.376 474.953L217.318 472.012C219.825 469.505 219.825 465.44 217.318 462.933L183.971 429.585C181.463 427.078 177.399 427.078 174.891 429.585Z" fill="#235500"/>
<path d="M313.68 660.42H128.83V686.97H313.68V660.42Z" fill="#F62600"/>
<path d="M112.5 283.84C112.5 283.84 107.33 301.89 121.16 323.52C130.26 338.004 142.653 350.134 157.33 358.92C164.15 363.25 180.64 373.62 189.13 376.98C197.62 380.34 208.13 384.43 208.13 384.43L208.83 380.43C208.83 380.43 202.91 379.23 191.34 372.94C179.77 366.65 164.85 359.55 160.4 354.75C155.95 349.95 143.95 346.85 131.4 327.97C118.85 309.09 115.77 297.7 115.6 291.97C115.43 286.24 115.6 279.53 115.6 279.53L112.5 283.84Z" fill="#644D00"/>
<path d="M226.529 480.09C226.529 480.09 247.119 485.29 271.049 469.31C287.03 458.851 300.292 444.739 309.739 428.14C314.389 420.44 325.489 401.84 328.979 392.33C332.469 382.82 336.699 371.09 336.699 371.09L332.199 370.42C332.199 370.42 331.059 377.03 324.379 390.05C317.699 403.07 310.209 419.83 304.939 424.9C299.669 429.97 296.619 443.39 275.749 457.9C254.879 472.41 242.109 476.13 235.689 476.49C229.269 476.85 221.689 476.84 221.689 476.84L226.529 480.09Z" fill="#644D00"/>
<path d="M117.81 313.1C117.81 313.1 109.89 315.93 108.81 322.65C107.73 329.37 112.41 331.79 113.81 331.74C115.21 331.69 120.3 330.74 121.37 325.74C122.44 320.74 117.81 313.1 117.81 313.1Z" fill="#FFFA18"/>
<path d="M146.979 351.79C146.979 351.79 139.059 354.61 137.979 361.34C136.899 368.07 141.589 370.47 142.979 370.42C144.369 370.37 149.479 369.42 150.549 364.42C151.619 359.42 146.979 351.79 146.979 351.79Z" fill="#FFFA18"/>
<path d="M186.43 374.46C186.43 374.46 178.52 377.29 177.43 384.02C176.34 390.75 181.04 393.15 182.43 393.1C183.82 393.05 188.92 392.1 189.99 387.1C191.06 382.1 186.43 374.46 186.43 374.46Z" fill="#FFFA18"/>
<path d="M248.31 475.76C248.31 475.76 242.81 482.12 245.17 488.52C247.53 494.92 252.81 494.69 254.01 493.96C255.21 493.23 259.14 489.85 257.62 484.96C256.1 480.07 248.31 475.76 248.31 475.76Z" fill="#FFFA18"/>
<path d="M291.31 447.99C291.31 447.99 285.98 454.49 288.51 460.82C291.04 467.15 296.31 466.82 297.51 466.02C298.71 465.22 302.51 461.78 300.88 456.95C299.25 452.12 291.31 447.99 291.31 447.99Z" fill="#FFFA18"/>
<path d="M321.429 401.16C321.429 401.16 317.779 408.73 321.729 414.29C325.679 419.85 330.729 418.29 331.679 417.23C332.629 416.17 335.569 411.92 332.819 407.62C330.069 403.32 321.429 401.16 321.429 401.16Z" fill="#FFFA18"/>
<path d="M345.92 708.48L347.52 708.71C348.47 708.86 349.441 708.63 350.222 708.068C351.003 707.506 351.53 706.659 351.69 705.71L382.89 505.5C382.957 505.032 382.931 504.555 382.813 504.098C382.695 503.64 382.487 503.21 382.201 502.833C381.916 502.456 381.558 502.14 381.149 501.903C380.74 501.665 380.289 501.511 379.82 501.45L378.22 501.22C377.271 501.07 376.301 501.301 375.522 501.863C374.742 502.425 374.217 503.272 374.06 504.22L342.85 704.43C342.784 704.898 342.811 705.374 342.929 705.831C343.048 706.289 343.256 706.718 343.541 707.094C343.827 707.471 344.184 707.787 344.592 708.025C345 708.263 345.451 708.417 345.92 708.48V708.48Z" fill="#00A79D"/>
<path d="M279.05 705.29L280.67 705.65C281.6 705.864 282.578 705.705 283.391 705.205C284.205 704.706 284.79 703.907 285.02 702.98L331.08 505.45C331.179 504.992 331.187 504.518 331.103 504.057C331.018 503.595 330.843 503.155 330.587 502.762C330.331 502.368 330 502.029 329.613 501.765C329.225 501.5 328.789 501.315 328.33 501.22L326.71 500.87C325.781 500.655 324.805 500.814 323.991 501.311C323.178 501.809 322.592 502.605 322.36 503.53L276.31 701.06C276.206 701.518 276.195 701.992 276.277 702.455C276.359 702.917 276.533 703.358 276.788 703.753C277.044 704.147 277.375 704.486 277.764 704.75C278.152 705.014 278.589 705.198 279.05 705.29V705.29Z" fill="#00A79D"/>
<path d="M290.82 645.29V647.86C290.82 648.76 291.55 649.49 292.45 649.49H352.99C353.891 649.49 354.62 648.76 354.62 647.86V645.29C354.62 644.39 353.891 643.66 352.99 643.66H292.45C291.55 643.66 290.82 644.39 290.82 645.29Z" fill="#00A79D"/>
<path d="M298.58 609.11V611.68C298.58 612.58 299.31 613.31 300.21 613.31H360.75C361.65 613.31 362.38 612.58 362.38 611.68V609.11C362.38 608.21 361.65 607.48 360.75 607.48H300.21C299.31 607.48 298.58 608.21 298.58 609.11Z" fill="#00A79D"/>
<path d="M308.1 563.71V566.28C308.1 567.18 308.829 567.91 309.73 567.91H370.27C371.17 567.91 371.9 567.18 371.9 566.28V563.71C371.9 562.81 371.17 562.08 370.27 562.08H309.73C308.829 562.08 308.1 562.81 308.1 563.71Z" fill="#00A79D"/>
<path d="M317.811 528.05V530.74C317.811 531.607 318.513 532.31 319.381 532.31H375.061C375.928 532.31 376.631 531.607 376.631 530.74V528.05C376.631 527.183 375.928 526.48 375.061 526.48H319.381C318.513 526.48 317.811 527.183 317.811 528.05Z" fill="#00A79D"/>
<path d="M285.33 681.47V684.04C285.33 684.94 286.06 685.67 286.96 685.67H347.5C348.4 685.67 349.13 684.94 349.13 684.04V681.47C349.13 680.57 348.4 679.84 347.5 679.84H286.96C286.06 679.84 285.33 680.57 285.33 681.47Z" fill="#00A79D"/>
<path d="M348.97 649.53V652.1C348.97 653 349.7 653.73 350.6 653.73H411.14C412.04 653.73 412.77 653 412.77 652.1V649.53C412.77 648.63 412.04 647.9 411.14 647.9H350.6C349.7 647.9 348.97 648.63 348.97 649.53Z" fill="#00505F"/>
<path d="M341.209 613.35V615.92C341.209 616.82 341.939 617.55 342.839 617.55H403.379C404.279 617.55 405.009 616.82 405.009 615.92V613.35C405.009 612.45 404.279 611.72 403.379 611.72H342.839C341.939 611.72 341.209 612.45 341.209 613.35Z" fill="#00505F"/>
<path d="M331.689 567.95V570.52C331.689 571.42 332.419 572.15 333.319 572.15H393.859C394.76 572.15 395.489 571.42 395.489 570.52V567.95C395.489 567.05 394.76 566.32 393.859 566.32H333.319C332.419 566.32 331.689 567.05 331.689 567.95Z" fill="#00505F"/>
<path d="M326.959 532.29V534.98C326.959 535.847 327.662 536.55 328.529 536.55H384.209C385.076 536.55 385.779 535.847 385.779 534.98V532.29C385.779 531.423 385.076 530.72 384.209 530.72H328.529C327.662 530.72 326.959 531.423 326.959 532.29Z" fill="#00505F"/>
<path d="M321.979 502.35V505.04C321.979 505.907 322.682 506.61 323.549 506.61H379.309C380.177 506.61 380.879 505.907 380.879 505.04V502.35C380.879 501.483 380.177 500.78 379.309 500.78H323.549C322.682 500.78 321.979 501.483 321.979 502.35Z" fill="#00505F"/>
<path d="M354.459 685.71V688.28C354.459 689.18 355.189 689.91 356.089 689.91H416.629C417.529 689.91 418.259 689.18 418.259 688.28V685.71C418.259 684.81 417.529 684.08 416.629 684.08H356.089C355.189 684.08 354.459 684.81 354.459 685.71Z" fill="#00505F"/>
<path d="M326.06 501.089L324.459 501.331C322.46 501.634 321.085 503.499 321.388 505.498L352.591 711.579C352.894 713.578 354.759 714.952 356.758 714.65L358.36 714.407C360.358 714.105 361.733 712.239 361.431 710.241L330.227 504.159C329.924 502.161 328.059 500.786 326.06 501.089Z" fill="#00505F"/>
<path d="M377.54 500.731L375.921 501.097C373.961 501.541 372.731 503.491 373.175 505.451L419.219 708.773C419.663 710.734 421.613 711.963 423.573 711.519L425.192 711.152C427.153 710.708 428.383 708.759 427.939 706.799L381.894 503.477C381.45 501.516 379.501 500.287 377.54 500.731Z" fill="#00505F"/>
<path d="M243.85 607.66C241.44 607.21 237.65 608.2 233.85 608.66C232.36 608.82 225.74 610.2 224.66 610.46C222.87 610.91 226.5 606.46 227.22 604.76L227.9 603.14C228.126 602.601 228.132 601.994 227.918 601.451C227.703 600.907 227.284 600.469 226.75 600.23L206.05 590.91C204.21 590.41 206.05 590.4 202.7 590.48C202.59 590.48 201.42 590.98 201.31 591L200.14 591.22C199.916 591.256 199.699 591.331 199.5 591.44C197.88 592.29 190.5 596.37 190.25 600.23C190 603.81 193.2 610.92 194.32 613.23C194.558 613.73 194.976 614.123 195.49 614.33L214.12 622.01C214.79 622.011 215.458 621.961 216.12 621.86C215.79 621.99 215.52 622.08 215.37 622.13C216.11 621.93 216.27 621.87 216.13 621.86C217.141 621.531 218.104 621.067 218.99 620.48C220.136 619.624 221.09 618.537 221.79 617.29C221.912 617.059 222.075 616.853 222.27 616.68C224.964 614.352 228.294 612.886 231.83 612.47C237.93 611.79 241.39 610.6 243.33 611.35C243.91 611.57 245 612.78 245.57 610.41C246.24 607.66 245.43 607.93 243.85 607.66ZM196.98 609.3L195.64 608.5C195.64 608.5 192.32 601.99 193.73 600.07C195.14 598.15 197.47 594.58 199.43 594.33C200.3 594.22 201.11 594.13 201.75 594.07C202.614 593.992 203.484 594.118 204.29 594.44L205.01 594.73L196.98 609.3Z" fill="#EE2A7B"/>
<path d="M248.69 612.88C248.69 612.88 249.03 607.13 256.52 608.32C264.01 609.51 266.77 616.14 263.84 617.37C262.23 618.05 258.84 619.37 256.66 615.47C254.48 611.57 248.69 612.88 248.69 612.88Z" fill="#CFF4FF"/>
<path d="M245.94 622.41L247.15 623.61L249.8 626.26C251.27 628.4 252.7 630.1 249.57 631.79C246.44 633.48 246.22 632.27 246.81 629.26C247.4 626.25 245.94 622.41 245.94 622.41Z" fill="#CFF4FF"/>
<path d="M151.529 535.856L147.818 533.976C145.601 532.852 142.893 533.739 141.77 535.956L139.89 539.667C138.766 541.884 139.653 544.591 141.87 545.715L145.581 547.595C147.798 548.718 150.506 547.832 151.629 545.615L153.509 541.904C154.632 539.687 153.746 536.979 151.529 535.856Z" fill="#B16E00"/>
<path d="M145.489 584.17C145.489 584.17 159.729 602.55 163.489 602.55C167.249 602.55 187.659 600.17 187.659 600.17C191.069 601.17 196.509 603.23 197.879 600.85C199.249 598.47 200.599 594.72 197.879 594.38C196.046 594.142 194.227 593.809 192.429 593.38C192.429 593.38 190.049 595.38 188.339 595.08C186.629 594.78 171.999 595.77 169.619 595.08C167.239 594.39 161.789 588.28 160.429 586.23C159.069 584.18 155.319 577.38 155.319 577.38L145.489 584.17Z" fill="#B16E00"/>
<path d="M169.259 573.28L162.789 577.36C164.747 580.45 166.908 583.407 169.259 586.21C172.999 590.64 175.049 592.68 175.049 592.68L178.789 595.2L183.569 595.05L169.259 573.28Z" fill="#B16E00"/>
<path d="M174.583 528.139C179.086 519.251 175.532 508.396 166.644 503.893C157.757 499.39 146.901 502.944 142.398 511.832L139.42 517.71C134.917 526.598 138.471 537.453 147.359 541.956C156.246 546.459 167.101 542.905 171.604 534.017L174.583 528.139Z" fill="#B16E00"/>
<path d="M156.99 721.41V725.85C156.975 726.22 157.099 726.583 157.337 726.866C157.576 727.149 157.913 727.333 158.28 727.38C162.44 727.68 175.39 728.5 177.37 727.28C177.895 727.01 178.354 726.627 178.714 726.158C179.074 725.689 179.325 725.147 179.45 724.57C179.512 724.2 179.437 723.819 179.24 723.5C178.99 723.08 178.57 722.5 178.08 722.5C177.29 722.5 173.95 722.6 172.8 722.12C171.65 721.64 164.57 720.41 163.8 719.64C163.21 719.06 159.8 719.45 157.49 719.64C156.74 719.71 156.99 720.66 156.99 721.41Z" fill="#EF4136"/>
<path d="M124.34 722.48V726.93C124.322 727.298 124.444 727.659 124.681 727.941C124.919 728.223 125.254 728.405 125.62 728.45C129.78 728.75 142.73 729.57 144.72 728.35C145.243 728.078 145.7 727.695 146.058 727.226C146.416 726.758 146.666 726.216 146.79 725.64C146.851 725.274 146.78 724.898 146.59 724.58C146.34 724.16 145.91 723.58 145.42 723.58C144.63 723.58 141.29 723.67 140.15 723.19C139.01 722.71 131.91 721.49 131.15 720.71C130.56 720.13 127.15 720.53 124.84 720.71C124.09 720.79 124.34 721.66 124.34 722.48Z" fill="#EF4136"/>
<path d="M120.61 617.02C120.61 617.02 117.01 626.47 117.13 629.02C117.25 631.57 120.83 664.26 122.62 668.09C124.41 671.92 121.62 670.64 122.88 688.51C124.14 706.38 125 716.6 125 716.6V720.43H130.54L138.71 675.75L141.77 655.19L144.77 634.89L156.37 617.89L156.98 617L120.61 617.02Z" fill="#2E3192"/>
<path d="M163.98 719.4H157.01L149.43 677.79L141.27 658.53L144.8 634.89L156.4 617.88L162.79 668.71L163.98 719.4Z" fill="#2E3192"/>
<path d="M150.88 546.72C150.88 546.72 147.07 548.72 143.63 546.6C141.637 545.456 140.092 543.668 139.25 541.53H136.25C136.25 541.53 129.96 541.28 128.85 542.98C127.74 544.68 124.16 546.72 124.67 552.17C125.18 557.62 124.67 560 124.67 560C124.422 561.173 123.917 562.276 123.19 563.23C122 564.77 121.49 564.43 120.47 568C119.45 571.57 117.06 599 117.75 604.77C118.154 608.335 118.11 611.936 117.62 615.49C117.62 615.49 116.04 615.66 118.94 616.34C121.84 617.02 119.94 617.53 123.02 618.04C126.1 618.55 127.24 619.57 134.07 619.4C139.493 619.352 144.905 618.898 150.26 618.04C153.66 617.36 157.92 617.53 158.43 616.04C158.94 614.55 157.64 598.27 157.64 598.27C157.64 598.27 152.3 592.55 151.28 591.36C150.26 590.17 145.66 584.36 145.61 584.28C145.56 584.2 156.21 577.4 156.21 577.4L157.07 579.27L158.16 582.39L172.43 571.57C172.43 571.57 161.43 556.26 159.53 554.38C157.63 552.5 150.88 546.72 150.88 546.72Z" fill="#FF5862"/>
<path d="M152.63 520.51C152.63 520.51 154.63 512.6 157.01 511.32C159.39 510.04 173.93 518.57 176.49 518.65C179.05 518.73 185.69 518.08 187.73 515.85C189.77 513.62 192.07 510.85 187.73 508C183.39 505.15 181.09 506.47 179.3 506.47C177.51 506.47 174.96 504.17 170.37 501.87C165.78 499.57 153.26 495.23 149.43 496C145.6 496.77 140.75 499.83 139.73 503.15C138.71 506.47 135.39 509.28 135.9 513.36C136.41 517.44 136.53 523.26 137.07 525.62C137.61 527.98 141.27 527.92 141.27 527.92L145.49 522.92C145.49 522.92 142.54 523.06 143.3 519.75C144.06 516.44 144.5 514.89 146.71 514.13C148.92 513.37 150.2 514.13 150.2 515.66C150.2 517.19 152.63 520.51 152.63 520.51Z" fill="#3C2415"/>
<path d="M329.6 379.23C330.6 386.72 329.6 384 329.6 389.45C329.6 394.9 327.9 398.98 331.98 404.09C336.06 409.2 339.39 407.92 339.39 407.92L345.54 407.25L346.02 414.8H361.67L360.54 389.8L342.2 379.21L339.43 371.4H332.96L329.6 379.23Z" fill="#C26700"/>
<path d="M293.17 419.15C293.17 419.15 291.64 421.15 291.9 422.98C292.16 424.81 292.9 427.83 294.96 428.85C297.02 429.87 298.03 432.17 298.79 433.45C299.55 434.73 302.88 442.89 304.41 444.94C305.94 446.99 306.96 451.57 307.98 453.62C309 455.67 313.6 461.02 314.37 461.28C315.14 461.54 319.73 460 321 457.7C322.27 455.4 334.54 439.83 334 437.53C333.46 435.23 326.85 430.64 326.85 430.64C326.85 430.64 322.25 434.47 321.49 436.26C320.73 438.05 317.4 442.38 316.89 444.17C316.471 445.317 315.96 446.427 315.36 447.49C315.1 448.26 312.04 444.17 311.02 442.13C310 440.09 303.1 431.13 302.85 429.13C302.6 427.13 303.1 424.02 302.85 422.49C302.6 420.96 302.08 420.96 299.78 419.17C297.48 417.38 293.17 419.15 293.17 419.15Z" fill="#C26700"/>
<path d="M322.539 413.66C319.979 410 318.959 409.49 317.429 409.49C315.899 409.49 313.839 409.57 312.959 411.57C312.079 413.57 311.029 414.57 312.959 416.38C314.889 418.19 315.189 419.19 317.199 419.96C318.691 420.42 320.137 421.016 321.519 421.74C322.789 422.51 326.879 428.38 326.879 428.38L331.979 420.72C330.054 420.312 328.175 419.713 326.369 418.93C325.113 418.295 323.987 417.43 323.049 416.38L322.539 413.66Z" fill="#C26700"/>
<path d="M344.14 479.51C342.486 487.579 341.579 495.784 341.43 504.02C341.43 515.93 342.12 536.02 342.8 540.79C343.48 545.56 341.43 545.55 341.43 553.04C341.43 560.53 344.56 605.13 346.06 605.81C347.56 606.49 354.06 605.81 354.06 605.81C354.06 605.81 355.69 572.52 357.46 566.66C359.23 560.8 359.46 548.78 358.05 546.74C356.64 544.7 359.17 524.74 359.51 522.4C359.85 520.06 364.61 512.19 363.93 508.79C363.25 505.39 362.02 517.64 364 522.06C365.98 526.48 367.34 546.91 368.36 549.64C369.38 552.37 370.74 556.45 370.74 556.45C370.74 556.45 369.86 554.45 372.34 565.3C374.82 576.15 379.59 605.81 379.59 605.81H385.72C385.72 605.81 385.97 572.9 385.72 565.3C385.39 555.3 379.72 546.16 380.95 546.57C380.95 546.57 380.95 539.42 380.95 535.34C380.95 531.26 382.32 505.34 382.66 502.34C383 499.34 381.66 493.49 380.95 489.06C380.24 484.63 376.53 475.78 376.53 475.78L344.14 479.51Z" fill="#002B5F"/>
<path d="M344.75 413.66C344.75 413.66 345.26 414.84 351.22 414.84C357.18 414.84 361.77 414.34 362.79 413.66C363.81 412.98 367.56 414.85 369.43 420.13C371.3 425.41 375.73 437.83 376.75 442.93C377.77 448.03 379.81 467.61 379.3 473.06C378.79 478.51 382.2 476.13 378.79 478.51C375.38 480.89 342.54 480.89 341 479.36C339.46 477.83 336.58 451.96 336.07 448.72C335.779 446.396 335.779 444.044 336.07 441.72C336.072 442.349 335.881 442.965 335.524 443.483C335.167 444.001 334.659 444.398 334.07 444.62C332.01 445.3 320.95 434.74 320.95 432.87C320.95 431 332.18 419.94 335.59 417.38C339 414.82 344.75 413.66 344.75 413.66Z" fill="#0080E9"/>
<path d="M370.5 379.66C369.93 380.325 369.195 380.828 368.37 381.12C368.918 382.023 369.165 383.077 369.077 384.13C368.989 385.182 368.57 386.18 367.88 386.98C366.766 387.542 365.902 388.499 365.458 389.665C365.014 390.83 365.022 392.12 365.48 393.28C364.879 393.988 364.093 394.514 363.21 394.8C362.327 395.086 361.381 395.121 360.48 394.9C360.136 395.789 359.546 396.562 358.778 397.126C358.01 397.691 357.097 398.025 356.146 398.088C355.195 398.151 354.246 397.941 353.41 397.482C352.575 397.024 351.887 396.336 351.43 395.5C350.566 396.153 349.512 396.504 348.43 396.5C347.104 396.5 345.832 395.973 344.894 395.036C343.957 394.098 343.43 392.826 343.43 391.5C343.425 390.891 343.537 390.287 343.76 389.72C343.196 389.942 342.595 390.054 341.99 390.05C340.664 390.05 339.392 389.523 338.454 388.586C337.517 387.648 336.99 386.376 336.99 385.05C336.99 384.618 337.047 384.187 337.16 383.77H336.99C335.983 383.773 334.998 383.473 334.165 382.907C333.331 382.341 332.688 381.537 332.32 380.6C332.203 380.61 332.086 380.61 331.97 380.6C330.644 380.6 329.372 380.073 328.434 379.135C327.496 378.198 326.97 376.926 326.97 375.6C327.853 374.671 328.346 373.437 328.346 372.155C328.346 370.873 327.853 369.639 326.97 368.71C326.968 367.599 327.337 366.519 328.018 365.64C328.699 364.762 329.653 364.136 330.73 363.86C330.661 363.531 330.627 363.196 330.63 362.86C330.63 361.534 331.156 360.262 332.094 359.324C333.032 358.387 334.304 357.86 335.63 357.86C336.135 357.859 336.638 357.937 337.12 358.09C337.221 357.828 337.342 357.574 337.48 357.33C337.807 356.757 338.245 356.254 338.768 355.85C339.291 355.447 339.888 355.151 340.526 354.98C341.164 354.809 341.829 354.766 342.484 354.854C343.139 354.941 343.769 355.157 344.34 355.49C345.092 355.919 345.717 356.54 346.15 357.29C346.52 356.656 347.026 356.111 347.63 355.694C348.235 355.277 348.924 354.999 349.649 354.878C350.374 354.758 351.116 354.799 351.823 354.998C352.53 355.197 353.184 355.549 353.74 356.03C354.267 356.479 354.693 357.035 354.99 357.66C355.793 357.376 356.656 357.301 357.496 357.444C358.337 357.587 359.126 357.943 359.791 358.477C360.455 359.011 360.972 359.706 361.292 360.496C361.612 361.285 361.725 362.144 361.62 362.99C362.651 362.753 363.732 362.849 364.705 363.265C365.678 363.681 366.494 364.396 367.036 365.305C367.577 366.215 367.816 367.273 367.718 368.327C367.62 369.38 367.19 370.376 366.49 371.17C366.4 371.28 366.3 371.38 366.2 371.48C367.199 371.375 368.206 371.573 369.091 372.049C369.976 372.525 370.697 373.257 371.16 374.148C371.623 375.04 371.806 376.05 371.687 377.047C371.567 378.045 371.15 378.983 370.49 379.74L370.5 379.66Z" fill="#3C2415"/>
</g>
<defs>
<clipPath id="clip0">
<rect width="428" height="729" fill="white"/>
</clipPath>
</defs>
</svg>
