<svg width="619" height="337" viewBox="0 0 619 337" fill="none" xmlns="http://www.w3.org/2000/svg">
<g clip-path="url(#clip0)">
<path d="M63.3403 240.98C66.4003 255.28 69.4703 268.04 72.5303 270.6C75.5903 273.15 72.1903 273.49 72.5303 278.26C72.8703 283.03 72.3803 285.07 73.8203 293.24C75.2603 301.41 75.9403 295.96 75.2503 304.81C74.5703 313.66 76.1203 318.09 75.5203 319.79C74.9203 321.49 80.0203 323.19 80.0203 323.19H86.1503L86.4903 319.59C86.4903 319.59 90.9203 302.76 91.6003 300.38C92.2803 298 93.3003 276.89 93.9803 275.53C94.6603 274.17 94.6603 267.7 93.9803 264.64C93.3003 261.58 94.3203 242.85 94.4903 240.98C94.6603 239.11 94.4903 236.04 94.4903 236.04L63.3403 240.98Z" fill="#FFAA54"/>
<path d="M13.9804 246.94C17.3804 262.26 16.7004 260.9 18.0704 266.68C19.4404 272.46 20.1104 274.85 19.7704 275.87C19.4304 276.89 14.5805 278.95 13.9005 281.34C13.2205 283.73 10.5804 289.83 10.9204 291.53C11.2604 293.23 10.5804 300.72 9.2204 304.47C7.8604 308.21 6.50041 312.64 5.48041 316.04C4.46041 319.44 3.44043 323.19 3.44043 323.19L15.0104 320.47C15.0104 320.47 18.2404 311.79 19.6104 309.41C20.9704 307.03 23.5204 300.56 24.8904 298.52C26.2504 296.48 29.3204 291.54 29.3204 291.54C29.3204 291.54 32.6904 288.69 32.6904 287.67C32.6904 286.65 35.1104 284.05 35.4504 281.33C35.7904 278.61 37.1504 274.18 38.5104 271.8C39.8704 269.42 46.0004 257.5 47.0204 255.12C48.0404 252.74 51.1104 244.91 51.4504 241.16C51.7904 237.42 22.1704 241.16 22.1704 241.16L13.9804 246.94Z" fill="#FFAA54"/>
<path d="M102.49 23.6202C101.81 20.5602 101.47 20.9002 99.7702 17.8302C98.0702 14.7702 98.0702 11.0202 97.7302 8.98019C97.3902 6.94019 93.9902 6.2602 97.7302 3.8702C101.47 1.4902 103.86 -0.55979 107.94 0.13021C112.03 0.81021 115.09 2.51023 115.43 7.28023C115.77 12.0502 113.73 15.7902 113.05 19.8802C112.37 23.9702 112.37 25.6702 112.37 30.0902C112.37 34.5102 113.39 41.3202 113.05 44.3902C112.71 47.4502 112.03 52.9002 110.33 55.9602C108.63 59.0202 107.61 61.0702 107.61 64.1302C107.61 67.1902 108.97 70.9402 107.61 74.3402C106.25 77.7402 101.48 92.0402 99.7802 94.0802C98.0802 96.1202 90.2502 109.4 90.2502 109.4L73.9102 94.7602C73.9102 94.7602 81.0602 87.6102 83.1002 85.2302C85.1402 82.8502 91.6102 79.1002 92.9702 75.3602C94.3302 71.6202 97.4002 68.5502 97.7402 65.1502C98.0802 61.7502 98.0802 50.8502 99.1002 48.1302C100.11 45.4002 102.49 23.6202 102.49 23.6202Z" fill="#FFAA54"/>
<path d="M46.0306 103.52L44.8206 103.6C38.7906 103.98 33.6006 99.4002 33.2206 93.3702L32.8306 87.0903C32.4506 81.0603 37.0306 75.8702 43.0606 75.4902L44.2706 75.4102C50.3006 75.0302 55.4906 79.6103 55.8706 85.6403L56.2606 91.9202C56.6406 97.9502 52.0606 103.14 46.0306 103.52Z" fill="#FFAA54"/>
<path d="M44.7804 91.1302L42.3404 91.2802C32.2304 91.9202 23.5104 84.2302 22.8804 74.1202L22.2203 63.6502C21.5803 53.5402 29.2704 44.8202 39.3804 44.1902L41.8204 44.0402C51.9304 43.4002 60.6504 51.0902 61.2804 61.2002L61.9404 71.6702C62.5704 81.7802 54.8904 90.4902 44.7804 91.1302Z" fill="#FFAA54"/>
<path d="M26.1503 77.6703L25.1902 77.7303C22.4602 77.9003 20.1102 75.8303 19.9402 73.1003L19.7803 70.6303C19.6103 67.9003 21.6802 65.5503 24.4102 65.3803L25.3702 65.3203C28.1002 65.1503 30.4502 67.2203 30.6202 69.9503L30.7803 72.4203C30.9403 75.1503 28.8703 77.5003 26.1503 77.6703Z" fill="#FFAA54"/>
<path d="M58.5505 92.4703C57.5305 92.4303 56.5605 92.8003 55.7705 93.4403C54.6205 94.3803 52.4804 95.6403 49.0404 95.9503C43.4204 96.4603 32.4405 92.8903 32.4405 92.8903C32.4405 92.8903 25.8004 94.9403 21.7204 96.4603C17.6304 97.9803 16.3605 99.3503 11.7605 109.4C7.16047 119.44 0.0204836 130.17 0.0204836 135.27C0.0204836 140.37 0.530484 149.57 0.0204836 152.38C-0.489516 155.19 2.29044 158.02 2.29044 158.02L54.1505 152.63L77.6405 129.4C77.6405 129.4 93.6605 114 92.1905 109.4C90.7205 104.8 82.4905 98.5103 82.4905 98.5103L75.2904 90.8203C71.7204 90.8603 68.9505 92.3903 68.9505 92.3903C68.9505 92.3903 72.2705 91.8803 65.3805 92.3903C62.7705 92.5803 60.1805 92.5403 58.5505 92.4703Z" fill="#8A0070"/>
<path d="M17.0403 171.02C17.0403 171.02 10.9104 171.7 8.53039 177.49C6.15039 183.28 4.10035 188.38 3.42035 195.87C2.74035 203.36 4.78034 220.04 6.48034 226.17C8.18034 232.3 13.9703 246.94 13.9703 246.94C13.9703 246.94 18.9703 241.45 24.4103 240.88C29.8503 240.31 39.9904 239.47 43.0004 239.49C46.0104 239.52 51.4203 241.15 51.4203 241.15L54.8204 230.94L57.7104 219.37C57.7104 219.37 57.7104 228.56 58.3904 230.77C59.0704 232.98 59.4104 237.24 60.4304 238.77C61.4504 240.3 63.3204 243.03 63.3204 243.03C63.3204 243.03 62.1704 242.93 69.9604 240.82C77.7504 238.7 84.4304 237.59 88.3404 238.1C92.2504 238.61 94.5403 239.5 94.5403 239.5C94.5403 239.5 98.8904 220.06 98.5504 215.8C98.2104 211.54 99.6104 201.84 98.5704 197.42C97.5304 193 95.3204 182.61 95.3204 182.61L17.8704 171.04H17.0403V171.02Z" fill="#00386A"/>
<path d="M104.701 125.06H13.8906V188.89H104.701V125.06Z" fill="#FEFFFF"/>
<path d="M75.2404 322.41V328.49C75.2404 329.59 76.0005 330.5 77.0005 330.57C82.6905 330.98 100.41 332.11 103.13 330.44C105.22 329.16 105.82 327.64 105.97 326.73C106.06 326.23 105.94 325.71 105.68 325.28C105.34 324.7 104.76 323.94 104.08 323.94C103 323.94 98.4305 324.07 96.8705 323.41C95.3105 322.75 87.5004 321.31 86.4204 320.25C85.6104 319.46 78.9905 319.77 75.8905 320.02C74.9005 320.09 75.2404 321.32 75.2404 322.41Z" fill="#EF4136"/>
<path d="M3.48039 322.41V328.49C3.48039 329.59 4.2404 330.5 5.2404 330.57C10.9304 330.98 28.6504 332.11 31.3704 330.44C33.4604 329.16 34.0604 327.64 34.2104 326.73C34.3004 326.23 34.1804 325.71 33.9204 325.28C33.5804 324.7 33.0004 323.94 32.3204 323.94C31.2404 323.94 26.6704 324.07 25.1104 323.41C23.5504 322.75 17.2604 320.9 16.1804 319.84C15.3704 319.05 7.2304 319.77 4.1204 320.02C3.1404 320.09 3.48039 321.32 3.48039 322.41Z" fill="#EF4136"/>
<path d="M17.5704 166.22L10.9703 168.39C6.66033 169.81 2.01039 167.46 0.590387 163.14L0.360345 162.45C-1.05965 158.14 1.29035 153.49 5.61035 152.07L12.2104 149.9C16.5204 148.48 21.1704 150.83 22.5904 155.15L22.8204 155.84C24.2404 160.16 21.8904 164.81 17.5704 166.22Z" fill="#FFAA54"/>
<path d="M27.4206 55.2503C36.1006 55.9203 33.8406 63.3303 33.8406 63.3303L56.1006 60.2003L63.8706 59.1103C63.8706 59.1103 66.7006 55.9103 66.4106 51.2803C66.1306 46.8003 64.9206 46.8303 63.5606 44.4903C62.2006 42.1503 58.7106 38.4303 54.6906 37.7803C50.6706 37.1203 41.7906 35.5603 36.3906 36.5103C31.0006 37.4603 23.9006 40.3303 20.2506 44.8003C16.5906 49.2703 14.1106 54.3703 13.5806 59.2603C13.0606 64.1403 15.0806 70.2803 16.1606 72.9403C17.2406 75.6003 25.4906 79.9303 25.4906 79.9303L22.3206 75.2903C21.8506 74.1003 21.0606 71.6103 21.2806 70.3503C21.6006 68.5403 21.8606 65.4203 23.8206 65.4403C26.6206 65.4703 28.5306 70.5003 28.5306 70.5003L27.4206 55.2503Z" fill="#550900"/>
<path d="M19.2104 49.7302C25.9759 49.7302 31.4604 44.2457 31.4604 37.4802C31.4604 30.7147 25.9759 25.2302 19.2104 25.2302C12.445 25.2302 6.96045 30.7147 6.96045 37.4802C6.96045 44.2457 12.445 49.7302 19.2104 49.7302Z" fill="#550900"/>
<path d="M130.74 188.89C130.74 188.89 139.42 218 140.44 224.63C141.46 231.27 144.61 235.61 144.95 237.4C145.29 239.19 144.01 241.49 143.5 245.83C142.99 250.17 143.76 251.96 142.22 259.36C140.69 266.76 137.6 279.02 137.87 284.38C138.14 289.74 135.33 300.47 135.59 303.02C135.85 305.57 135.59 307.11 135.59 307.11H143.5C143.5 307.11 156.01 272.64 158.56 265.49C161.11 258.34 163.67 243.1 164.69 239.49C165.71 235.88 167.75 220.13 167.5 208.98C167.24 197.83 166.22 197.32 166.22 197.32C166.22 197.32 174.65 219.02 179.75 226.43C184.85 233.84 188.43 243.79 189.45 244.05C190.47 244.31 190.47 244.56 190.47 250.69C190.47 256.82 193.79 272.9 197.62 283.12C201.45 293.34 204 305.84 204 305.84L213.45 305.58C213.45 305.58 208.6 246.6 208.85 244.3C209.11 242 205.28 232.3 202.47 222.34C199.66 212.38 190.98 188.89 190.98 188.89H130.74V188.89Z" fill="#414042"/>
<path d="M154.4 90.8202H151.24C147.77 90.8202 144.96 88.0102 144.96 84.5402V76.2102C144.96 72.7402 147.77 69.9302 151.24 69.9302H154.4C157.87 69.9302 160.68 72.7402 160.68 76.2102V84.5402C160.68 88.0002 157.87 90.8202 154.4 90.8202Z" fill="#FFE2B1"/>
<path d="M159.39 79.5902L155.8 79.1701C144.95 77.9001 137.18 68.0801 138.45 57.2301L139.47 48.5102C140.74 37.6602 150.56 29.8901 161.41 31.1601L165 31.5802C175.85 32.8502 183.62 42.6702 182.35 53.5202L181.33 62.2401C180.06 73.0901 170.24 80.8602 159.39 79.5902Z" fill="#FFE2B1"/>
<path d="M144.96 84.54C144.96 84.54 145.51 88.6201 150.28 88.9401C155.88 89.3201 157.13 89.68 158.45 88.3C159.77 86.93 160.68 83.8301 160.68 83.8301C160.68 83.8301 166.74 86.8901 172.11 89.5101C177.47 92.1301 177.98 90.3401 180.54 95.1901C183.09 100.04 183.09 101.06 184.37 106.42C185.65 111.78 186.92 116.12 186.92 116.12H120.54C120.54 116.12 120.03 111.27 120.54 106.42C121.05 101.57 119.26 100.04 122.58 97.7401C125.9 95.4401 133.56 90.8101 133.56 90.8101L144.96 84.54Z" fill="#EC698C"/>
<path d="M235.43 111.79H118.32V192.98H235.43V111.79Z" fill="#FEFFFF"/>
<path d="M118.91 163C114.31 163.29 110.35 159.8 110.06 155.2L109.93 153.16C109.64 148.56 113.13 144.6 117.73 144.31C122.33 144.02 126.29 147.51 126.58 152.11L126.71 154.15C127 158.75 123.5 162.71 118.91 163Z" fill="#FFE2B1"/>
<path d="M236.01 160.45C231.41 160.74 227.45 157.25 227.16 152.65L227.03 150.61C226.74 146.01 230.23 142.05 234.83 141.76C239.43 141.47 243.39 144.96 243.68 149.56L243.81 151.6C244.1 156.2 240.61 160.16 236.01 160.45Z" fill="#FFE2B1"/>
<path d="M149.51 48.2102C148.49 45.4202 147.21 44.7602 145.94 44.6402C144.67 44.5102 141.48 48.9702 141.98 52.5502C142.48 56.1402 143.51 55.3702 143.26 57.1502C143.12 58.1002 138.4 61.3902 138.4 61.3902C138.4 61.3902 135.6 58.1202 135.6 54.7002C135.6 51.2802 136.37 40.5302 137.13 37.4802C137.9 34.4302 136.62 34.1702 139.17 30.8502C141.72 27.5302 142.06 26.2502 144.96 25.2302C147.86 24.2102 150.41 21.6602 157.3 22.6802C164.19 23.7002 161.9 23.4502 165.21 23.9602C168.52 24.4702 170.57 24.7302 174.91 26.7702C179.25 28.8102 179.51 28.3002 182.57 31.8802C185.63 35.4502 184.61 35.9702 184.87 40.0502C185.13 44.1402 182.12 55.3902 182.12 55.3902C182.12 55.3902 183.63 47.0802 180.4 44.2702C177.17 41.4602 172.83 44.6802 170.7 45.0402C169.93 45.1702 168.3 44.0302 165.47 40.8302C162.53 37.5102 158.32 39.0402 156.15 41.3402C154.02 43.5902 151.33 52.1402 149.77 53.2102C148.57 54.0102 149.51 48.2102 149.51 48.2102Z" fill="black"/>
<path d="M203.75 307.05V312.68C203.75 313.7 204.46 314.54 205.38 314.61C210.65 314.99 227.05 316.03 229.56 314.49C231.5 313.3 232.05 311.9 232.19 311.05C232.27 310.58 232.16 310.1 231.93 309.71C231.61 309.18 231.08 308.47 230.45 308.47C229.45 308.47 225.22 308.59 223.77 307.98C222.32 307.37 215.1 306.04 214.1 305.05C213.35 304.32 207.23 304.6 204.35 304.83C203.44 304.9 203.75 306.04 203.75 307.05Z" fill="#EF4136"/>
<path d="M134.93 307.17V312.8C134.93 313.82 135.64 314.66 136.56 314.73C141.83 315.11 158.23 316.15 160.74 314.61C162.68 313.42 163.23 312.02 163.37 311.17C163.45 310.7 163.34 310.22 163.11 309.83C162.79 309.3 162.26 308.59 161.63 308.59C160.63 308.59 156.4 308.71 154.95 308.1C153.5 307.49 147.69 305.78 146.69 304.8C145.94 304.07 138.41 304.73 135.53 304.96C134.61 305.02 134.93 306.16 134.93 307.17Z" fill="#EF4136"/>
<path d="M131.95 192.98L138.15 214.94L140.44 224.64C140.44 224.64 140.83 227.43 141.71 229.72C142.59 232.01 143.28 233.55 143.88 234.83C144.48 236.11 144.95 237.4 144.95 237.4C144.95 237.4 145.46 236.89 145.55 235.36C145.64 233.83 145.83 235.7 145.04 231.79C141.24 212.95 142.16 209.09 141.98 207.47C141.8 205.85 142.01 200.04 142.24 197.7C142.5 195.02 142.24 192.98 142.24 192.98H131.95V192.98Z" fill="#201F00"/>
<path d="M3.42969 199.62L4.8797 216.05C4.8797 216.05 7.2697 229.01 9.0097 233.77C10.7497 238.52 13.9797 246.94 13.9797 246.94C13.9797 246.94 17.8997 243.47 20.0297 242.31C22.1597 241.15 25.7997 240.74 25.7997 240.74L3.42969 199.62Z" fill="#201F54"/>
<path d="M407.55 242.19C407.55 243.08 407.4 243.65 407.09 244.13C406.79 244.62 406.33 245.01 405.72 245.56C405.72 245.56 404.45 245.81 404.45 245.82C404.27 245.86 402.56 246.14 399.98 247.09C397.93 247.83 397.16 247.98 395.76 249.01C395.12 249.38 394.18 250.02 393.26 250.69C392.34 251.35 391.44 252.03 390.91 252.49C390.9 252.49 390.08 253.06 389.25 253.62C388.42 254.18 387.6 254.75 387.59 254.75C382.07 259.43 382.91 256.38 381.89 263.68C380.91 270.74 383.15 284.07 383.31 284.99C383.31 285 383.31 285.01 383.31 285.01C385.02 288.73 385.97 292.86 385.97 297.22C385.97 305.94 382.16 313.77 376.11 319.13C376.11 319.13 376.62 325.6 376.11 328.49C375.59 331.38 372.02 332.5 372.02 332.5C372.02 332.5 367.93 333.52 363.85 330.45C361.83 328.94 360.69 327.43 360.05 326.29C358.68 326.46 357.29 326.52 355.87 326.47C354.99 327.78 353.68 329.43 352.11 330.45C349.17 332.37 348.02 331.99 345.85 332.66C343.68 333.33 342.02 332.75 340.11 330.71C338.19 328.67 338.32 327.01 337.93 323.69C337.76 322.23 337.92 320.87 338.15 319.8C331.76 314.52 327.61 306.6 327.43 297.84C327.35 293.86 328.06 290.05 329.42 286.57C329.42 286.57 329.43 286.55 329.45 286.51C329.46 286.49 329.47 286.47 329.48 286.45C329.64 286.1 330.16 284.96 330.92 283.34C330.92 283.33 330.92 283.33 330.93 283.32C333.68 277.38 339.45 264.93 341.72 260.11C342.92 257.56 344.01 254.92 344.9 252.65C346.18 249.38 346.28 249.13 346.36 248.88C346.37 248.87 346.99 246.79 347.93 245.63C348.58 244.82 349.33 244.08 350.14 243.43L351.08 242.38C350.18 241.47 349.07 239.86 349.42 237.77C349.68 236.24 351.78 233.37 352.29 233.11C353.33 232.58 355.46 232.03 356.57 232.54C358.16 233.26 359.69 234.9 360.62 236.04C361.48 235.65 362.4 235.38 363.34 235.23C365.63 234.87 369.6 234.32 374.74 233.9C377.04 233.72 379.05 233.37 380.84 233.25C388.92 232.7 392.2 233.9 392.2 233.9H392.21L401.55 236.19C404.86 236.19 407.55 238.88 407.55 242.19Z" fill="#A7A9AC"/>
<path d="M343.84 295.55L343.53 295.69C342.24 296.26 340.73 295.67 340.17 294.38L316.79 241.07C316.22 239.78 316.81 238.27 318.1 237.71L318.41 237.57C319.7 237 321.21 237.59 321.77 238.88L345.15 292.19C345.72 293.47 345.13 294.98 343.84 295.55Z" fill="#603913"/>
<path d="M355.69 222.64L277.52 256.92C275.79 257.68 273.77 256.89 273.01 255.16L252.52 208.44C251.76 206.71 252.55 204.69 254.28 203.93L332.45 169.65C334.18 168.89 336.2 169.68 336.96 171.41L357.45 218.13C358.21 219.86 357.43 221.88 355.69 222.64Z" fill="white"/>
<path d="M341.17 261.13C341.17 261.13 355.21 273.4 360.83 276.08C366.45 278.75 371.81 280.76 375.64 280.9C379.47 281.04 383.05 280.53 383.05 280.53C383.05 280.53 383.03 282.82 383.61 284.2C384.2 285.59 385.56 289.86 385.72 290.78C385.89 291.7 386.19 294.31 386.19 294.31C386.19 294.31 366.35 290.78 362.05 288.63C358.28 286.75 347.43 275.05 345.64 272.35C343.85 269.65 339.97 263.69 339.97 263.69L341.17 261.13Z" fill="#231F20"/>
<path d="M341.95 259.31C341.95 259.31 354.18 269.05 359.68 271.87C364.91 274.55 368.36 276.15 372.36 276.55C376.43 276.96 382.68 277.72 382.68 277.72L382.97 279.97C382.97 279.97 373.79 279.58 369.06 278.29C364.43 277.02 348.68 266.57 345.83 264.32C343.15 262.21 341.13 261.12 341.13 261.12L341.95 259.31Z" fill="white"/>
<path d="M339.54 264.62C339.54 264.62 341.93 269.91 347.21 276.08C352.49 282.24 358.44 287.9 360.32 288.65C362.19 289.4 365.94 291.69 370.19 292.71C374.45 293.73 376.02 293.97 379.25 294.32C382.48 294.68 383.87 295 385.12 294.99C386.37 294.98 386.26 294.99 386.26 294.99L386.18 298.59C386.18 298.59 371.2 297.45 366.44 294.99C361.67 292.54 354.01 287.69 351.72 284.96C349.42 282.24 346.26 278.38 344.66 276.08C343.05 273.78 340.26 268.11 339.54 267.13C338.82 266.15 338.97 265.84 338.97 265.84L339.54 264.62Z" fill="white"/>
<path d="M336.803 285.94C341.917 283.448 344.581 278.388 342.754 274.64C340.926 270.892 335.3 269.874 330.186 272.367C325.073 274.86 322.409 279.919 324.236 283.667C326.063 287.415 331.69 288.433 336.803 285.94Z" fill="#BCBEC0"/>
<path d="M597.349 319.19C597.349 319.19 602.459 323.37 601.949 326.26C601.429 329.15 593.639 329.83 593.639 329.83C597.249 329.35 598.579 330.71 587.619 328.55C585.149 328.06 581.929 327.49 581.289 326.35C579.919 326.52 578.529 326.58 577.109 326.53C576.229 327.84 574.919 329.49 573.349 330.51C570.409 332.43 569.259 332.05 567.089 332.72C564.919 333.39 563.259 332.81 561.349 330.77C559.429 328.73 559.559 327.07 559.169 323.75C558.999 322.29 559.159 320.93 559.389 319.86C552.999 314.58 548.849 306.66 548.669 297.9C548.589 293.92 549.299 290.11 550.659 286.63C550.659 286.63 550.669 286.61 550.689 286.57C550.699 286.55 550.709 286.53 550.719 286.51C550.779 286.38 550.889 286.15 551.039 285.82C551.289 285.26 551.679 284.43 552.159 283.4C552.159 283.39 552.159 283.39 552.169 283.38C553.449 280.63 555.359 276.49 557.289 272.36V272.35C558.729 269.24 560.169 266.14 561.339 263.63H603.149C603.139 263.66 601.949 263.59 601.939 263.63C602.389 265.8 602.829 268.85 602.999 271.75C603.359 278 604.439 284.42 604.549 285.05C604.549 285.06 604.549 285.07 604.549 285.07C605.049 286.14 605.479 287.25 605.829 288.39C606.729 291.19 607.209 294.18 607.209 297.28C607.209 306 603.399 313.83 597.349 319.19Z" fill="#A7A9AC"/>
<path d="M548.67 298.08C548.67 298.08 548.59 303.57 550.19 307.06C551.3 309.49 553.17 313.25 553.99 314.37C554.81 315.48 557.32 318.38 558.08 319.06C558.84 319.74 558.83 319.82 560.21 320.89C561.57 321.95 564 323.69 566.08 324.51C567.82 325.19 571.87 326.04 571.87 326.04C571.87 326.04 576.38 327.02 576.64 326.93C576.9 326.84 581.05 326.88 581.31 326.71C581.57 326.54 589.13 321.19 589.13 321.19L580.77 322.34C580.77 322.34 577.79 322.39 576.77 322.3C575.37 322.17 573.66 321.83 571.92 321.24C569.5 320.42 564.58 318.51 562.38 316.73C560.03 314.82 555.78 310.92 554.75 309.24C552.23 305.12 548.67 298.08 548.67 298.08Z" fill="#939598"/>
<path d="M616.78 226.24C616.81 226.42 616.77 226.79 616.72 226.97C616.67 227.16 616.62 227.6 616.45 227.9C616.35 228.27 615.92 229.2 615.92 229.2C615.77 229.32 615.7 230.62 612.44 231.98C610.33 232.86 609.05 235.21 608.25 237.01C607.84 237.71 606.97 239.28 606.44 240.46C605.91 241.63 604.79 243.9 604.53 244.67C604.52 244.67 604.01 246.22 603.51 247.22C603.01 248.23 601.73 251.32 601.72 251.33C600.36 254.73 599.61 254.63 602.23 263.95L563.92 279.96C563.84 278.02 563.77 276.33 563.72 275.03C563.58 271.4 558.18 273.95 558.46 270.79C558.81 266.88 561.18 259.95 561.13 259.61C561.22 255.95 562.05 256.43 562.35 254.63C562.56 253.38 562.89 252.17 563.32 251.06L563.68 249.4C562.39 248.59 560.56 246.99 559.85 244.25C559.34 242.24 559.88 237.88 560.22 237.36C560.93 236.31 562.64 234.84 563.93 235.07C565.77 235.38 568.01 236.87 569.44 237.95C570.05 237.14 570.77 236.47 571.58 235.93C573.54 234.63 576.97 232.48 581.56 230.06C583.62 228.99 585.32 227.81 586.93 226.99C594.2 223.32 597.85 223.61 597.85 223.61H597.86L607.92 222.34C612.28 222.28 616.02 221.85 616.78 226.24Z" fill="#A7A9AC"/>
<path d="M559.159 265.67C559.159 265.67 574.269 276.6 580.109 278.75C585.949 280.9 591.469 282.4 595.299 282.2C599.129 281.99 602.639 281.15 602.639 281.15C602.639 281.15 602.829 283.43 603.539 284.75C604.249 286.08 605.999 290.21 606.249 291.11C606.499 292.01 607.039 294.58 607.039 294.58C607.039 294.58 586.959 292.88 582.479 291.14C578.549 289.61 566.669 278.96 564.649 276.44C562.619 273.92 558.209 268.34 558.209 268.34L559.159 265.67Z" fill="#231F20"/>
<path d="M559.769 263.79C559.769 263.79 572.839 272.37 578.569 274.67C584.029 276.86 587.609 278.13 591.629 278.17C595.719 278.21 602.019 278.39 602.019 278.39L602.509 280.6C602.509 280.6 593.339 281.06 588.509 280.2C583.779 279.36 567.139 270.39 564.089 268.42C561.229 266.57 559.109 265.67 559.109 265.67L559.769 263.79Z" fill="white"/>
<path d="M557.859 269.29C557.859 269.29 560.729 274.34 566.549 279.99C572.369 285.64 578.819 290.73 580.749 291.3C582.679 291.87 586.619 293.82 590.949 294.44C595.279 295.06 596.869 295.16 600.119 295.21C603.369 295.26 604.779 295.46 606.029 295.34C607.279 295.22 607.169 295.24 607.169 295.24L607.419 298.83C607.419 298.83 592.399 299.07 587.429 297.06C582.459 295.05 574.389 290.93 571.849 288.43C569.309 285.93 565.809 282.38 563.999 280.23C562.189 278.08 558.879 272.7 558.079 271.79C557.279 270.88 557.399 270.55 557.399 270.55L557.859 269.29Z" fill="white"/>
<path d="M609.579 309.83L554.759 311.91C553.639 311.95 552.699 311.08 552.659 309.96L551.609 282.28C551.569 281.16 552.439 280.22 553.559 280.18L608.379 278.1C609.499 278.06 610.439 278.93 610.479 280.05L611.529 307.73C611.569 308.85 610.699 309.79 609.579 309.83Z" fill="white"/>
<path d="M554.839 285.52C553.639 286.05 552.339 286.13 551.039 285.82C548.189 285.17 545.369 282.7 543.789 279.12C541.509 273.91 542.749 268.32 546.569 266.65C550.219 265.06 554.889 267.59 557.289 272.36C557.409 272.58 557.519 272.81 557.619 273.05C559.909 278.27 558.659 283.85 554.839 285.52Z" fill="#BCBEC0"/>
<path d="M616.58 280.77C615.04 282.72 613.13 284.11 611.19 284.84C608.68 285.79 606.12 285.64 604.27 284.18C601 281.59 601.21 275.88 604.73 271.41C605.8 270.06 607.05 268.98 608.36 268.2C611.39 266.4 614.76 266.2 617.04 268C620.31 270.59 620.11 276.3 616.58 280.77Z" fill="#BCBEC0"/>
<path d="M497.27 298.32C495.05 297.21 493.3 295.62 492.19 293.87C490.75 291.61 490.38 289.07 491.43 286.96C493.3 283.23 498.94 282.28 504.03 284.82C505.57 285.59 506.88 286.6 507.91 287.72C510.29 290.32 511.17 293.58 509.87 296.18C508 299.9 502.37 300.87 497.27 298.32Z" fill="#BCBEC0"/>
<path d="M492.91 320.99C491.89 322.05 491.37 323.48 491.52 324.94C491.72 326.79 491.889 329.34 491.589 331.01C491.419 331.95 491.11 332.95 490.77 333.86C489.81 336.42 486.95 337.7 484.4 336.73C482.05 335.83 479.75 334.26 478.15 332.91C477.12 332.05 476.529 331.53 476.089 331.07C475.419 330.35 474.559 329.84 473.599 329.61C473.309 329.54 473.009 329.46 472.709 329.37C471.289 328.97 469.77 329.22 468.56 330.06C467.64 330.7 466.559 331.46 465.209 332.02C462.669 333.06 460.09 333.77 458.06 334.06C455.81 334.39 456.07 334.37 455.75 334.36C454.14 334.35 452.28 332.89 452.31 328.61C452.32 327.91 452.48 326.9 452.67 325.93C453 324.28 452.419 322.61 451.229 321.43C445.999 316.23 442.69 309.1 442.53 301.3C442.45 297.32 443.16 293.51 444.52 290.03C444.52 290.03 444.53 290.01 444.55 289.97C444.56 289.95 444.569 289.93 444.579 289.91C444.639 289.78 444.75 289.55 444.9 289.22C445.15 288.66 445.54 287.83 446.02 286.8C446.02 286.79 446.02 286.79 446.03 286.78C447.31 284.03 449.22 279.89 451.15 275.76V275.75C452.08 273.73 453.02 271.72 453.88 269.87C454.69 268.14 456.419 267.03 458.329 267.03H497.01C497 267.06 495.81 266.99 495.8 267.03C496.25 269.2 496.689 272.25 496.859 275.15C497.219 281.4 498.3 287.82 498.41 288.45C498.41 288.46 498.41 288.47 498.41 288.47C498.91 289.54 499.339 290.65 499.689 291.79C500.589 294.59 501.069 297.58 501.069 300.68C501.079 308.58 497.97 315.73 492.91 320.99Z" fill="#A7A9AC"/>
<path d="M510.65 229.67C510.68 229.85 510.64 230.22 510.59 230.4C510.54 230.59 510.49 231.03 510.32 231.33C510.22 231.7 509.79 232.63 509.79 232.63C509.64 232.75 509.57 234.05 506.31 235.41C504.2 236.29 502.92 238.64 502.12 240.44C501.71 241.14 500.84 242.71 500.31 243.89C499.78 245.06 498.66 247.33 498.4 248.1C498.39 248.1 497.88 249.65 497.38 250.65C496.88 251.66 495.6 254.75 495.59 254.76C494.23 258.16 493.48 258.06 496.1 267.38L457.79 283.39C457.71 281.45 457.64 279.76 457.59 278.46C457.45 274.83 452.05 277.38 452.33 274.22C452.68 270.31 455.05 263.38 455 263.04C455.09 259.38 455.92 259.86 456.22 258.06C456.43 256.81 456.76 255.6 457.19 254.49L457.55 252.83C456.26 252.02 454.43 250.42 453.72 247.68C453.21 245.67 453.75 241.31 454.09 240.79C454.8 239.74 456.51 238.27 457.8 238.5C459.64 238.81 461.88 240.3 463.31 241.38C463.92 240.57 464.64 239.9 465.45 239.36C467.41 238.06 470.84 235.91 475.43 233.49C477.49 232.42 479.19 231.24 480.8 230.42C488.07 226.75 491.72 227.04 491.72 227.04H491.73L501.79 225.77C506.15 225.7 509.89 225.28 510.65 229.67Z" fill="#A7A9AC"/>
<path d="M454.75 262.58C454.75 262.58 469.25 274.31 474.96 276.77C480.67 279.23 486.11 281.03 489.94 281.03C493.77 281.03 497.33 280.38 497.33 280.38C497.33 280.38 497.39 282.66 498.03 284.03C498.67 285.4 500.19 289.61 500.39 290.53C500.59 291.44 500.99 294.04 500.99 294.04C500.99 294.04 481.03 291.26 476.65 289.28C472.81 287.54 461.52 276.26 459.63 273.64C457.74 271.02 453.63 265.2 453.63 265.2L454.75 262.58Z" fill="#231F20"/>
<path d="M455.46 260.73C455.46 260.73 468.05 270 473.65 272.61C478.98 275.09 482.49 276.55 486.5 276.81C490.58 277.07 496.86 277.59 496.86 277.59L497.23 279.83C497.23 279.83 488.05 279.79 483.27 278.67C478.59 277.58 462.46 267.73 459.52 265.6C456.76 263.6 454.7 262.58 454.7 262.58L455.46 260.73Z" fill="white"/>
<path d="M453.25 266.13C453.25 266.13 455.84 271.33 461.35 277.29C466.86 283.25 473.02 288.68 474.92 289.35C476.82 290.02 480.65 292.18 484.94 293.04C489.23 293.9 490.81 294.07 494.06 294.31C497.31 294.54 498.7 294.81 499.95 294.76C501.2 294.71 501.09 294.72 501.09 294.72L501.15 298.32C501.15 298.32 486.14 297.75 481.28 295.48C476.42 293.21 468.59 288.65 466.19 286.02C463.79 283.39 460.49 279.65 458.79 277.41C457.1 275.17 454.09 269.61 453.34 268.67C452.59 267.73 452.73 267.4 452.73 267.4L453.25 266.13Z" fill="white"/>
<path d="M448.71 288.94C447.51 289.47 446.21 289.55 444.91 289.24C442.06 288.59 439.24 286.12 437.66 282.54C435.38 277.33 436.62 271.74 440.44 270.07C444.09 268.48 448.76 271.01 451.16 275.78C451.28 276 451.39 276.23 451.49 276.47C453.78 281.69 452.53 287.27 448.71 288.94Z" fill="#BCBEC0"/>
<path d="M460.25 286.09C460.25 286.09 454.38 277.09 440.57 272.77C426.76 268.45 419.03 270.21 414.78 270.86C410.53 271.51 405.45 282.95 400.99 284.65C396.53 286.35 395.41 288.44 395.41 288.44L398.57 291.58C398.57 291.58 398.09 290.39 401.51 287.75C407.01 283.5 411.61 273.63 414.02 272.88C417.3 271.86 425.02 270.22 437.25 273.81C449.48 277.4 453.44 281.23 455.8 283.65C458.16 286.07 460.83 289.1 460.83 289.1L460.25 286.09Z" fill="#1EED00"/>
<path d="M414.1 272.04C414.1 272.04 410.79 274.73 411.4 278.13C412.01 281.53 414.67 281.88 415.33 281.63C415.99 281.37 418.26 280.04 417.93 277.47C417.6 274.89 414.1 272.04 414.1 272.04Z" fill="#25FF05"/>
<path d="M441.23 274.17C441.23 274.17 444.85 271.93 444.68 268.48C444.51 265.03 441.92 264.34 441.23 264.51C440.54 264.68 438.12 265.72 438.12 268.31C438.12 270.9 441.23 274.17 441.23 274.17Z" fill="#25FF05"/>
<path d="M455.99 284.64C455.99 284.64 452.101 286.37 451.801 289.81C451.501 293.25 453.971 294.29 454.681 294.21C455.391 294.13 457.921 293.43 458.271 290.87C458.631 288.31 455.99 284.64 455.99 284.64Z" fill="#25FF05"/>
<path d="M452.64 283.99C452.64 283.99 449.89 280.73 446.5 281.41C443.11 282.08 442.81 284.75 443.08 285.4C443.35 286.06 444.73 288.3 447.29 287.92C449.85 287.54 452.64 283.99 452.64 283.99Z" fill="#25FF05"/>
<path d="M398.59 294.14C398.59 294.14 395.3 291.44 392.09 292.71C388.88 293.99 389.06 296.66 389.45 297.26C389.84 297.86 391.6 299.81 394.04 298.97C396.49 298.14 398.59 294.14 398.59 294.14Z" fill="#25FF05"/>
<path d="M463.88 283.02C463.69 283.75 461.73 285.8 458.44 284.21C458.15 284.07 457.88 283.9 457.63 283.71C457.61 284.18 457.54 284.62 457.4 285.02C456.49 287.61 453.71 287.79 452.96 287.72C452.23 287.65 449.97 286.12 450.85 282.76C448.6 283.39 446.83 281.71 446.41 281.17C445.95 280.57 445.52 277.77 448.79 276.13C449.48 275.79 450.19 275.63 450.88 275.6C450.35 275.1 449.9 274.54 449.64 273.95C448.54 271.44 450.44 269.41 451.03 268.95C451.63 268.49 454.43 268.06 456.07 271.33C456.42 272.04 456.58 272.78 456.6 273.49C456.87 273.04 457.19 272.65 457.55 272.34C459.64 270.57 462.13 271.81 462.74 272.25C463.35 272.69 464.56 275.25 461.89 277.75C461.78 277.85 461.67 277.94 461.56 278.03C461.69 278.09 461.81 278.14 461.93 278.21C464.34 279.52 464.07 282.29 463.88 283.02Z" fill="#FF3977"/>
<path d="M436.6 273.44C436.41 274.17 434.45 276.22 431.16 274.63C430.87 274.49 430.6 274.32 430.35 274.13C430.33 274.6 430.26 275.04 430.12 275.44C429.21 278.03 426.43 278.21 425.68 278.14C424.95 278.07 422.69 276.54 423.57 273.18C421.32 273.81 419.55 272.13 419.13 271.59C418.67 270.99 418.24 268.19 421.51 266.55C422.2 266.21 422.91 266.05 423.6 266.02C423.07 265.52 422.62 264.96 422.36 264.37C421.26 261.86 423.16 259.83 423.75 259.37C424.35 258.91 427.15 258.48 428.79 261.75C429.14 262.46 429.3 263.2 429.32 263.91C429.59 263.46 429.91 263.07 430.27 262.76C432.36 260.99 434.85 262.23 435.46 262.67C436.07 263.11 437.28 265.67 434.61 268.17C434.5 268.27 434.39 268.36 434.28 268.45C434.41 268.51 434.53 268.56 434.65 268.63C437.06 269.94 436.79 272.71 436.6 273.44Z" fill="#F9ED32"/>
<path d="M410.35 294.26C410.16 294.99 408.2 297.04 404.91 295.45C404.62 295.31 404.35 295.14 404.1 294.95C404.08 295.42 404.01 295.86 403.87 296.26C402.96 298.85 400.18 299.03 399.43 298.96C398.7 298.89 396.44 297.36 397.32 294C395.07 294.63 393.3 292.95 392.88 292.41C392.42 291.81 391.99 289.01 395.26 287.37C395.95 287.03 396.66 286.87 397.35 286.84C396.82 286.34 396.37 285.78 396.11 285.19C395.01 282.68 396.91 280.65 397.5 280.19C398.1 279.73 400.9 279.3 402.54 282.57C402.89 283.28 403.05 284.02 403.07 284.73C403.34 284.28 403.66 283.89 404.02 283.58C406.11 281.81 408.6 283.05 409.21 283.49C409.82 283.93 411.03 286.49 408.36 288.99C408.25 289.09 408.14 289.18 408.03 289.27C408.16 289.33 408.28 289.38 408.4 289.45C410.81 290.76 410.54 293.53 410.35 294.26Z" fill="#C920FF"/>
<path d="M577.94 239.32C577.97 239.93 576.96 241.98 574.04 241.55C573.78 241.51 573.53 241.45 573.3 241.36C573.4 241.73 573.45 242.08 573.44 242.42C573.36 244.63 571.27 245.44 570.68 245.57C570.1 245.69 568 245.06 567.86 242.26C566.28 243.29 564.52 242.42 564.06 242.11C563.56 241.76 562.56 239.71 564.68 237.66C565.13 237.23 565.64 236.94 566.16 236.75C565.63 236.49 565.15 236.17 564.81 235.78C563.36 234.11 564.33 232.1 564.67 231.6C565.02 231.1 567.07 230.1 569.12 232.22C569.56 232.68 569.86 233.21 570.05 233.75C570.15 233.34 570.3 232.96 570.5 232.64C571.68 230.78 573.89 231.13 574.47 231.32C575.04 231.51 576.59 233.19 575.14 235.75C575.08 235.85 575.02 235.95 574.95 236.04C575.06 236.05 575.17 236.06 575.28 236.09C577.45 236.52 577.91 238.71 577.94 239.32Z" fill="#FF0545"/>
<path d="M327.429 297.66C327.429 297.66 327.349 303.15 328.949 306.64C330.059 309.07 331.929 312.83 332.749 313.95C333.569 315.07 336.079 317.96 336.839 318.64C337.599 319.32 337.589 319.4 338.969 320.47C340.329 321.53 342.759 323.27 344.839 324.09C346.579 324.77 350.629 325.62 350.629 325.62C350.629 325.62 355.139 326.6 355.399 326.51C355.659 326.42 359.809 326.46 360.069 326.29C360.329 326.12 367.889 320.77 367.889 320.77L359.529 321.92C359.529 321.92 356.549 321.97 355.529 321.88C354.129 321.75 352.419 321.41 350.679 320.82C348.259 320 343.339 318.09 341.139 316.31C338.789 314.4 334.539 310.5 333.509 308.82C330.989 304.7 327.429 297.66 327.429 297.66Z" fill="#939598"/>
<path d="M442.54 300.87C442.54 300.87 442.46 306.36 444.06 309.85C445.17 312.28 447.04 316.04 447.86 317.16C448.68 318.27 451.19 321.17 451.95 321.85C452.7 322.53 452.7 322.61 454.08 323.68C455.44 324.74 457.87 326.48 459.95 327.3C461.69 327.98 465.74 328.83 465.74 328.83C465.74 328.83 470.25 329.81 470.51 329.72C470.77 329.63 474.92 329.67 475.18 329.5C475.44 329.33 483 323.98 483 323.98L474.64 325.13C474.64 325.13 471.66 325.18 470.64 325.09C469.24 324.96 467.53 324.62 465.79 324.03C463.37 323.21 458.45 321.3 456.25 319.52C453.9 317.61 449.65 313.71 448.62 312.03C446.1 307.92 442.54 300.87 442.54 300.87Z" fill="#939598"/>
<path d="M338.15 319.8C338.15 319.8 337.46 319.91 337.93 323.69C338.4 327.47 338.31 326.98 338.31 326.98C338.31 326.98 338.73 329.03 339.42 329.87C340.11 330.71 341.509 332.06 342.089 332.34C342.669 332.62 343.8 332.9 343.8 332.9C343.8 332.9 345.219 332.83 345.849 332.66C346.479 332.49 345.89 332.77 345.17 331.79C344.45 330.81 344.49 331.02 344 329.94C343.51 328.86 342.47 327.05 342.4 326.26C342.33 325.47 342.93 322.83 342.93 322.83L338.15 319.8Z" fill="#939598"/>
<path d="M473.77 329.22C473.77 329.22 475.749 330.61 478.589 333.15C481.429 335.69 481.04 335.38 481.04 335.38C481.04 335.38 482.7 336.65 483.77 336.83C484.85 337.01 486.79 337.11 487.41 336.94C488.03 336.77 489.069 336.24 489.069 336.24C489.069 336.24 490.099 335.26 490.459 334.71C490.819 334.16 490.56 334.77 489.38 334.5C488.19 334.24 488.36 334.37 487.28 333.87C486.2 333.37 484.22 332.69 483.66 332.14C483.09 331.59 478.88 325.66 478.88 325.66L473.77 329.22Z" fill="#939598"/>
<path d="M559.369 319.84C559.369 319.84 558.679 319.95 559.149 323.73C559.619 327.51 559.529 327.02 559.529 327.02C559.529 327.02 559.949 329.06 560.639 329.91C561.329 330.76 562.729 332.1 563.309 332.38C563.889 332.66 565.019 332.94 565.019 332.94C565.019 332.94 566.439 332.87 567.069 332.7C567.699 332.53 567.109 332.81 566.389 331.83C565.669 330.85 565.709 331.06 565.219 329.98C564.729 328.9 563.689 327.09 563.619 326.3C563.559 325.51 564.149 322.87 564.149 322.87L559.369 319.84Z" fill="#939598"/>
<path d="M366.05 246.02C367.265 246.02 368.25 245.035 368.25 243.82C368.25 242.605 367.265 241.62 366.05 241.62C364.835 241.62 363.85 242.605 363.85 243.82C363.85 245.035 364.835 246.02 366.05 246.02Z" fill="#231F20"/>
<path d="M481.49 243.18C482.705 243.18 483.69 242.195 483.69 240.98C483.69 239.765 482.705 238.78 481.49 238.78C480.275 238.78 479.29 239.765 479.29 240.98C479.29 242.195 480.275 243.18 481.49 243.18Z" fill="#231F20"/>
<path d="M583.39 247.39C584.605 247.39 585.589 246.405 585.589 245.19C585.589 243.975 584.605 242.99 583.39 242.99C582.174 242.99 581.189 243.975 581.189 245.19C581.189 246.405 582.174 247.39 583.39 247.39Z" fill="#231F20"/>
<path d="M306.03 191.64C294.33 191.64 284.84 201.13 284.84 212.83C284.84 224.54 294.33 234.02 306.03 234.02C317.74 234.02 327.22 224.54 327.22 212.83C327.22 201.13 317.74 191.64 306.03 191.64ZM306.28 229.32C297.13 229.32 289.71 221.9 289.71 212.74C289.71 203.59 297.13 196.17 306.28 196.17C315.44 196.17 322.86 203.59 322.86 212.74C322.86 221.9 315.44 229.32 306.28 229.32Z" fill="black"/>
<path d="M298.976 193.313L296.137 194.558L312.731 232.399L315.57 231.154L298.976 193.313Z" fill="black"/>
<path d="M305.214 210.887L304.549 213.915L326.446 218.729L327.112 215.701L305.214 210.887Z" fill="black"/>
<path d="M307.084 212.273L304.247 211.022L295.879 230.011L298.715 231.261L307.084 212.273Z" fill="black"/>
<path d="M35.8597 143.85C29.2897 143.85 23.9697 149.17 23.9697 155.73C23.9697 162.29 29.2897 167.61 35.8597 167.61C42.4197 167.61 47.7397 162.29 47.7397 155.73C47.7397 149.17 42.4197 143.85 35.8597 143.85ZM35.8597 164.13C31.2197 164.13 27.4598 160.37 27.4598 155.73C27.4598 151.09 31.2197 147.33 35.8597 147.33C40.4997 147.33 44.2598 151.09 44.2598 155.73C44.2598 160.37 40.4997 164.13 35.8597 164.13Z" fill="#EC008C"/>
<path d="M77.64 143.85C71.07 143.85 65.75 149.17 65.75 155.73C65.75 162.29 71.07 167.61 77.64 167.61C84.2 167.61 89.52 162.29 89.52 155.73C89.52 149.17 84.2 143.85 77.64 143.85ZM77.64 164C73 164 69.24 160.24 69.24 155.6C69.24 150.96 73 147.2 77.64 147.2C82.28 147.2 86.04 150.96 86.04 155.6C86.04 160.24 82.28 164 77.64 164Z" fill="#2E31C2"/>
<path d="M97.6198 139.752L95.5654 137.431L83.8467 147.802L85.9011 150.123L97.6198 139.752Z" fill="#2E31C2"/>
<path d="M37.4095 165.14H34.3096V180.79H37.4095V165.14Z" fill="#EC008C"/>
<path d="M28.0278 171.102V174.202H43.6778V171.102H28.0278Z" fill="#EC008C"/>
<path d="M51.9048 152.104V155.204H61.5848V152.104H51.9048Z" fill="black"/>
<path d="M51.9053 157.594V160.694H61.5853V157.594H51.9053Z" fill="black"/>
<path d="M88.1831 136.919V140.019H97.8631V136.919H88.1831Z" fill="#2E31C2"/>
<path d="M94.8209 146.624H97.9209V136.944H94.8209V146.624Z" fill="#2E31C2"/>
<path d="M141.91 184.48L145.8 155.17C145.8 155.17 140.47 152.92 140.47 149.84C140.47 146.76 140.06 145.95 140.47 144.51C140.88 143.08 143.04 142.26 143.04 142.26H148.67H151.13C151.13 142.26 152.15 142.06 151.13 143.9C150.11 145.74 145.94 146.56 145.94 146.56C145.94 146.56 147.34 147.17 148.47 146.87C149.6 146.56 149.8 145.95 150.42 145.74C151.03 145.54 151.24 146.56 152.47 146.35C153.7 146.14 154.11 145.53 154.11 145.53C154.11 145.53 154.93 147.07 156.16 146.86C157.39 146.66 157.49 146.04 157.49 146.04C157.49 146.04 156.88 146.65 158 146.96C159.13 147.27 159.33 147.16 159.64 146.96C159.95 146.76 160.27 146.11 160.27 146.11L160.12 148.11C160.12 148.11 158.42 153.31 156.16 154.54L157.04 178.35L141.91 184.48Z" fill="#B96300"/>
<path d="M143.95 141.36C143.95 141.36 143.23 138.23 143.95 137.18C144.67 136.14 145.18 135.66 145.69 135.85C146.2 136.04 147.53 136.42 147.74 136.89C147.94 137.36 147.74 136.33 149.07 135.8C150.4 135.27 151.63 135.75 151.94 136.32C152.25 136.89 152.76 137.17 152.76 137.17C152.76 137.17 153.17 135.49 153.78 135.57C154.39 135.65 155.96 135.24 156.37 136.18C156.78 137.13 156.86 137.26 156.86 137.26C156.86 137.26 157.15 136.55 158.49 136.36C159.83 136.17 160.02 136.44 160.6 137.39C161.18 138.34 161.15 138.03 161.06 139.78C160.97 141.53 160.06 145.09 160.06 145.09C160.06 145.09 159.56 145.79 159.12 145.92C158.69 146.05 158.54 146.05 158.22 145.92C157.9 145.79 157.7 145.81 157.61 145.52C157.52 145.23 157.49 144.98 157.49 144.88C157.49 144.77 157.4 145.28 157.2 145.44C157 145.6 156.94 146.07 156.25 146.02C155.56 145.97 155.24 145.84 154.89 145.52C154.54 145.2 154.02 144.42 154.02 144.42C154.02 144.42 154.02 144.69 153.67 144.93C153.32 145.17 153 145.55 152.51 145.49C152.02 145.44 151.79 145.46 151.41 145.11C151.03 144.76 150.83 144.52 150.83 144.52C150.83 144.52 151.64 144.04 151.76 143.55C151.88 143.07 152.22 142.35 151.99 142.09C151.76 141.83 151.82 141.64 151.24 141.56C150.66 141.48 150.14 141.67 148.87 141.67C147.6 141.67 145.2 141.62 144.91 141.56C144.63 141.53 143.95 141.36 143.95 141.36Z" fill="#B96300"/>
<path d="M192.68 177.45L195.88 153.34C195.88 153.34 190.55 151.09 190.55 148.01C190.55 144.93 190.14 144.12 190.55 142.68C190.96 141.24 193.12 140.43 193.12 140.43H198.75H201.21C201.21 140.43 202.23 140.22 201.21 142.07C200.19 143.91 196.02 144.73 196.02 144.73C196.02 144.73 197.42 145.34 198.55 145.04C199.68 144.73 199.88 144.12 200.5 143.91C201.11 143.71 201.32 144.73 202.55 144.52C203.78 144.32 204.19 143.7 204.19 143.7C204.19 143.7 205.01 145.24 206.24 145.03C207.47 144.82 207.57 144.21 207.57 144.21C207.57 144.21 206.96 144.82 208.08 145.13C209.21 145.44 209.41 145.33 209.72 145.13C210.03 144.92 210.35 144.28 210.35 144.28L210.2 146.28C210.2 146.28 208.5 151.48 206.24 152.71L207.62 184.47L192.68 177.45Z" fill="#6E3900"/>
<path d="M194.04 139.52C194.04 139.52 193.32 136.39 194.04 135.34C194.76 134.3 195.27 133.82 195.78 134.01C196.29 134.2 197.62 134.58 197.83 135.05C198.03 135.52 197.83 134.49 199.16 133.96C200.49 133.43 201.72 133.91 202.03 134.48C202.34 135.05 202.85 135.33 202.85 135.33C202.85 135.33 203.26 133.65 203.87 133.73C204.48 133.81 206.05 133.4 206.46 134.34C206.87 135.28 206.95 135.42 206.95 135.42C206.95 135.42 207.24 134.71 208.58 134.52C209.91 134.33 210.11 134.6 210.69 135.55C211.27 136.5 211.24 136.19 211.15 137.94C211.06 139.69 210.15 143.25 210.15 143.25C210.15 143.25 209.65 143.95 209.21 144.08C208.78 144.21 208.63 144.21 208.31 144.08C207.99 143.95 207.79 143.97 207.7 143.68C207.61 143.39 207.58 143.14 207.58 143.04C207.58 142.94 207.49 143.44 207.29 143.6C207.09 143.76 207.03 144.23 206.34 144.18C205.65 144.13 205.33 144 204.98 143.68C204.63 143.36 204.11 142.58 204.11 142.58C204.11 142.58 204.11 142.85 203.76 143.09C203.41 143.33 203.09 143.71 202.6 143.65C202.11 143.6 201.88 143.62 201.5 143.27C201.12 142.92 200.92 142.68 200.92 142.68C200.92 142.68 201.73 142.2 201.85 141.71C201.97 141.23 202.31 140.51 202.08 140.25C201.85 139.99 201.91 139.8 201.33 139.72C200.75 139.64 200.23 139.83 198.96 139.83C197.69 139.83 195.29 139.78 195 139.72C194.72 139.69 194.04 139.52 194.04 139.52Z" fill="#6E3900"/>
<path d="M167.86 173.84L172.02 142.46C172.02 142.46 166.69 140.21 166.69 137.13C166.69 134.05 166.28 133.24 166.69 131.8C167.1 130.37 169.26 129.55 169.26 129.55H174.89H177.35C177.35 129.55 178.37 129.35 177.35 131.19C176.33 133.03 172.16 133.85 172.16 133.85C172.16 133.85 173.56 134.46 174.69 134.16C175.82 133.85 176.02 133.24 176.64 133.03C177.25 132.83 177.46 133.85 178.69 133.64C179.92 133.44 180.33 132.82 180.33 132.82C180.33 132.82 181.15 134.36 182.38 134.15C183.61 133.95 183.71 133.33 183.71 133.33C183.71 133.33 183.1 133.94 184.22 134.25C185.35 134.56 185.55 134.45 185.86 134.25C186.17 134.05 186.49 133.4 186.49 133.4L186.34 135.4C186.34 135.4 184.64 140.6 182.38 141.83L184.02 173.82H167.86V173.84Z" fill="#482900"/>
<path d="M170.18 128.64C170.18 128.64 169.46 125.51 170.18 124.46C170.9 123.42 171.41 122.94 171.92 123.13C172.43 123.32 173.76 123.7 173.97 124.17C174.17 124.64 173.97 123.61 175.3 123.08C176.63 122.55 177.86 123.03 178.17 123.6C178.48 124.17 178.99 124.45 178.99 124.45C178.99 124.45 179.4 122.77 180.01 122.85C180.62 122.93 182.19 122.52 182.6 123.46C183.01 124.4 183.09 124.54 183.09 124.54C183.09 124.54 183.38 123.83 184.72 123.64C186.05 123.45 186.25 123.72 186.83 124.67C187.41 125.62 187.38 125.31 187.29 127.06C187.2 128.81 186.29 132.37 186.29 132.37C186.29 132.37 185.79 133.07 185.35 133.2C184.92 133.33 184.77 133.33 184.45 133.2C184.13 133.07 183.93 133.09 183.84 132.8C183.75 132.51 183.72 132.26 183.72 132.16C183.72 132.05 183.63 132.56 183.43 132.72C183.23 132.88 183.17 133.35 182.48 133.3C181.79 133.25 181.47 133.12 181.12 132.8C180.77 132.48 180.25 131.7 180.25 131.7C180.25 131.7 180.25 131.97 179.9 132.21C179.55 132.45 179.23 132.83 178.74 132.77C178.25 132.72 178.02 132.74 177.64 132.39C177.26 132.04 177.06 131.8 177.06 131.8C177.06 131.8 177.87 131.32 177.99 130.83C178.11 130.34 178.45 129.63 178.22 129.37C177.99 129.11 178.05 128.92 177.47 128.84C176.89 128.76 176.37 128.95 175.1 128.95C173.83 128.95 171.43 128.9 171.14 128.84C170.85 128.78 170.18 128.64 170.18 128.64Z" fill="#482900"/>
<path d="M598.101 286.051L564.354 287.331L564.474 290.478L598.22 289.198L598.101 286.051Z" fill="#FD2900"/>
<path d="M598.221 289.23L564.475 290.51L564.594 293.658L598.34 292.378L598.221 289.23Z" fill="#FD6900"/>
<path d="M598.33 292.091L564.584 293.371L564.703 296.518L598.45 295.239L598.33 292.091Z" fill="#FDEB00"/>
<path d="M598.441 295.091L564.694 296.371L564.814 299.518L598.56 298.239L598.441 295.091Z" fill="#47CA00"/>
<path d="M598.561 298.131L564.814 299.411L564.934 302.558L598.68 301.279L598.561 298.131Z" fill="#0058FC"/>
<path d="M598.67 300.941L564.924 302.221L565.043 305.369L598.79 304.089L598.67 300.941Z" fill="#7900BB"/>
</g>
<defs>
<clipPath id="clip0">
<rect width="619" height="337" fill="white"/>
</clipPath>
</defs>
</svg>
