<svg width="547" height="799" viewBox="0 0 547 799" fill="none" xmlns="http://www.w3.org/2000/svg">
<g clip-path="url(#clip0)">
<path d="M548.61 493.67H549.26L548.61 767.35H230.69C229.048 767.35 227.474 766.698 226.313 765.537C225.152 764.376 224.5 762.802 224.5 761.16V270.92C224.502 269.383 225.076 267.902 226.109 266.763C227.142 265.625 228.56 264.911 230.09 264.76H230.69H548.61V493.67Z" fill="#FFD5BF"/>
<path d="M548.61 175.77V265.14C547.93 265.31 547.231 265.394 546.53 265.39H233.37C232.246 265.393 231.132 265.18 230.09 264.76C228.44 264.105 227.025 262.969 226.028 261.499C225.031 260.03 224.499 258.295 224.5 256.52V184.39C224.5 182.037 225.434 179.781 227.098 178.118C228.761 176.454 231.018 175.52 233.37 175.52H546.53C547.231 175.516 547.93 175.6 548.61 175.77V175.77Z" fill="#FFA7CB"/>
<path d="M548.61 158.16V175.52H228.4C227.888 175.52 227.381 175.419 226.907 175.223C226.434 175.027 226.004 174.74 225.642 174.378C225.28 174.015 224.993 173.586 224.797 173.112C224.601 172.639 224.5 172.132 224.5 171.62V162.06C224.5 161.548 224.601 161.041 224.797 160.567C224.993 160.094 225.28 159.664 225.642 159.302C226.004 158.94 226.434 158.653 226.907 158.457C227.381 158.261 227.888 158.16 228.4 158.16H548.61Z" fill="#640019"/>
<path d="M549.87 264.95V493.44L549.74 493.69H487.88V264.73L548.61 264.94L549.87 264.95Z" fill="#C3146D"/>
<path d="M548.61 298.07H275.84V428.8H548.61V298.07Z" fill="white"/>
<path d="M549.87 298.07H487.88V428.8H549.87V298.07Z" fill="#C3616D" fill-opacity="0.8"/>
<path d="M421.91 487.64H297.22V767.74H421.91V487.64Z" fill="#A4EEFF"/>
<path d="M312.39 609.38H305.87V643.26H312.39V609.38Z" fill="#020000"/>
<path d="M548.61 487.65H421.91V767.43H548.61V487.65Z" fill="#00223E"/>
<path d="M549.87 175.51V264.95L548.61 264.94L487.88 264.73V175.51H549.87Z" fill="#B10045"/>
<path d="M549.26 158.16H487.88V175.52H549.26V158.16Z" fill="#39000A"/>
<path d="M548.61 487.65H487.88V767.35H548.61V487.65Z" fill="#0C0300"/>
<path d="M262.641 158.3L346.721 0H483.571L397.481 158.3" fill="#000FD4"/>
<path d="M415.03 158.3L499.12 0H548.61L549.87 158.3" fill="#000FD4"/>
<path d="M451.9 59.1799L449.08 64.3999H311.15L313.97 59.1799H451.9Z" fill="#E6E7E8"/>
<path d="M549.151 59.1799V64.3999H465.261L468.071 59.1799H549.151Z" fill="#E6E7E8"/>
<path d="M425.62 107.88L422.8 113.11H284.87L287.69 107.88H425.62Z" fill="#E6E7E8"/>
<path d="M549.151 107.88V113.11H438.971L441.791 107.88H549.151Z" fill="#E6E7E8"/>
<path d="M364.27 0L355.55 16.16L332.33 59.18L329.52 64.4L306.05 107.88L303.23 113.11L283.2 150.22L278.84 158.3H260.48L264.84 150.22L284.87 113.11L287.69 107.88L311.15 64.4L313.97 59.18L337.19 16.16L345.91 0H364.27Z" fill="#E6E7E8"/>
<path d="M483.841 0L475.121 16.16L451.901 59.18L449.081 64.4L425.621 107.88L422.801 113.11L402.771 150.22L398.411 158.3H380.051L384.411 150.22L404.441 113.11L407.261 107.88L430.721 64.4L433.541 59.18L456.751 16.16L465.471 0H483.841Z" fill="#E6E7E8"/>
<path d="M509.571 0L500.851 16.16L477.641 59.18L474.821 64.4L451.361 107.88L448.531 113.11L428.511 150.22L424.151 158.3H411.271L415.631 150.22L435.651 113.11L438.471 107.88L461.941 64.4L464.751 59.18L470.761 48.05L479.481 31.89L487.971 16.16L496.691 0H509.571Z" fill="#E6E7E8"/>
<path d="M483.84 0L475.12 13.41H337.19L345.91 0H483.84Z" fill="#E6E7E8"/>
<path d="M549.75 0L549.15 0.92V13.41H491.29L500.01 0H549.75Z" fill="#E6E7E8"/>
<path opacity="0.4" d="M402.77 150.22L398.41 158.3H260.48L264.84 150.22H402.77Z" fill="#E6E7E8"/>
<path opacity="0.4" d="M549.151 150.22V158.3H414.591L418.951 150.22H549.151Z" fill="#E6E7E8"/>
<path d="M396.951 0L388.231 16.16L365.021 59.18L362.201 64.4L338.731 107.88L335.911 113.11L315.891 150.22L311.531 158.3H305.591L309.951 150.22L329.981 113.11L332.801 107.88L356.271 64.4L359.081 59.18L382.301 16.16L391.021 0H396.951Z" fill="#E6E7E8"/>
<path d="M439.531 0L430.811 16.16L407.601 59.18L404.781 64.4L381.321 107.88L378.491 113.11L358.471 150.22L354.111 158.3H348.171L352.531 150.22L372.561 113.11L375.381 107.88L398.841 64.4L401.661 59.18L424.871 16.16L433.601 0H439.531Z" fill="#E6E7E8"/>
<path d="M549.15 1.11011V12.1401L546.98 16.1601L523.76 59.1801L520.94 64.4001L497.48 107.88L494.66 113.11L474.63 150.22L470.27 158.3H464.33L468.69 150.22L488.72 113.11L491.54 107.88L515 64.4001L517.82 59.1801L541.03 16.1601L549.15 1.11011Z" fill="#E6E7E8"/>
<path d="M536.681 107.88L549.151 84.77V95.76L542.611 107.88L539.791 113.11L519.761 150.22L515.401 158.3H509.471L513.831 150.22L533.861 113.11L536.681 107.88Z" fill="#E6E7E8"/>
<path opacity="0.7" d="M66.72 588.11C98.0235 588.11 123.4 565.487 123.4 537.58C123.4 509.673 98.0235 487.05 66.72 487.05C35.4165 487.05 10.04 509.673 10.04 537.58C10.04 565.487 35.4165 588.11 66.72 588.11Z" fill="#49C900"/>
<path opacity="0.7" d="M157.61 571.3C204.145 571.3 241.87 533.576 241.87 487.04C241.87 440.505 204.145 402.78 157.61 402.78C111.074 402.78 73.3496 440.505 73.3496 487.04C73.3496 533.576 111.074 571.3 157.61 571.3Z" fill="#49C900"/>
<path opacity="0.7" d="M114.81 517.6C178.218 517.6 229.62 466.198 229.62 402.79C229.62 339.382 178.218 287.98 114.81 287.98C51.4022 287.98 0 339.382 0 402.79C0 466.198 51.4022 517.6 114.81 517.6Z" fill="#49C900"/>
<path opacity="0.9" d="M112.319 380.24H107.919C104.44 380.24 101.619 383.061 101.619 386.54V753.94C101.619 757.419 104.44 760.24 107.919 760.24H112.319C115.799 760.24 118.619 757.419 118.619 753.94V386.54C118.619 383.061 115.799 380.24 112.319 380.24Z" fill="#235500"/>
<path opacity="0.9" d="M179.242 461.294L176.709 457.994C174.55 455.182 170.52 454.652 167.707 456.811L106.5 503.794C103.688 505.953 103.158 509.983 105.317 512.795L107.85 516.095C110.009 518.908 114.039 519.438 116.851 517.279L178.058 470.296C180.871 468.137 181.401 464.107 179.242 461.294Z" fill="#235500"/>
<path opacity="0.9" d="M68.4402 509.955L65.4986 512.897C62.9915 515.404 62.9915 519.469 65.4986 521.976L98.8458 555.323C101.353 557.83 105.418 557.83 107.925 555.323L110.867 552.382C113.374 549.875 113.374 545.81 110.867 543.303L77.5195 509.955C75.0123 507.448 70.9474 507.448 68.4402 509.955Z" fill="#235500"/>
<path d="M207.23 740.79H22.3799V767.34H207.23V740.79Z" fill="#E72F00"/>
<path d="M475.849 604.17C481.411 604.17 485.919 599.661 485.919 594.1C485.919 588.538 481.411 584.03 475.849 584.03C470.288 584.03 465.779 588.538 465.779 594.1C465.779 599.661 470.288 604.17 475.849 604.17Z" fill="#D4000F"/>
<path d="M444.52 606.02C442.51 605.146 440.846 603.63 439.79 601.71C438.38 598.71 440.33 596.71 439 595.53C437.67 594.35 436.31 593.77 435.13 591.63C433.95 589.49 433.71 590.87 433.84 588.24C433.97 585.61 429.76 585.9 433.96 585.6C438.16 585.3 439.62 584.38 439.62 584.38C439.62 584.38 441.06 584.02 440.46 581.47C439.86 578.92 433.23 579.22 439.87 578.92C446.51 578.62 450.8 577.56 449.16 578.18C447.52 578.8 443.91 574.24 447.52 578.8C451.13 583.36 454.13 585.36 456.08 582.58C458.03 579.8 458.44 575.95 458.08 579.81C457.72 583.67 454.53 584.32 457.02 586.42C459.51 588.52 461.58 575.21 459.81 589.33C458.04 603.45 455.81 609.39 455.81 609.39L444.52 606.02Z" fill="#487000"/>
<path d="M478.29 582.5L477.29 585.56H478.29L479.83 584.85C479.83 584.85 478.97 585.56 481.83 585.56C484.69 585.56 484.35 584.03 484.35 584.03C484.35 584.03 485.85 582.33 484.35 582.5C482.85 582.67 482.68 581.5 481.66 582.5C481.1 583.084 480.417 583.534 479.66 583.82L479.49 581.31H478.3L478.29 582.5Z" fill="#255C00"/>
<path d="M461.38 578.67L464.61 577.67C464.61 577.67 468.801 584.04 468.771 587.82C468.838 591.346 467.815 594.807 465.84 597.73C463.84 600.58 464.43 601.86 460.09 603.2C455.75 604.54 453.7 605.47 450.97 605.26C448.24 605.05 440.73 595.88 440.73 595.88C440.73 595.88 449.59 598.98 452.73 596.41C455.87 593.84 455.73 595.27 459.06 590.78C461.77 587.06 461.38 578.67 461.38 578.67Z" fill="#FFD931"/>
<path d="M462.535 572.463L460.39 573.037C459.627 573.241 459.174 574.025 459.378 574.787L460.254 578.062C460.458 578.825 461.242 579.278 462.005 579.074L464.149 578.501C464.912 578.297 465.366 577.513 465.162 576.75L464.286 573.475C464.082 572.712 463.298 572.259 462.535 572.463Z" fill="#722800"/>
<path d="M439.067 593.717L486.31 597.046C488.403 597.193 490.351 598.166 491.727 599.75C493.102 601.334 493.792 603.399 493.645 605.492L489.202 668.556C489.054 670.648 488.081 672.597 486.497 673.972C484.913 675.348 482.848 676.038 480.755 675.89L457.204 674.231C449.161 673.664 441.673 669.926 436.386 663.838C431.1 657.751 428.449 649.812 429.015 641.77L431.967 599.874C432.099 598.118 432.919 596.486 434.249 595.333C435.579 594.18 437.311 593.599 439.067 593.717Z" fill="#FF8639"/>
<path d="M432.68 641.4C432.68 641.4 433.31 643.02 431.82 652.12C431.14 656.29 431.82 659.12 431.82 662.5C431.82 664.04 432.68 669.99 436.42 670.81C440.74 671.75 444.94 669.98 445.87 666.67C446.8 663.36 448.5 657.57 448.5 653.14V643.78L455.82 644.29C455.82 644.29 457.08 665.62 457.01 667.87C456.94 670.12 458.13 679.22 455.85 687.18C452.21 699.9 451.07 705.57 445.85 707.95C440.63 710.33 439.23 710.95 432.66 709.95C426.09 708.95 424.66 708.59 422.27 701.44C419.88 694.29 419.21 694.63 419.89 680.34C420.57 666.05 419.89 667.06 422.61 658.55C425.33 650.04 428.74 641.36 428.74 641.36L432.68 641.4Z" fill="#00C34F"/>
<path d="M434.41 630.78L432.169 630.219C428.858 629.391 425.503 631.404 424.675 634.715L423.554 639.197C422.726 642.509 424.739 645.864 428.05 646.692L430.291 647.252C433.602 648.08 436.958 646.067 437.786 642.756L438.906 638.274C439.734 634.963 437.721 631.608 434.41 630.78Z" fill="#894400"/>
<path d="M513.149 549.65L509.021 548.249C500.993 545.524 492.276 549.822 489.551 557.85L485.652 569.336C482.927 577.364 487.226 586.081 495.253 588.806L499.382 590.207C507.41 592.932 516.127 588.633 518.852 580.606L522.751 569.12C525.476 561.092 521.177 552.375 513.149 549.65Z" fill="#894400"/>
<path d="M507.37 582.49H500.91C497.806 582.49 495.29 585.004 495.29 588.105C495.29 591.206 497.806 593.72 500.91 593.72H507.37C510.474 593.72 512.99 591.206 512.99 588.105C512.99 585.004 510.474 582.49 507.37 582.49Z" fill="#894400"/>
<path d="M502.12 550.84C501.61 551.01 499.06 554.41 496.33 554.58C493.6 554.75 492.16 554.93 491.1 554.58C490.04 554.23 485.95 553.22 487.48 550.84C489.01 548.46 483.57 549.84 489.87 547.61C496.17 545.38 493.87 545.22 494.43 543.35C494.99 541.48 497.87 538.93 500.76 538.76C503.65 538.59 504.16 540.63 507.91 540.63C511.66 540.63 511.48 538.39 517.78 538.75C524.08 539.11 524.08 539.1 526.46 541.65C528.84 544.2 529.23 548.02 530.04 549.14C530.49 549.77 530.21 551.01 533.95 552.37C537.69 553.73 539.18 554.06 539.57 557.99C539.74 559.76 540.42 561.73 539.74 564.54C538.99 567.63 536.5 567.35 537.74 570.41C538.98 573.47 544.88 575.35 541.31 579.61C537.74 583.87 536.88 586.76 532.8 585.56C528.72 584.36 529.05 582.84 525.48 585.05C521.91 587.26 525.11 590.14 520.37 588.12C515.63 586.1 515.66 588.97 514.61 584.37C513.56 579.77 510.67 579.61 508.97 579.44C507.27 579.27 504.2 579.61 507.78 575.86C511.36 572.11 508.92 573.14 513.03 571.61C517.14 570.08 519.69 571.1 519.86 568.2C520.03 565.3 521.22 563.61 518.16 562.76C515.1 561.91 516.16 562.88 514.61 563.76C513.349 564.614 512.223 565.652 511.27 566.84C511.27 566.84 512.4 562.84 511.69 560.71C510.36 556.71 516.94 558.38 511.35 555.78C510.08 555.18 510.35 554.78 507.78 554.93C505.43 555.08 502.12 550.84 502.12 550.84Z" fill="#939598"/>
<path d="M489.351 661.31C489.351 661.31 485.951 654.68 480.501 671.61C475.051 688.54 466.211 713.05 464.841 719.52C464.192 722.876 463.282 726.176 462.121 729.39C462.121 729.39 459.061 726.67 451.911 737.56C444.761 748.45 441.011 761.05 439.311 765.14C437.611 769.23 436.311 771.61 436.311 771.61L443.691 773.99C443.691 773.99 465.131 754.93 468.201 747.78C471.271 740.63 475.011 732.5 475.011 732.5L495.241 705.9C495.241 705.9 500.151 731.78 504.091 738.24C508.031 744.7 525.091 780.46 525.091 780.46V783.52L539.391 779.1C539.391 779.1 528.491 760.03 527.471 754.1C526.451 748.17 525.771 741.34 523.051 736.23C520.331 731.12 529.861 723.3 532.241 707.64C534.621 691.98 532.241 673.59 532.081 667.47C531.921 661.35 489.351 661.31 489.351 661.31Z" fill="#A62C00"/>
<path d="M530.72 611.61C530.673 611.335 530.639 611.058 530.62 610.78C530.35 608.05 529.49 599.7 525.95 596.46C521.87 592.71 520.73 591.09 518.12 590.16C516.267 589.425 514.316 588.967 512.33 588.8C512.33 588.8 510.9 591.69 509.61 592.2C507.425 592.652 505.201 592.88 502.97 592.88C499.89 592.53 498.52 592.36 497.61 591.95C496.932 591.52 496.399 590.897 496.08 590.16C496.08 590.16 490.17 591.8 488.76 593.73C486.16 597.31 485.61 597.99 484.59 605.31C483.69 611.678 483.355 618.113 483.59 624.54C483.76 630.84 483.53 634.07 483.53 634.07C483.53 634.07 465.03 634.58 459.93 635.07C454.83 635.56 439.15 635.94 439.15 635.94L436.38 645.39C436.38 645.39 448.38 648.39 454.48 648C460.58 647.61 476.89 650.73 483.56 648.68C490.23 646.63 487.67 648.68 488.01 647.32C488.35 645.96 485.17 656.89 485.68 660.47C486.19 664.05 489.37 666.73 489.37 666.73C490.312 668.225 491.621 669.455 493.171 670.304C494.721 671.153 496.462 671.592 498.23 671.58C504.23 671.41 520.01 672.85 523.93 671.32C527.85 669.79 532.44 665.19 532.44 665.19L530.72 611.61Z" fill="#FFAA25"/>
<path d="M443.61 775.95L440.76 782.11C440.548 782.633 440.145 783.057 439.633 783.296C439.121 783.536 438.538 783.573 438 783.4C432 781.14 413.55 773.97 411.58 771.01C411.028 770.295 410.641 769.468 410.444 768.586C410.247 767.705 410.245 766.792 410.44 765.91C410.605 765.359 410.959 764.885 411.44 764.57C412.06 764.15 413 763.64 413.69 763.96C414.78 764.47 419.35 766.74 421.25 766.8C423.15 766.86 431.73 769.07 433.32 768.5C434.51 768.08 441.07 771.5 444.11 773.21C445.05 773.75 444.13 774.84 443.61 775.95Z" fill="#474136"/>
<path d="M540.36 781.76L542.29 788.27C542.473 788.803 542.449 789.386 542.223 789.903C541.997 790.419 541.586 790.832 541.07 791.06C535.07 793.3 516.5 800.14 513.07 799.22C512.183 799.048 511.345 798.685 510.614 798.154C509.883 797.624 509.278 796.94 508.84 796.15C508.598 795.635 508.541 795.052 508.68 794.5C508.87 793.78 509.24 792.77 509.97 792.56C511.13 792.22 516.06 790.91 517.52 789.7C518.98 788.49 525.12 784.52 525.94 783.04C526.56 781.93 535.5 780.11 538.94 779.39C539.98 779.16 540.01 780.58 540.36 781.76Z" fill="#474136"/>
<path d="M277.84 531.9H273.84C265.357 531.9 258.48 538.777 258.48 547.26V561.31C258.48 569.793 265.357 576.67 273.84 576.67H277.84C286.324 576.67 293.2 569.793 293.2 561.31V547.26C293.2 538.777 286.324 531.9 277.84 531.9Z" fill="#FFBB66"/>
<path d="M275.161 571.73H272.781C269.959 571.73 267.671 574.018 267.671 576.84V581.94C267.671 584.762 269.959 587.05 272.781 587.05H275.161C277.983 587.05 280.271 584.762 280.271 581.94V576.84C280.271 574.018 277.983 571.73 275.161 571.73Z" fill="#FFBB66"/>
<path d="M253.71 659.56C253.71 659.56 251.71 655.82 248.94 677.26C246.17 698.7 243.84 708.92 244.52 715.73C245.2 722.54 244.96 725.26 244.4 734.79C243.84 744.32 242.58 758.62 244.4 767.79C246.22 776.96 245.88 781.06 245.88 781.06L253.71 780.06C253.71 780.06 258.82 749.42 259.84 741.76C260.86 734.1 259.84 733.08 259.84 726.96C259.84 720.84 261.2 720.49 267.67 701.42L274.13 682.36C274.13 682.36 277.88 683.04 280.26 699.72C282.64 716.4 285.71 722.87 285.71 722.87C285.71 722.87 284.28 724.93 283.6 734.46C282.92 743.99 287.45 749.31 287.45 761.57C287.45 773.83 289.55 780.38 289.55 780.38L298.65 779.29V663.54L270.39 659.31L253.71 659.56Z" fill="#00202A"/>
<path d="M289.781 781.56V786.67C289.76 787.096 289.901 787.514 290.175 787.84C290.45 788.167 290.838 788.377 291.261 788.43C296.081 788.78 311.071 789.73 313.371 788.32C313.976 788.002 314.505 787.557 314.921 787.014C315.337 786.472 315.63 785.846 315.781 785.18C315.845 784.754 315.76 784.32 315.541 783.95C315.251 783.46 314.751 782.81 314.181 782.81C313.271 782.81 309.401 782.92 308.081 782.36C306.761 781.8 300.151 780.59 299.241 779.69C298.551 779.02 292.961 779.28 290.331 779.49C289.491 779.6 289.781 780.67 289.781 781.56Z" fill="#231F20"/>
<path d="M244.781 781.67V786.82C244.763 787.247 244.906 787.665 245.182 787.991C245.458 788.317 245.847 788.527 246.271 788.58C251.081 788.93 266.071 789.88 268.371 788.47C268.977 788.154 269.507 787.709 269.923 787.166C270.34 786.624 270.632 785.997 270.781 785.33C270.845 784.904 270.76 784.47 270.541 784.1C270.251 783.61 269.761 782.96 269.191 782.96C268.271 782.96 264.411 783.08 263.081 782.51C261.751 781.94 256.451 780.39 255.531 779.51C254.851 778.84 247.961 779.45 245.331 779.66C244.491 779.67 244.781 780.75 244.781 781.67Z" fill="#231F20"/>
<path d="M281.11 580.75C278.39 584.33 279.42 583.75 277.2 584.84C276.375 585.315 275.443 585.571 274.491 585.585C273.539 585.599 272.599 585.37 271.76 584.92C270.378 584.2 269.177 583.174 268.25 581.92C267.727 581.113 267.52 580.14 267.671 579.19C267.671 579.19 256.77 582.19 255.41 584.04C254.05 585.89 250.52 584.9 248.26 591.19C247.7 592.74 241.52 608.37 240.94 610.08C240.13 612.48 236.69 625.48 236.18 628.46C235.18 634 235.58 640.29 236.18 641.57C237.64 644.69 236.52 644.29 238.05 645.48C239.58 646.67 243.16 646.67 246.39 645.48C248.082 644.91 249.688 644.109 251.16 643.1C250.63 645.448 250.342 647.843 250.3 650.25C250.13 654.84 249.79 658.25 249.79 658.76C249.79 659.27 247.79 656.89 251.33 660.97C255.261 665.197 260.589 667.858 266.33 668.46C272.12 669.14 286.59 669.14 293.23 666.93C299.87 664.72 297.48 666.15 298.68 663.59C299.88 661.03 298.68 649.24 298.68 649.24V630.04L299.99 590.13C298.475 587.929 296.649 585.959 294.57 584.28C287.83 578.38 290.5 581.94 286.25 581.43C282 580.92 281.11 580.75 281.11 580.75Z" fill="#004574"/>
<path d="M305.331 617.5H301.071C297.172 617.5 294.011 620.661 294.011 624.56V626.1C294.011 629.999 297.172 633.16 301.071 633.16H305.331C309.23 633.16 312.391 629.999 312.391 626.1V624.56C312.391 620.661 309.23 617.5 305.331 617.5Z" fill="#FFBB66"/>
<path d="M284.86 537.67C282.131 539.487 279.074 540.757 275.86 541.41C271.73 542.35 268.21 542.74 265.47 543.41C261.69 544.28 260.63 544.31 260.37 547.92C259.96 553.46 259.79 552.28 260.03 554.05C260.03 554.05 259.65 559.61 260.03 561.54C260.3 562.94 260.91 564.95 261.03 566.47C261.15 567.99 261.9 571.89 264.46 573.47C267.02 575.05 267.67 575.38 267.67 575.38V579.14L270.13 587.73C271.13 591.14 270.76 596.08 270.47 598.2C270.01 601.66 267.58 614.54 263.33 616.41C259.08 618.28 262.94 604.77 263.16 602.2C263.33 600.2 260.39 594.12 260.52 591.9C260.69 589.01 258.94 587.9 257.76 585.52C257.35 584.67 255.69 584.92 254.76 585.14C254.326 585.239 253.911 585.408 253.53 585.64L250.22 587.58C250.22 587.58 246.94 587.39 245.75 579.39C244.56 571.39 244.05 572.92 245.75 562.71C247.45 552.5 249 543.47 250.36 540.23C251.72 536.99 256.03 530.68 258.51 529.52C261.451 527.956 264.72 527.11 268.05 527.05C272.47 526.71 278.15 526.5 281.12 527.26C284.44 528.11 284.99 528.13 287.28 529.26C290.18 530.7 294.71 535.43 295.96 538.54C298.11 543.87 298.17 546.37 296.47 555.22C294.77 564.07 296.28 562.88 297.57 567.14C298.86 571.4 298.74 578.44 297.57 581.94C296.4 585.44 296.47 585.01 297.49 589.77C298.51 594.53 299.2 598.62 298.69 602.88C298.18 607.14 292.3 620.33 290.09 618.11C287.88 615.89 290.51 612.33 291.03 605.77C291.82 595.54 292.56 597.94 290.86 590.62C289.16 583.3 288.14 581.72 288.14 581.72L284.06 581.16L281.15 580.75L280.3 581.09V576.84L281.66 576.16L285.73 574.28C286.867 573.796 287.895 573.089 288.754 572.201C289.613 571.313 290.285 570.262 290.73 569.11C292.07 566.11 293.26 559 293.26 559C293.26 559 291.26 552.67 289.68 548.07C288.1 543.47 288.15 543.31 286.96 540.92C286.42 539.741 285.713 538.647 284.86 537.67V537.67Z" fill="#000206"/>
<path d="M251.16 643.05C251.16 643.05 254.89 640.2 264.59 636.88C274.29 633.56 276.84 633.27 283.74 633.16C288.252 633.055 292.754 632.674 297.22 632.02C297.22 632.02 273.27 641.73 267.67 642.12C261.67 642.53 253.61 647.12 252.84 647.12H250.51L251.16 643.05Z" fill="#00295C"/>
<path d="M295.07 621.28C288.626 620.639 282.132 620.693 275.7 621.44C266.23 622.71 252.33 624.44 252.33 624.44L250.51 628.16C250.51 628.16 261.78 625.49 269.95 624.01C278.12 622.53 281.05 623.01 287.31 622.01C293.57 621.01 295.07 621.28 295.07 621.28Z" fill="#005989"/>
<path d="M487.86 647.74C487.86 647.74 498.44 646.45 501.1 644.8C503.24 643.46 503.8 643.89 504.1 638.64C504.33 635.04 505.1 621.71 505.63 616.46C506.328 618.464 506.906 620.507 507.36 622.58C507.89 628.94 508.77 639.06 509.14 641.4C509.66 644.63 509.04 646.81 504.14 649.7C499.24 652.59 485.92 655.18 485.92 655.18C485.92 655.18 486.55 651.78 486.92 650.41C487.154 649.494 487.469 648.601 487.86 647.74Z" fill="#E38B00"/>
<path d="M439.08 337.539C439.08 340.05 438.429 342.306 437.126 344.308C435.842 346.309 433.954 347.876 431.462 349.009C428.97 350.142 426.015 350.708 422.598 350.708C418.501 350.708 415.121 349.934 412.459 348.386C410.571 347.272 409.032 345.79 407.843 343.939C406.672 342.07 406.087 340.258 406.087 338.502C406.087 337.482 406.436 336.614 407.135 335.896C407.852 335.16 408.758 334.792 409.854 334.792C410.741 334.792 411.487 335.075 412.091 335.642C412.714 336.208 413.243 337.048 413.677 338.162C414.205 339.484 414.772 340.588 415.376 341.476C415.999 342.363 416.868 343.099 417.981 343.685C419.095 344.251 420.559 344.534 422.371 344.534C424.863 344.534 426.883 343.958 428.432 342.807C429.999 341.636 430.782 340.182 430.782 338.445C430.782 337.067 430.357 335.953 429.508 335.104C428.677 334.235 427.591 333.574 426.251 333.121C424.929 332.668 423.155 332.187 420.927 331.677C417.944 330.978 415.442 330.166 413.422 329.241C411.421 328.297 409.825 327.023 408.636 325.418C407.465 323.794 406.88 321.784 406.88 319.386C406.88 317.101 407.503 315.072 408.749 313.297C409.995 311.522 411.798 310.163 414.158 309.219C416.518 308.256 419.294 307.774 422.484 307.774C425.033 307.774 427.233 308.095 429.083 308.737C430.952 309.36 432.5 310.201 433.728 311.258C434.955 312.296 435.852 313.391 436.418 314.543C436.984 315.695 437.268 316.818 437.268 317.913C437.268 318.914 436.909 319.82 436.191 320.632C435.493 321.425 434.615 321.821 433.558 321.821C432.595 321.821 431.858 321.585 431.349 321.113C430.858 320.622 430.32 319.829 429.734 318.734C428.979 317.167 428.073 315.95 427.016 315.081C425.958 314.194 424.259 313.75 421.918 313.75C419.747 313.75 417.991 314.231 416.65 315.194C415.329 316.138 414.668 317.281 414.668 318.621C414.668 319.452 414.895 320.169 415.348 320.773C415.801 321.378 416.424 321.897 417.217 322.331C418.01 322.765 418.812 323.105 419.624 323.351C420.436 323.596 421.776 323.955 423.646 324.427C425.987 324.974 428.101 325.578 429.989 326.239C431.896 326.9 433.51 327.702 434.832 328.646C436.173 329.59 437.211 330.789 437.947 332.243C438.702 333.678 439.08 335.443 439.08 337.539ZM464.483 307.774C468.788 307.774 472.479 308.652 475.557 310.408C478.653 312.145 480.994 314.628 482.58 317.856C484.166 321.066 484.959 324.842 484.959 329.185C484.959 332.394 484.525 335.311 483.656 337.936C482.788 340.56 481.485 342.835 479.748 344.761C478.011 346.687 475.878 348.159 473.348 349.179C470.818 350.198 467.92 350.708 464.653 350.708C461.406 350.708 458.498 350.189 455.931 349.15C453.363 348.093 451.22 346.611 449.502 344.704C447.784 342.797 446.481 340.503 445.594 337.822C444.725 335.141 444.291 332.243 444.291 329.128C444.291 325.937 444.744 323.011 445.65 320.349C446.576 317.687 447.907 315.421 449.644 313.552C451.381 311.683 453.495 310.257 455.987 309.275C458.479 308.275 461.312 307.774 464.483 307.774ZM476.435 329.128C476.435 326.088 475.944 323.454 474.962 321.227C473.98 318.999 472.574 317.318 470.742 316.186C468.93 315.034 466.843 314.458 464.483 314.458C462.803 314.458 461.245 314.779 459.811 315.421C458.395 316.044 457.167 316.96 456.129 318.168C455.109 319.376 454.298 320.924 453.693 322.812C453.108 324.682 452.815 326.787 452.815 329.128C452.815 331.488 453.108 333.621 453.693 335.528C454.298 337.435 455.138 339.021 456.214 340.286C457.309 341.532 458.555 342.467 459.952 343.09C461.368 343.713 462.916 344.024 464.597 344.024C466.749 344.024 468.722 343.486 470.516 342.41C472.328 341.334 473.763 339.673 474.82 337.426C475.896 335.179 476.435 332.413 476.435 329.128Z" fill="#45383B"/>
<path d="M438.492 384.421H429.316V414.582C429.316 416.319 428.929 417.612 428.155 418.462C427.381 419.293 426.381 419.708 425.153 419.708C423.907 419.708 422.888 419.283 422.095 418.434C421.321 417.584 420.934 416.3 420.934 414.582V384.421H411.758C410.323 384.421 409.256 384.109 408.558 383.486C407.859 382.844 407.51 382.004 407.51 380.966C407.51 379.89 407.868 379.04 408.586 378.417C409.322 377.794 410.38 377.482 411.758 377.482H438.492C439.946 377.482 441.022 377.803 441.721 378.445C442.438 379.087 442.797 379.927 442.797 380.966C442.797 382.004 442.438 382.844 441.721 383.486C441.003 384.109 439.927 384.421 438.492 384.421ZM481.681 405.888C481.681 407.209 481.35 408.644 480.689 410.192C480.048 411.722 479.028 413.232 477.631 414.724C476.234 416.196 474.45 417.395 472.278 418.32C470.107 419.245 467.577 419.708 464.688 419.708C462.498 419.708 460.507 419.5 458.713 419.085C456.919 418.67 455.286 418.028 453.813 417.159C452.36 416.272 451.019 415.111 449.792 413.676C448.697 412.373 447.762 410.919 446.988 409.314C446.214 407.691 445.629 405.963 445.232 404.132C444.855 402.3 444.666 400.356 444.666 398.298C444.666 394.956 445.147 391.964 446.11 389.32C447.092 386.677 448.489 384.421 450.302 382.552C452.114 380.664 454.238 379.229 456.674 378.247C459.109 377.265 461.705 376.774 464.462 376.774C467.823 376.774 470.815 377.445 473.439 378.785C476.064 380.126 478.075 381.787 479.472 383.77C480.869 385.733 481.567 387.593 481.567 389.349C481.567 390.312 481.228 391.161 480.548 391.897C479.868 392.634 479.047 393.002 478.084 393.002C477.008 393.002 476.196 392.747 475.648 392.237C475.12 391.728 474.525 390.85 473.864 389.604C472.769 387.546 471.476 386.007 469.984 384.987C468.512 383.968 466.69 383.458 464.519 383.458C461.063 383.458 458.307 384.77 456.249 387.395C454.21 390.019 453.19 393.748 453.19 398.581C453.19 401.81 453.644 404.5 454.55 406.652C455.456 408.786 456.74 410.381 458.401 411.438C460.063 412.496 462.007 413.024 464.235 413.024C466.652 413.024 468.691 412.43 470.353 411.24C472.033 410.032 473.298 408.267 474.147 405.944C474.506 404.849 474.95 403.962 475.479 403.282C476.007 402.584 476.857 402.234 478.027 402.234C479.028 402.234 479.887 402.584 480.604 403.282C481.322 403.981 481.681 404.849 481.681 405.888Z" fill="#45383B"/>
<path d="M358.999 381.872V396.429L375.51 379.21C376.303 378.379 376.973 377.766 377.521 377.369C378.087 376.973 378.833 376.774 379.758 376.774C380.966 376.774 381.938 377.133 382.675 377.851C383.43 378.549 383.808 379.408 383.808 380.428C383.808 381.655 383.175 382.873 381.91 384.081L371.687 393.767L383.468 410.646C384.299 411.816 384.922 412.845 385.337 413.732C385.752 414.601 385.96 415.451 385.96 416.281C385.96 417.206 385.592 418.009 384.855 418.688C384.138 419.368 383.156 419.708 381.91 419.708C380.74 419.708 379.786 419.463 379.05 418.972C378.313 418.462 377.69 417.792 377.181 416.961C376.671 416.13 376.218 415.375 375.821 414.695L365.881 399.402L358.999 406.001V414.582C358.999 416.319 358.603 417.612 357.81 418.462C357.017 419.293 355.997 419.708 354.751 419.708C354.034 419.708 353.344 419.519 352.684 419.142C352.023 418.764 351.513 418.254 351.154 417.612C350.89 417.084 350.729 416.47 350.673 415.771C350.616 415.073 350.588 414.063 350.588 412.741V381.872C350.588 380.173 350.956 378.898 351.692 378.049C352.448 377.199 353.467 376.774 354.751 376.774C356.016 376.774 357.035 377.199 357.81 378.049C358.603 378.88 358.999 380.154 358.999 381.872ZM393.805 414.582V381.872C393.805 380.173 394.192 378.898 394.966 378.049C395.74 377.199 396.741 376.774 397.968 376.774C399.233 376.774 400.252 377.199 401.026 378.049C401.819 378.88 402.216 380.154 402.216 381.872V414.582C402.216 416.3 401.819 417.584 401.026 418.434C400.252 419.283 399.233 419.708 397.968 419.708C396.759 419.708 395.759 419.283 394.966 418.434C394.192 417.565 393.805 416.281 393.805 414.582Z" fill="#45383B"/>
<path d="M492.588 332.838V312.872C492.588 311.173 492.965 309.898 493.721 309.049C494.495 308.199 495.505 307.774 496.751 307.774C498.054 307.774 499.083 308.199 499.838 309.049C500.612 309.898 500.999 311.173 500.999 312.872V333.291C500.999 335.613 501.254 337.558 501.764 339.125C502.292 340.673 503.217 341.882 504.539 342.75C505.861 343.6 507.711 344.024 510.09 344.024C513.375 344.024 515.697 343.156 517.057 341.419C518.416 339.663 519.096 337.01 519.096 333.461V312.872C519.096 311.154 519.473 309.88 520.229 309.049C520.984 308.199 521.994 307.774 523.259 307.774C524.524 307.774 525.543 308.199 526.317 309.049C527.11 309.88 527.507 311.154 527.507 312.872V332.838C527.507 336.085 527.186 338.795 526.544 340.966C525.921 343.137 524.731 345.044 522.976 346.687C521.465 348.084 519.709 349.103 517.708 349.745C515.707 350.387 513.366 350.708 510.685 350.708C507.494 350.708 504.747 350.368 502.443 349.688C500.14 348.99 498.261 347.923 496.808 346.488C495.354 345.035 494.287 343.184 493.607 340.938C492.928 338.672 492.588 335.972 492.588 332.838ZM552.712 333.829H545.009V345.582C545.009 347.262 544.612 348.537 543.819 349.405C543.026 350.274 542.026 350.708 540.817 350.708C539.552 350.708 538.533 350.283 537.759 349.434C536.985 348.565 536.598 347.3 536.598 345.639V313.637C536.598 311.786 537.022 310.465 537.872 309.672C538.722 308.879 540.072 308.482 541.922 308.482H552.712C555.903 308.482 558.357 308.728 560.075 309.219C561.774 309.691 563.238 310.474 564.465 311.569C565.711 312.664 566.655 314.005 567.297 315.591C567.939 317.177 568.26 318.961 568.26 320.943C568.26 325.173 566.957 328.382 564.352 330.572C561.746 332.743 557.866 333.829 552.712 333.829ZM550.673 314.798H545.009V327.485H550.673C552.655 327.485 554.307 327.278 555.629 326.862C556.969 326.447 557.989 325.767 558.688 324.823C559.386 323.879 559.735 322.643 559.735 321.113C559.735 319.282 559.197 317.79 558.121 316.639C556.913 315.411 554.43 314.798 550.673 314.798Z" fill="#45383B"/>
<path d="M500.999 381.872V393.767H519.152V381.872C519.152 380.173 519.53 378.898 520.285 378.049C521.059 377.199 522.069 376.774 523.315 376.774C524.58 376.774 525.6 377.199 526.374 378.049C527.167 378.88 527.563 380.154 527.563 381.872V414.582C527.563 416.3 527.167 417.584 526.374 418.434C525.581 419.283 524.562 419.708 523.315 419.708C522.05 419.708 521.04 419.283 520.285 418.434C519.53 417.565 519.152 416.281 519.152 414.582V400.62H500.999V414.582C500.999 416.3 500.603 417.584 499.81 418.434C499.017 419.283 497.997 419.708 496.751 419.708C495.486 419.708 494.476 419.283 493.721 418.434C492.965 417.565 492.588 416.281 492.588 414.582V381.872C492.588 380.173 492.956 378.898 493.692 378.049C494.448 377.199 495.467 376.774 496.751 376.774C498.016 376.774 499.035 377.199 499.81 378.049C500.603 378.88 500.999 380.154 500.999 381.872ZM563.955 383.968H545.009V394.163H562.454C563.738 394.163 564.691 394.456 565.314 395.041C565.956 395.607 566.277 396.363 566.277 397.307C566.277 398.251 565.966 399.025 565.343 399.629C564.72 400.214 563.757 400.507 562.454 400.507H545.009V412.316H564.606C565.928 412.316 566.919 412.628 567.58 413.251C568.26 413.855 568.6 414.667 568.6 415.687C568.6 416.668 568.26 417.471 567.58 418.094C566.919 418.698 565.928 419 564.606 419H541.752C539.921 419 538.599 418.594 537.787 417.782C536.994 416.97 536.598 415.658 536.598 413.846V382.637C536.598 381.428 536.777 380.447 537.136 379.691C537.494 378.917 538.051 378.36 538.807 378.021C539.581 377.662 540.562 377.482 541.752 377.482H563.955C565.296 377.482 566.287 377.785 566.929 378.389C567.59 378.974 567.92 379.748 567.92 380.711C567.92 381.693 567.59 382.486 566.929 383.09C566.287 383.675 565.296 383.968 563.955 383.968Z" fill="#45383B"/>
</g>
<defs>
<clipPath id="clip0">
<rect width="547" height="799" fill="white"/>
</clipPath>
</defs>
</svg>
